Prociono.ufo
<glyph name="exclam" format="1">
  <advance width="240"/>
  <unicode hex="0021"/>
  <outline>
    <contour>
      <point x="69" y="701"/>
      <point x="83" y="428"/>
      <point x="91" y="286" type="curve" smooth="yes"/>
      <point x="96" y="202" type="line"/>
      <point x="129" y="196" type="line"/>
      <point x="143" y="270"/>
      <point x="167" y="548"/>
      <point x="183" y="748" type="curve"/>
      <point x="171" y="759" type="line"/>
      <point x="144" y="753"/>
      <point x="104" y="747"/>
      <point x="69" y="742" type="curve"/>
    </contour>
    <contour>
      <point x="56" y="76"/>
      <point x="83" y="-10"/>
      <point x="104" y="-10" type="curve" smooth="yes"/>
      <point x="128" y="-10"/>
      <point x="170" y="39"/>
      <point x="170" y="60" type="curve" smooth="yes"/>
      <point x="170" y="74"/>
      <point x="133" y="148"/>
      <point x="108" y="148" type="curve" smooth="yes"/>
      <point x="82" y="148"/>
      <point x="56" y="96"/>
      <point x="56" y="84" type="curve" smooth="yes"/>
    </contour>
  </outline>
</glyph>
<glyph name="quotedbl" format="1">
  <advance width="368"/>
  <unicode hex="0022"/>
  <outline>
    <contour>
      <point x="86" y="565" type="line"/>
      <point x="126" y="565" type="line"/>
      <point x="152" y="791" type="line"/>
      <point x="143" y="795"/>
      <point x="125" y="797"/>
      <point x="106" y="797" type="curve" smooth="yes"/>
      <point x="87" y="797"/>
      <point x="69" y="795"/>
      <point x="60" y="791" type="curve"/>
    </contour>
    <contour>
      <point x="242" y="565" type="line"/>
      <point x="282" y="565" type="line"/>
      <point x="308" y="791" type="line"/>
      <point x="299" y="795"/>
      <point x="281" y="797"/>
      <point x="262" y="797" type="curve" smooth="yes"/>
      <point x="243" y="797"/>
      <point x="225" y="795"/>
      <point x="216" y="791" type="curve"/>
    </contour>
  </outline>
</glyph>
<glyph name="numbersign" format="1">
  <advance width="487"/>
  <unicode hex="0023"/>
  <outline>
    <contour>
      <point x="48" y="163" type="line"/>
      <point x="131" y="163" type="line"/>
      <point x="128" y="121"/>
      <point x="119" y="48"/>
      <point x="112" y="5" type="curve"/>
      <point x="112" y="5"/>
      <point x="163" y="10"/>
      <point x="174" y="16" type="curve"/>
      <point x="174" y="71"/>
      <point x="177" y="131"/>
      <point x="184" y="162" type="curve"/>
      <point x="284" y="162" type="line"/>
      <point x="280" y="119"/>
      <point x="272" y="47"/>
      <point x="264" y="4" type="curve"/>
      <point x="264" y="4"/>
      <point x="315" y="9"/>
      <point x="327" y="15" type="curve"/>
      <point x="327" y="69"/>
      <point x="331" y="132"/>
      <point x="338" y="163" type="curve"/>
      <point x="417" y="163" type="line"/>
      <point x="426" y="211" type="line"/>
      <point x="337" y="211" type="line"/>
      <point x="349" y="302" type="line"/>
      <point x="437" y="302" type="line"/>
      <point x="447" y="348" type="line"/>
      <point x="354" y="348" type="line"/>
      <point x="359" y="403"/>
      <point x="371" y="455"/>
      <point x="380" y="485" type="curve"/>
      <point x="380" y="485"/>
      <point x="326" y="483"/>
      <point x="314" y="477" type="curve"/>
      <point x="314" y="453"/>
      <point x="306" y="377"/>
      <point x="302" y="346" type="curve"/>
      <point x="206" y="346" type="line"/>
      <point x="211" y="401"/>
      <point x="223" y="455"/>
      <point x="233" y="485" type="curve"/>
      <point x="233" y="485"/>
      <point x="176" y="481"/>
      <point x="164" y="475" type="curve"/>
      <point x="164" y="451"/>
      <point x="156" y="375"/>
      <point x="152" y="344" type="curve"/>
      <point x="76" y="344" type="line"/>
      <point x="67" y="300" type="line"/>
      <point x="144" y="300" type="line"/>
      <point x="135" y="207" type="line"/>
      <point x="57" y="207" type="line"/>
    </contour>
    <contour>
      <point x="189" y="208" type="line"/>
      <point x="200" y="301" type="line"/>
      <point x="298" y="301" type="line"/>
      <point x="286" y="208" type="line"/>
    </contour>
  </outline>
</glyph>
<glyph name="dollar" format="1">
  <advance width="480"/>
  <unicode hex="0024"/>
  <outline>
    <contour>
      <point x="84" y="265"/>
      <point x="151" y="238"/>
      <point x="215" y="216" type="curve"/>
      <point x="215" y="48" type="line"/>
      <point x="183" y="52"/>
      <point x="164" y="64"/>
      <point x="154" y="79" type="curve"/>
      <point x="126" y="117"/>
      <point x="147" y="171"/>
      <point x="113" y="171" type="curve" smooth="yes"/>
      <point x="89" y="171"/>
      <point x="86" y="162"/>
      <point x="86" y="53" type="curve" smooth="yes"/>
      <point x="86" y="38"/>
      <point x="89" y="27"/>
      <point x="94" y="19" type="curve" smooth="yes"/>
      <point x="104" y="3"/>
      <point x="138" y="-16"/>
      <point x="215" y="-17" type="curve"/>
      <point x="215" y="-96" type="line"/>
      <point x="256" y="-96" type="line"/>
      <point x="256" y="-13" type="line"/>
      <point x="298" y="-5"/>
      <point x="334" y="5"/>
      <point x="381" y="80" type="curve" smooth="yes"/>
      <point x="394" y="102"/>
      <point x="396" y="130"/>
      <point x="396" y="158" type="curve" smooth="yes"/>
      <point x="396" y="260"/>
      <point x="322" y="288"/>
      <point x="256" y="311" type="curve"/>
      <point x="256" y="465" type="line"/>
      <point x="278" y="462"/>
      <point x="299" y="454"/>
      <point x="310" y="437" type="curve" smooth="yes"/>
      <point x="323" y="418"/>
      <point x="334" y="375"/>
      <point x="335" y="361" type="curve"/>
      <point x="372" y="361" type="line"/>
      <point x="372" y="420"/>
      <point x="375" y="449"/>
      <point x="375" y="459" type="curve" smooth="yes"/>
      <point x="375" y="495"/>
      <point x="356" y="502"/>
      <point x="341" y="508" type="curve" smooth="yes"/>
      <point x="318" y="518"/>
      <point x="291" y="525"/>
      <point x="259" y="525" type="curve" smooth="yes"/>
      <point x="256" y="525" type="line"/>
      <point x="256" y="608" type="line"/>
      <point x="215" y="608" type="line"/>
      <point x="215" y="522" type="line"/>
      <point x="167" y="515"/>
      <point x="139" y="493"/>
      <point x="101" y="432" type="curve" smooth="yes"/>
      <point x="88" y="412"/>
      <point x="84" y="385"/>
      <point x="84" y="358" type="curve" smooth="yes"/>
    </contour>
    <contour>
      <point x="151" y="416"/>
      <point x="158" y="457"/>
      <point x="215" y="465" type="curve"/>
      <point x="215" y="326" type="line"/>
      <point x="178" y="342"/>
      <point x="151" y="361"/>
      <point x="151" y="400" type="curve" smooth="yes"/>
    </contour>
    <contour>
      <point x="256" y="202" type="line"/>
      <point x="298" y="187"/>
      <point x="331" y="167"/>
      <point x="331" y="122" type="curve" smooth="yes"/>
      <point x="331" y="80"/>
      <point x="303" y="54"/>
      <point x="256" y="48" type="curve"/>
    </contour>
  </outline>
</glyph>
<glyph name="percent" format="1">
  <advance width="697"/>
  <unicode hex="0025"/>
  <outline>
    <contour>
      <point x="42" y="281"/>
      <point x="87" y="216"/>
      <point x="168" y="216" type="curve" smooth="yes"/>
      <point x="242" y="216"/>
      <point x="285" y="287"/>
      <point x="292" y="303" type="curve" smooth="yes"/>
      <point x="298" y="318"/>
      <point x="304" y="350"/>
      <point x="304" y="367" type="curve" smooth="yes"/>
      <point x="304" y="442"/>
      <point x="267" y="524"/>
      <point x="173" y="524" type="curve" smooth="yes"/>
      <point x="157" y="524"/>
      <point x="120" y="512"/>
      <point x="91" y="489" type="curve" smooth="yes"/>
      <point x="63" y="467"/>
      <point x="42" y="428"/>
      <point x="42" y="369" type="curve" smooth="yes"/>
    </contour>
    <contour>
      <point x="93" y="463"/>
      <point x="138" y="465"/>
      <point x="169" y="465" type="curve" smooth="yes"/>
      <point x="208" y="465"/>
      <point x="252" y="429"/>
      <point x="252" y="367" type="curve" smooth="yes"/>
      <point x="252" y="300"/>
      <point x="235" y="275"/>
      <point x="177" y="275" type="curve" smooth="yes"/>
      <point x="141" y="275"/>
      <point x="93" y="309"/>
      <point x="93" y="370" type="curve" smooth="yes"/>
    </contour>
    <contour>
      <point x="150" y="-3" type="line"/>
      <point x="187" y="-27" type="line"/>
      <point x="540" y="513" type="line"/>
      <point x="503" y="537" type="line"/>
    </contour>
    <contour>
      <point x="392" y="52"/>
      <point x="437" y="-12"/>
      <point x="518" y="-12" type="curve" smooth="yes"/>
      <point x="592" y="-12"/>
      <point x="635" y="59"/>
      <point x="642" y="75" type="curve" smooth="yes"/>
      <point x="648" y="89"/>
      <point x="655" y="121"/>
      <point x="655" y="139" type="curve" smooth="yes"/>
      <point x="655" y="213"/>
      <point x="617" y="296"/>
      <point x="523" y="296" type="curve" smooth="yes"/>
      <point x="507" y="296"/>
      <point x="470" y="284"/>
      <point x="441" y="261" type="curve" smooth="yes"/>
      <point x="414" y="239"/>
      <point x="392" y="200"/>
      <point x="392" y="141" type="curve" smooth="yes"/>
    </contour>
    <contour>
      <point x="443" y="235"/>
      <point x="489" y="236"/>
      <point x="519" y="236" type="curve" smooth="yes"/>
      <point x="558" y="236"/>
      <point x="602" y="201"/>
      <point x="602" y="139" type="curve" smooth="yes"/>
      <point x="602" y="71"/>
      <point x="585" y="47"/>
      <point x="527" y="47" type="curve" smooth="yes"/>
      <point x="491" y="47"/>
      <point x="443" y="81"/>
      <point x="443" y="142" type="curve" smooth="yes"/>
    </contour>
  </outline>
</glyph>
<glyph name="ampersand" format="1">
  <advance width="780"/>
  <unicode hex="0026"/>
  <outline>
    <contour>
      <point x="45" y="142"/>
      <point x="65" y="87"/>
      <point x="116" y="38" type="curve" smooth="yes"/>
      <point x="174" y="-18"/>
      <point x="198" y="-18"/>
      <point x="267" y="-18" type="curve" smooth="yes"/>
      <point x="353" y="-18"/>
      <point x="369" y="-11"/>
      <point x="403" y="13" type="curve" smooth="yes"/>
      <point x="435" y="35" type="line" smooth="yes"/>
      <point x="466" y="56"/>
      <point x="496" y="83"/>
      <point x="522" y="117" type="curve"/>
      <point x="637" y="-4" type="line"/>
      <point x="688" y="0"/>
      <point x="721" y="0"/>
      <point x="770" y="0" type="curve"/>
      <point x="770" y="33" type="line"/>
      <point x="698" y="85"/>
      <point x="631" y="138"/>
      <point x="570" y="191" type="curve"/>
      <point x="674" y="386"/>
      <point x="606" y="468"/>
      <point x="732" y="477" type="curve"/>
      <point x="732" y="510" type="line"/>
      <point x="707" y="508"/>
      <point x="666" y="507"/>
      <point x="624" y="507" type="curve" smooth="yes"/>
      <point x="583" y="507"/>
      <point x="541" y="508"/>
      <point x="516" y="510" type="curve"/>
      <point x="516" y="477" type="line"/>
      <point x="568" y="473"/>
      <point x="590" y="463"/>
      <point x="590" y="413" type="curve" smooth="yes"/>
      <point x="590" y="359"/>
      <point x="571" y="287"/>
      <point x="536" y="222" type="curve"/>
      <point x="348" y="392"/>
      <point x="229" y="553"/>
      <point x="229" y="626" type="curve" smooth="yes"/>
      <point x="229" y="678"/>
      <point x="268" y="707"/>
      <point x="313" y="707" type="curve" smooth="yes"/>
      <point x="355" y="707"/>
      <point x="393" y="692"/>
      <point x="393" y="633" type="curve" smooth="yes"/>
      <point x="393" y="618"/>
      <point x="390" y="604"/>
      <point x="388" y="592" type="curve"/>
      <point x="422" y="584" type="line"/>
      <point x="448" y="638"/>
      <point x="459" y="680"/>
      <point x="459" y="711" type="curve" smooth="yes"/>
      <point x="459" y="746"/>
      <point x="430" y="766"/>
      <point x="322" y="766" type="curve" smooth="yes"/>
      <point x="219" y="766"/>
      <point x="142" y="691"/>
      <point x="142" y="617" type="curve" smooth="yes"/>
      <point x="142" y="570"/>
      <point x="165" y="509"/>
      <point x="229" y="430" type="curve"/>
      <point x="179" y="400"/>
      <point x="140" y="370"/>
      <point x="111" y="344" type="curve" smooth="yes"/>
      <point x="72" y="310"/>
      <point x="45" y="255"/>
      <point x="45" y="194" type="curve" smooth="yes"/>
    </contour>
    <contour>
      <point x="144" y="279"/>
      <point x="176" y="343"/>
      <point x="259" y="396" type="curve"/>
      <point x="489" y="152" type="line"/>
      <point x="443" y="98"/>
      <point x="382" y="59"/>
      <point x="309" y="59" type="curve" smooth="yes"/>
      <point x="220" y="59"/>
      <point x="144" y="133"/>
      <point x="144" y="221" type="curve" smooth="yes"/>
    </contour>
  </outline>
</glyph>
<glyph name="quotesingle" format="1">
  <advance width="212"/>
  <unicode hex="0027"/>
  <outline>
    <contour>
      <point x="86" y="565" type="line"/>
      <point x="126" y="565" type="line"/>
      <point x="152" y="791" type="line"/>
      <point x="143" y="795"/>
      <point x="125" y="797"/>
      <point x="106" y="797" type="curve" smooth="yes"/>
      <point x="87" y="797"/>
      <point x="69" y="795"/>
      <point x="60" y="791" type="curve"/>
    </contour>
  </outline>
</glyph>
<glyph name="parenleft" format="1">
  <advance width="330"/>
  <unicode hex="0028"/>
  <outline>
    <contour>
      <point x="100" y="172"/>
      <point x="133" y="38"/>
      <point x="157" y="-20" type="curve" smooth="yes"/>
      <point x="197" y="-118"/>
      <point x="307" y="-208"/>
      <point x="308" y="-209" type="curve"/>
      <point x="330" y="-187" type="line"/>
      <point x="281" y="-114"/>
      <point x="234" y="-13"/>
      <point x="225" y="6" type="curve" smooth="yes"/>
      <point x="201" y="56"/>
      <point x="195" y="183"/>
      <point x="195" y="296" type="curve" smooth="yes"/>
      <point x="195" y="410"/>
      <point x="201" y="537"/>
      <point x="225" y="586" type="curve" smooth="yes"/>
      <point x="234" y="606"/>
      <point x="281" y="707"/>
      <point x="330" y="780" type="curve"/>
      <point x="308" y="802" type="line"/>
      <point x="307" y="800"/>
      <point x="197" y="711"/>
      <point x="157" y="613" type="curve" smooth="yes"/>
      <point x="133" y="554"/>
      <point x="100" y="423"/>
      <point x="100" y="296" type="curve" smooth="yes"/>
    </contour>
  </outline>
</glyph>
<glyph name="parenright" format="1">
  <advance width="330"/>
  <unicode hex="0029"/>
  <outline>
    <contour>
      <point x="22" y="-209" type="line"/>
      <point x="23" y="-208"/>
      <point x="133" y="-118"/>
      <point x="173" y="-20" type="curve" smooth="yes"/>
      <point x="197" y="38"/>
      <point x="230" y="172"/>
      <point x="230" y="296" type="curve" smooth="yes"/>
      <point x="230" y="423"/>
      <point x="197" y="554"/>
      <point x="173" y="613" type="curve" smooth="yes"/>
      <point x="133" y="711"/>
      <point x="23" y="800"/>
      <point x="22" y="802" type="curve"/>
      <point x="0" y="780" type="line"/>
      <point x="49" y="707"/>
      <point x="96" y="606"/>
      <point x="105" y="586" type="curve" smooth="yes"/>
      <point x="129" y="537"/>
      <point x="135" y="410"/>
      <point x="135" y="296" type="curve" smooth="yes"/>
      <point x="135" y="183"/>
      <point x="129" y="56"/>
      <point x="105" y="6" type="curve" smooth="yes"/>
      <point x="96" y="-13"/>
      <point x="49" y="-114"/>
      <point x="0" y="-187" type="curve"/>
    </contour>
  </outline>
</glyph>
<glyph name="asterisk" format="1">
  <advance width="520"/>
  <unicode hex="002A"/>
  <outline>
    <contour>
      <point x="50" y="554" type="line"/>
      <point x="237" y="533" type="line"/>
      <point x="115" y="405" type="line"/>
      <point x="118" y="389" type="line"/>
      <point x="186" y="343" type="line"/>
      <point x="264" y="515" type="line"/>
      <point x="348" y="359" type="line"/>
      <point x="364" y="357" type="line"/>
      <point x="429" y="408" type="line"/>
      <point x="289" y="535" type="line"/>
      <point x="464" y="566" type="line"/>
      <point x="470" y="581" type="line"/>
      <point x="442" y="659" type="line"/>
      <point x="279" y="565" type="line"/>
      <point x="302" y="741" type="line"/>
      <point x="290" y="751" type="line"/>
      <point x="208" y="749" type="line"/>
      <point x="246" y="564" type="line"/>
      <point x="86" y="641" type="line"/>
      <point x="72" y="633" type="line"/>
    </contour>
  </outline>
</glyph>
<glyph name="plus" format="1">
  <advance width="480"/>
  <unicode hex="002B"/>
  <outline>
    <contour>
      <point x="11" y="250" type="line"/>
      <point x="208" y="250" type="line"/>
      <point x="208" y="53" type="line"/>
      <point x="274" y="67" type="line"/>
      <point x="275" y="250" type="line"/>
      <point x="459" y="250" type="line"/>
      <point x="472" y="305" type="line"/>
      <point x="460" y="316" type="line"/>
      <point x="274" y="316" type="line"/>
      <point x="275" y="502" type="line"/>
      <point x="264" y="514" type="line"/>
      <point x="208" y="501" type="line"/>
      <point x="208" y="316" type="line"/>
      <point x="25" y="316" type="line"/>
    </contour>
  </outline>
</glyph>
<glyph name="period" format="1">
  <advance width="240"/>
  <unicode hex="002E"/>
  <outline>
    <contour>
      <point x="63" y="76"/>
      <point x="90" y="-10"/>
      <point x="111" y="-10" type="curve" smooth="yes"/>
      <point x="135" y="-10"/>
      <point x="177" y="39"/>
      <point x="177" y="60" type="curve" smooth="yes"/>
      <point x="177" y="74"/>
      <point x="140" y="148"/>
      <point x="115" y="148" type="curve" smooth="yes"/>
      <point x="89" y="148"/>
      <point x="63" y="96"/>
      <point x="63" y="84" type="curve" smooth="yes"/>
    </contour>
  </outline>
</glyph>
<glyph name="slash" format="1">
  <advance width="480"/>
  <unicode hex="002F"/>
  <outline>
    <contour>
      <point x="-20" y="-140" type="line"/>
      <point x="43" y="-140" type="line"/>
      <point x="500" y="797" type="line"/>
      <point x="439" y="797" type="line"/>
    </contour>
  </outline>
</glyph>
<glyph name="zero" format="1">
  <advance width="480"/>
  <unicode hex="0030"/>
  <outline>
    <contour>
      <point x="30" y="96"/>
      <point x="102" y="-18"/>
      <point x="232" y="-18" type="curve" smooth="yes"/>
      <point x="351" y="-18"/>
      <point x="420" y="108"/>
      <point x="430" y="136" type="curve" smooth="yes"/>
      <point x="439" y="161"/>
      <point x="450" y="218"/>
      <point x="450" y="248" type="curve" smooth="yes"/>
      <point x="450" y="380"/>
      <point x="390" y="525"/>
      <point x="239" y="525" type="curve" smooth="yes"/>
      <point x="213" y="525"/>
      <point x="154" y="504"/>
      <point x="108" y="464" type="curve" smooth="yes"/>
      <point x="64" y="425"/>
      <point x="30" y="356"/>
      <point x="30" y="252" type="curve" smooth="yes"/>
    </contour>
    <contour>
      <point x="97" y="436"/>
      <point x="178" y="439"/>
      <point x="232" y="439" type="curve" smooth="yes"/>
      <point x="302" y="439"/>
      <point x="380" y="369"/>
      <point x="380" y="248" type="curve" smooth="yes"/>
      <point x="380" y="116"/>
      <point x="350" y="69"/>
      <point x="247" y="69" type="curve" smooth="yes"/>
      <point x="182" y="69"/>
      <point x="97" y="135"/>
      <point x="97" y="254" type="curve" smooth="yes"/>
    </contour>
  </outline>
</glyph>
<glyph name="one" format="1">
  <advance width="480"/>
  <unicode hex="0031"/>
  <outline>
    <contour>
      <point x="74" y="360" type="line"/>
      <point x="174" y="400"/>
      <point x="218" y="409"/>
      <point x="253" y="409" type="curve"/>
      <point x="258" y="268"/>
      <point x="259" y="242"/>
      <point x="259" y="209" type="curve" smooth="yes"/>
      <point x="259" y="183"/>
      <point x="256" y="90"/>
      <point x="254" y="76" type="curve"/>
      <point x="251" y="35"/>
      <point x="174" y="32"/>
      <point x="117" y="31" type="curve" smooth="yes"/>
      <point x="92" y="31" type="line"/>
      <point x="92" y="0" type="line"/>
      <point x="474" y="0" type="line"/>
      <point x="474" y="31" type="line"/>
      <point x="343" y="35"/>
      <point x="342" y="50"/>
      <point x="340" y="112" type="curve" smooth="yes"/>
      <point x="339" y="144"/>
      <point x="339" y="174"/>
      <point x="339" y="203" type="curve" smooth="yes"/>
      <point x="339" y="315"/>
      <point x="344" y="409"/>
      <point x="351" y="514" type="curve"/>
      <point x="339" y="525" type="line"/>
      <point x="293" y="516"/>
      <point x="110" y="417"/>
      <point x="60" y="390" type="curve"/>
    </contour>
  </outline>
</glyph>
<glyph name="two" format="1">
  <advance width="480"/>
  <unicode hex="0032"/>
  <outline>
    <contour>
      <point x="10" y="29" type="line"/>
      <point x="24" y="0" type="line"/>
      <point x="451" y="0" type="line"/>
      <point x="451" y="23"/>
      <point x="453" y="55"/>
      <point x="455" y="72" type="curve"/>
      <point x="443" y="83" type="line"/>
      <point x="404" y="79"/>
      <point x="318" y="74"/>
      <point x="242" y="74" type="curve" smooth="yes"/>
      <point x="213" y="74"/>
      <point x="179" y="75"/>
      <point x="142" y="76" type="curve"/>
      <point x="152" y="84"/>
      <point x="166" y="94"/>
      <point x="182" y="105" type="curve" smooth="yes"/>
      <point x="234" y="140" type="line" smooth="yes"/>
      <point x="319" y="199"/>
      <point x="423" y="282"/>
      <point x="423" y="377" type="curve" smooth="yes"/>
      <point x="423" y="494"/>
      <point x="317" y="527"/>
      <point x="237" y="527" type="curve" smooth="yes"/>
      <point x="216" y="527"/>
      <point x="198" y="525"/>
      <point x="183" y="521" type="curve"/>
      <point x="61" y="439" type="line"/>
      <point x="75" y="410" type="line"/>
      <point x="159" y="449"/>
      <point x="177" y="451"/>
      <point x="212" y="451" type="curve" smooth="yes"/>
      <point x="305" y="451"/>
      <point x="322" y="399"/>
      <point x="322" y="351" type="curve" smooth="yes"/>
      <point x="322" y="283"/>
      <point x="252" y="220"/>
      <point x="159" y="147" type="curve" smooth="yes"/>
      <point x="45" y="58" type="line"/>
    </contour>
  </outline>
</glyph>
<glyph name="three" format="1">
  <advance width="480"/>
  <unicode hex="0033"/>
  <outline>
    <contour>
      <point x="20" y="-157" type="line"/>
      <point x="43" y="-203" type="line"/>
      <point x="272" y="-203"/>
      <point x="412" y="-52"/>
      <point x="412" y="76" type="curve" smooth="yes"/>
      <point x="412" y="142"/>
      <point x="349" y="213"/>
      <point x="264" y="215" type="curve"/>
      <point x="360" y="259"/>
      <point x="399" y="315"/>
      <point x="399" y="379" type="curve" smooth="yes"/>
      <point x="399" y="470"/>
      <point x="305" y="525"/>
      <point x="219" y="525" type="curve" smooth="yes"/>
      <point x="200" y="525"/>
      <point x="182" y="522"/>
      <point x="164" y="517" type="curve"/>
      <point x="54" y="429" type="line"/>
      <point x="70" y="401" type="line"/>
      <point x="148" y="445"/>
      <point x="197" y="455"/>
      <point x="211" y="455" type="curve" smooth="yes"/>
      <point x="220" y="455"/>
      <point x="309" y="431"/>
      <point x="309" y="353" type="curve" smooth="yes"/>
      <point x="309" y="325"/>
      <point x="295" y="242"/>
      <point x="119" y="214" type="curve"/>
      <point x="126" y="170" type="line"/>
      <point x="134" y="170"/>
      <point x="141" y="171"/>
      <point x="148" y="171" type="curve" smooth="yes"/>
      <point x="290" y="171"/>
      <point x="319" y="112"/>
      <point x="319" y="52" type="curve" smooth="yes"/>
      <point x="319" y="-47"/>
      <point x="192" y="-152"/>
      <point x="63" y="-152" type="curve" smooth="yes"/>
      <point x="51" y="-152"/>
      <point x="38" y="-151"/>
      <point x="25" y="-149" type="curve"/>
    </contour>
  </outline>
</glyph>
<glyph name="four" format="1">
  <advance width="480"/>
  <unicode hex="0034"/>
  <outline>
    <contour>
      <point x="-3" y="46" type="line"/>
      <point x="21" y="0" type="line"/>
      <point x="70" y="-3"/>
      <point x="227" y="-3"/>
      <point x="278" y="-3" type="curve"/>
      <point x="277" y="-117"/>
      <point x="274" y="-212"/>
      <point x="274" y="-212" type="curve"/>
      <point x="287" y="-207" type="line"/>
      <point x="305" y="-202"/>
      <point x="353" y="-193"/>
      <point x="375" y="-192" type="curve"/>
      <point x="375" y="-192"/>
      <point x="370" y="-125"/>
      <point x="369" y="-2" type="curve"/>
      <point x="396" y="0"/>
      <point x="421" y="0"/>
      <point x="444" y="0" type="curve" smooth="yes"/>
      <point x="466" y="0" type="line"/>
      <point x="476" y="33"/>
      <point x="482" y="59"/>
      <point x="484" y="75" type="curve"/>
      <point x="481" y="78"/>
      <point x="480" y="79"/>
      <point x="476" y="82" type="curve"/>
      <point x="446" y="80"/>
      <point x="403" y="77"/>
      <point x="369" y="77" type="curve"/>
      <point x="369" y="518" type="line"/>
      <point x="362" y="526" type="line"/>
      <point x="339" y="526"/>
      <point x="288" y="519"/>
      <point x="278" y="515" type="curve"/>
      <point x="241" y="470"/>
      <point x="140" y="309"/>
      <point x="68" y="182" type="curve" smooth="yes"/>
    </contour>
    <contour>
      <point x="82" y="89" type="line"/>
      <point x="107" y="172"/>
      <point x="234" y="377"/>
      <point x="283" y="430" type="curve"/>
      <point x="283" y="338" type="line" smooth="yes"/>
      <point x="283" y="257"/>
      <point x="282" y="178"/>
      <point x="279" y="75" type="curve"/>
      <point x="257" y="74"/>
      <point x="228" y="74"/>
      <point x="193" y="74" type="curve" smooth="yes"/>
      <point x="162" y="74"/>
      <point x="128" y="75"/>
      <point x="94" y="78" type="curve"/>
    </contour>
  </outline>
</glyph>
<glyph name="five" format="1">
  <advance width="480"/>
  <unicode hex="0035"/>
  <outline>
    <contour>
      <point x="22" y="-157" type="line"/>
      <point x="45" y="-203" type="line"/>
      <point x="246" y="-203"/>
      <point x="409" y="-94"/>
      <point x="409" y="92" type="curve" smooth="yes"/>
      <point x="409" y="219"/>
      <point x="303" y="271"/>
      <point x="210" y="271" type="curve" smooth="yes"/>
      <point x="166" y="271"/>
      <point x="156" y="270"/>
      <point x="137" y="268" type="curve"/>
      <point x="139" y="303"/>
      <point x="152" y="391"/>
      <point x="159" y="423" type="curve"/>
      <point x="189" y="424"/>
      <point x="211" y="425"/>
      <point x="241" y="425" type="curve" smooth="yes"/>
      <point x="275" y="425"/>
      <point x="319" y="424"/>
      <point x="396" y="423" type="curve"/>
      <point x="396" y="441"/>
      <point x="398" y="482"/>
      <point x="402" y="501" type="curve"/>
      <point x="390" y="512" type="line"/>
      <point x="314" y="509"/>
      <point x="258" y="508"/>
      <point x="217" y="508" type="curve" smooth="yes"/>
      <point x="174" y="508"/>
      <point x="148" y="509"/>
      <point x="135" y="510" type="curve"/>
      <point x="121" y="496" type="line"/>
      <point x="117" y="464"/>
      <point x="75" y="202"/>
      <point x="75" y="202" type="curve"/>
      <point x="96" y="184" type="line"/>
      <point x="152" y="184" type="line" smooth="yes"/>
      <point x="243" y="184"/>
      <point x="309" y="178"/>
      <point x="309" y="36" type="curve" smooth="yes"/>
      <point x="309" y="-63"/>
      <point x="194" y="-152"/>
      <point x="65" y="-152" type="curve" smooth="yes"/>
      <point x="53" y="-152"/>
      <point x="40" y="-151"/>
      <point x="27" y="-149" type="curve"/>
    </contour>
  </outline>
</glyph>
<glyph name="six" format="1">
  <advance width="480"/>
  <unicode hex="0036"/>
  <outline>
    <contour>
      <point x="25" y="42"/>
      <point x="127" y="-17"/>
      <point x="235" y="-17" type="curve" smooth="yes"/>
      <point x="306" y="-17"/>
      <point x="458" y="18"/>
      <point x="458" y="255" type="curve" smooth="yes"/>
      <point x="458" y="408"/>
      <point x="374" y="455"/>
      <point x="285" y="455" type="curve" smooth="yes"/>
      <point x="189" y="455"/>
      <point x="153" y="424"/>
      <point x="125" y="380" type="curve"/>
      <point x="131" y="500"/>
      <point x="212" y="624"/>
      <point x="278" y="669" type="curve" smooth="yes"/>
      <point x="295" y="680" type="line" smooth="yes"/>
      <point x="334" y="705"/>
      <point x="385" y="732"/>
      <point x="395" y="736" type="curve"/>
      <point x="376" y="767" type="line"/>
      <point x="315" y="747"/>
      <point x="263" y="720"/>
      <point x="215" y="684" type="curve" smooth="yes"/>
      <point x="142" y="629"/>
      <point x="25" y="518"/>
      <point x="25" y="269" type="curve" smooth="yes"/>
    </contour>
    <contour>
      <point x="120" y="320"/>
      <point x="121" y="329"/>
      <point x="121" y="338" type="curve"/>
      <point x="141" y="366"/>
      <point x="163" y="396"/>
      <point x="235" y="396" type="curve" smooth="yes"/>
      <point x="253" y="396"/>
      <point x="269" y="394"/>
      <point x="283" y="389" type="curve"/>
      <point x="349" y="369"/>
      <point x="374" y="329"/>
      <point x="374" y="227" type="curve" smooth="yes"/>
      <point x="374" y="138"/>
      <point x="341" y="36"/>
      <point x="259" y="36" type="curve" smooth="yes"/>
      <point x="143" y="36"/>
      <point x="127" y="149"/>
      <point x="122" y="248" type="curve" smooth="yes"/>
      <point x="121" y="266" type="line"/>
      <point x="121" y="275"/>
      <point x="120" y="293"/>
      <point x="120" y="310" type="curve" smooth="yes"/>
    </contour>
  </outline>
</glyph>
<glyph name="seven" format="1">
  <advance width="480"/>
  <unicode hex="0037"/>
  <outline>
    <contour>
      <point x="69" y="336" type="line"/>
      <point x="98" y="412"/>
      <point x="105" y="423"/>
      <point x="113" y="427" type="curve"/>
      <point x="139" y="426"/>
      <point x="353" y="426"/>
      <point x="353" y="426" type="curve"/>
      <point x="365" y="415" type="line"/>
      <point x="323" y="276"/>
      <point x="256" y="101"/>
      <point x="69" y="-188" type="curve"/>
      <point x="86" y="-201"/>
      <point x="99" y="-208"/>
      <point x="109" y="-212" type="curve"/>
      <point x="216" y="-78"/>
      <point x="465" y="367"/>
      <point x="473" y="499" type="curve"/>
      <point x="461" y="510" type="line"/>
      <point x="431" y="509"/>
      <point x="356" y="508"/>
      <point x="279" y="508" type="curve" smooth="yes"/>
      <point x="180" y="508"/>
      <point x="77" y="509"/>
      <point x="58" y="510" type="curve"/>
      <point x="44" y="496" type="line"/>
      <point x="45" y="478"/>
      <point x="45" y="462"/>
      <point x="45" y="447" type="curve" smooth="yes"/>
      <point x="45" y="415"/>
      <point x="43" y="386"/>
      <point x="40" y="336" type="curve"/>
    </contour>
  </outline>
</glyph>
<glyph name="eight" format="1">
  <advance width="480"/>
  <unicode hex="0038"/>
  <outline>
    <contour>
      <point x="21" y="66"/>
      <point x="107" y="-17"/>
      <point x="237" y="-17" type="curve" smooth="yes"/>
      <point x="384" y="-17"/>
      <point x="458" y="100"/>
      <point x="458" y="216" type="curve" smooth="yes"/>
      <point x="458" y="297"/>
      <point x="422" y="376"/>
      <point x="351" y="414" type="curve" smooth="yes"/>
      <point x="317" y="431" type="line"/>
      <point x="403" y="485"/>
      <point x="444" y="556"/>
      <point x="444" y="619" type="curve" smooth="yes"/>
      <point x="444" y="704"/>
      <point x="372" y="776"/>
      <point x="241" y="776" type="curve" smooth="yes"/>
      <point x="128" y="776"/>
      <point x="44" y="690"/>
      <point x="44" y="576" type="curve" smooth="yes"/>
      <point x="44" y="534"/>
      <point x="81" y="444"/>
      <point x="154" y="403" type="curve"/>
      <point x="58" y="348"/>
      <point x="21" y="289"/>
      <point x="21" y="194" type="curve" smooth="yes"/>
    </contour>
    <contour>
      <point x="99" y="262"/>
      <point x="133" y="317"/>
      <point x="219" y="368" type="curve"/>
      <point x="259" y="347" type="line" smooth="yes"/>
      <point x="317" y="317"/>
      <point x="373" y="280"/>
      <point x="373" y="194" type="curve" smooth="yes"/>
      <point x="373" y="118"/>
      <point x="332" y="37"/>
      <point x="240" y="37" type="curve" smooth="yes"/>
      <point x="183" y="37"/>
      <point x="99" y="106"/>
      <point x="99" y="189" type="curve" smooth="yes"/>
    </contour>
    <contour>
      <point x="134" y="686"/>
      <point x="176" y="725"/>
      <point x="246" y="725" type="curve" smooth="yes"/>
      <point x="321" y="725"/>
      <point x="366" y="679"/>
      <point x="366" y="601" type="curve" smooth="yes"/>
      <point x="366" y="543"/>
      <point x="326" y="493"/>
      <point x="259" y="463" type="curve"/>
      <point x="185" y="498"/>
      <point x="134" y="563"/>
      <point x="134" y="627" type="curve" smooth="yes"/>
    </contour>
  </outline>
</glyph>
<glyph name="nine" format="1">
  <advance width="480"/>
  <unicode hex="0039"/>
  <outline>
    <contour>
      <point x="35" y="141"/>
      <point x="113" y="50"/>
      <point x="219" y="50" type="curve" smooth="yes"/>
      <point x="256" y="50"/>
      <point x="297" y="61"/>
      <point x="340" y="87" type="curve"/>
      <point x="305" y="-83"/>
      <point x="210" y="-146"/>
      <point x="39" y="-170" type="curve"/>
      <point x="45" y="-204" type="line"/>
      <point x="196" y="-201"/>
      <point x="452" y="-149"/>
      <point x="452" y="281" type="curve" smooth="yes"/>
      <point x="452" y="384"/>
      <point x="415" y="525"/>
      <point x="269" y="525" type="curve" smooth="yes"/>
      <point x="152" y="525"/>
      <point x="35" y="475"/>
      <point x="35" y="274" type="curve" smooth="yes"/>
    </contour>
    <contour>
      <point x="121" y="416"/>
      <point x="175" y="467"/>
      <point x="233" y="467" type="curve" smooth="yes"/>
      <point x="350" y="467"/>
      <point x="356" y="320"/>
      <point x="356" y="276" type="curve" smooth="yes"/>
      <point x="356" y="220"/>
      <point x="353" y="171"/>
      <point x="347" y="128" type="curve"/>
      <point x="329" y="113"/>
      <point x="304" y="102"/>
      <point x="261" y="102" type="curve" smooth="yes"/>
      <point x="141" y="102"/>
      <point x="121" y="196"/>
      <point x="121" y="301" type="curve" smooth="yes"/>
    </contour>
  </outline>
</glyph>
<glyph name="colon" format="1">
  <advance width="240"/>
  <unicode hex="003A"/>
  <outline>
    <contour>
      <point x="63" y="76"/>
      <point x="90" y="-10"/>
      <point x="111" y="-10" type="curve" smooth="yes"/>
      <point x="135" y="-10"/>
      <point x="177" y="39"/>
      <point x="177" y="60" type="curve" smooth="yes"/>
      <point x="177" y="74"/>
      <point x="140" y="148"/>
      <point x="115" y="148" type="curve" smooth="yes"/>
      <point x="89" y="148"/>
      <point x="63" y="96"/>
      <point x="63" y="84" type="curve" smooth="yes"/>
    </contour>
    <contour>
      <point x="63" y="419"/>
      <point x="90" y="333"/>
      <point x="111" y="333" type="curve" smooth="yes"/>
      <point x="135" y="333"/>
      <point x="177" y="382"/>
      <point x="177" y="403" type="curve" smooth="yes"/>
      <point x="177" y="417"/>
      <point x="140" y="491"/>
      <point x="115" y="491" type="curve" smooth="yes"/>
      <point x="89" y="491"/>
      <point x="63" y="439"/>
      <point x="63" y="427" type="curve" smooth="yes"/>
    </contour>
  </outline>
</glyph>
<glyph name="semicolon" format="1">
  <advance width="240"/>
  <unicode hex="003B"/>
  <outline>
    <contour>
      <point x="63" y="419"/>
      <point x="90" y="333"/>
      <point x="111" y="333" type="curve" smooth="yes"/>
      <point x="135" y="333"/>
      <point x="177" y="382"/>
      <point x="177" y="403" type="curve" smooth="yes"/>
      <point x="177" y="417"/>
      <point x="140" y="491"/>
      <point x="115" y="491" type="curve" smooth="yes"/>
      <point x="89" y="491"/>
      <point x="63" y="439"/>
      <point x="63" y="427" type="curve" smooth="yes"/>
    </contour>
    <contour>
      <point x="63" y="64"/>
      <point x="108" y="30"/>
      <point x="108" y="-10" type="curve" smooth="yes"/>
      <point x="108" y="-54"/>
      <point x="68" y="-87"/>
      <point x="68" y="-98" type="curve" smooth="yes"/>
      <point x="68" y="-106"/>
      <point x="81" y="-114"/>
      <point x="83" y="-114" type="curve" smooth="yes"/>
      <point x="101" y="-114"/>
      <point x="177" y="-4"/>
      <point x="177" y="48" type="curve" smooth="yes"/>
      <point x="177" y="80"/>
      <point x="135" y="148"/>
      <point x="113" y="148" type="curve" smooth="yes"/>
      <point x="95" y="148"/>
      <point x="63" y="90"/>
      <point x="63" y="88" type="curve" smooth="yes"/>
    </contour>
  </outline>
</glyph>
<glyph name="less" format="1">
  <advance width="480"/>
  <unicode hex="003C"/>
  <outline>
    <contour>
      <point x="-3" y="247" type="line"/>
      <point x="471" y="36" type="line"/>
      <point x="483" y="47" type="line"/>
      <point x="471" y="108" type="line"/>
      <point x="87" y="279" type="line"/>
      <point x="471" y="450" type="line"/>
      <point x="483" y="511" type="line"/>
      <point x="471" y="522" type="line"/>
      <point x="11" y="317" type="line"/>
    </contour>
  </outline>
</glyph>
<glyph name="equal" format="1">
  <advance width="480"/>
  <unicode hex="003D"/>
  <outline>
    <contour>
      <point x="4" y="172" type="line"/>
      <point x="462" y="172" type="line"/>
      <point x="476" y="227" type="line"/>
      <point x="464" y="238" type="line"/>
      <point x="18" y="238" type="line"/>
    </contour>
    <contour>
      <point x="4" y="328" type="line"/>
      <point x="462" y="328" type="line"/>
      <point x="476" y="383" type="line"/>
      <point x="464" y="394" type="line"/>
      <point x="18" y="394" type="line"/>
    </contour>
  </outline>
</glyph>
<glyph name="greater" format="1">
  <advance width="480"/>
  <unicode hex="003E"/>
  <outline>
    <contour>
      <point x="-3" y="47" type="line"/>
      <point x="9" y="36" type="line"/>
      <point x="469" y="241" type="line"/>
      <point x="483" y="311" type="line"/>
      <point x="9" y="522" type="line"/>
      <point x="-3" y="511" type="line"/>
      <point x="9" y="450" type="line"/>
      <point x="393" y="279" type="line"/>
      <point x="9" y="108" type="line"/>
    </contour>
  </outline>
</glyph>
<glyph name="question" format="1">
  <advance width="445"/>
  <unicode hex="003F"/>
  <outline>
    <contour>
      <point x="70" y="643"/>
      <point x="72" y="613"/>
      <point x="74" y="573" type="curve"/>
      <point x="99" y="573" type="line"/>
      <point x="110" y="615"/>
      <point x="96" y="665"/>
      <point x="228" y="665" type="curve" smooth="yes"/>
      <point x="280" y="665"/>
      <point x="304" y="645"/>
      <point x="313" y="586" type="curve" smooth="yes"/>
      <point x="318" y="552"/>
      <point x="322" y="521"/>
      <point x="322" y="493" type="curve" smooth="yes"/>
      <point x="322" y="408"/>
      <point x="290" y="358"/>
      <point x="193" y="358" type="curve" smooth="yes"/>
      <point x="171" y="358"/>
      <point x="133" y="369"/>
      <point x="85" y="410" type="curve"/>
      <point x="96" y="202" type="line"/>
      <point x="129" y="196" type="line"/>
      <point x="133" y="217"/>
      <point x="138" y="268"/>
      <point x="143" y="315" type="curve"/>
      <point x="166" y="299"/>
      <point x="193" y="288"/>
      <point x="226" y="288" type="curve" smooth="yes"/>
      <point x="356" y="288"/>
      <point x="400" y="373"/>
      <point x="400" y="485" type="curve" smooth="yes"/>
      <point x="400" y="521"/>
      <point x="395" y="560"/>
      <point x="387" y="600" type="curve"/>
      <point x="385" y="608"/>
      <point x="319" y="727"/>
      <point x="191" y="727" type="curve" smooth="yes"/>
      <point x="87" y="727"/>
      <point x="70" y="711"/>
      <point x="70" y="666" type="curve" smooth="yes"/>
    </contour>
    <contour>
      <point x="56" y="76"/>
      <point x="83" y="-10"/>
      <point x="104" y="-10" type="curve" smooth="yes"/>
      <point x="128" y="-10"/>
      <point x="170" y="39"/>
      <point x="170" y="60" type="curve" smooth="yes"/>
      <point x="170" y="74"/>
      <point x="133" y="148"/>
      <point x="108" y="148" type="curve" smooth="yes"/>
      <point x="82" y="148"/>
      <point x="56" y="96"/>
      <point x="56" y="84" type="curve" smooth="yes"/>
    </contour>
  </outline>
</glyph>
<glyph name="at" format="1">
  <advance width="920"/>
  <unicode hex="0040"/>
  <outline>
    <contour>
      <point x="20" y="12"/>
      <point x="169" y="-203"/>
      <point x="473" y="-203" type="curve" smooth="yes"/>
      <point x="530" y="-203"/>
      <point x="634" y="-178"/>
      <point x="675" y="-162" type="curve"/>
      <point x="667" y="-133" type="line"/>
      <point x="627" y="-142"/>
      <point x="562" y="-156"/>
      <point x="501" y="-156" type="curve" smooth="yes"/>
      <point x="225" y="-156"/>
      <point x="111" y="28"/>
      <point x="111" y="225" type="curve" smooth="yes"/>
      <point x="111" y="393"/>
      <point x="206" y="683"/>
      <point x="487" y="683" type="curve" smooth="yes"/>
      <point x="646" y="683"/>
      <point x="811" y="585"/>
      <point x="811" y="374" type="curve" smooth="yes"/>
      <point x="811" y="217"/>
      <point x="720" y="49"/>
      <point x="674" y="49" type="curve" smooth="yes"/>
      <point x="651" y="49"/>
      <point x="645" y="90"/>
      <point x="645" y="126" type="curve" smooth="yes"/>
      <point x="645" y="150"/>
      <point x="654" y="462"/>
      <point x="675" y="516" type="curve"/>
      <point x="653" y="525" type="line"/>
      <point x="618" y="494" type="line"/>
      <point x="589" y="505"/>
      <point x="529" y="522"/>
      <point x="495" y="522" type="curve" smooth="yes"/>
      <point x="413" y="522"/>
      <point x="260" y="380"/>
      <point x="260" y="203" type="curve" smooth="yes"/>
      <point x="260" y="22"/>
      <point x="370" y="-13"/>
      <point x="394" y="-13" type="curve" smooth="yes"/>
      <point x="433" y="-13"/>
      <point x="520" y="51"/>
      <point x="571" y="100" type="curve"/>
      <point x="584" y="5"/>
      <point x="619" y="-12"/>
      <point x="652" y="-12" type="curve" smooth="yes"/>
      <point x="751" y="-12"/>
      <point x="899" y="226"/>
      <point x="899" y="382" type="curve" smooth="yes"/>
      <point x="899" y="626"/>
      <point x="720" y="744"/>
      <point x="523" y="744" type="curve" smooth="yes"/>
      <point x="284" y="744"/>
      <point x="20" y="570"/>
      <point x="20" y="238" type="curve" smooth="yes"/>
    </contour>
    <contour>
      <point x="332" y="361"/>
      <point x="380" y="459"/>
      <point x="459" y="459" type="curve" smooth="yes"/>
      <point x="495" y="459"/>
      <point x="539" y="438"/>
      <point x="587" y="390" type="curve"/>
      <point x="587" y="379"/>
      <point x="579" y="215"/>
      <point x="574" y="156" type="curve"/>
      <point x="534" y="105"/>
      <point x="476" y="68"/>
      <point x="427" y="68" type="curve" smooth="yes"/>
      <point x="387" y="68"/>
      <point x="332" y="156"/>
      <point x="332" y="225" type="curve" smooth="yes"/>
    </contour>
  </outline>
</glyph>
<glyph name="A" format="1">
  <advance width="755"/>
  <unicode hex="0041"/>
  <outline>
    <contour>
      <point x="0" y="0" type="line"/>
      <point x="236" y="0" type="line"/>
      <point x="236" y="39" type="line"/>
      <point x="193" y="43"/>
      <point x="146" y="50"/>
      <point x="146" y="83" type="curve" smooth="yes"/>
      <point x="146" y="98"/>
      <point x="186" y="200"/>
      <point x="208" y="249" type="curve"/>
      <point x="497" y="249" type="line"/>
      <point x="504" y="230"/>
      <point x="511" y="213"/>
      <point x="518" y="197" type="curve" smooth="yes"/>
      <point x="537" y="153" type="line" smooth="yes"/>
      <point x="550" y="123"/>
      <point x="558" y="98"/>
      <point x="558" y="78" type="curve" smooth="yes"/>
      <point x="558" y="45"/>
      <point x="505" y="37"/>
      <point x="469" y="34" type="curve"/>
      <point x="469" y="0" type="line"/>
      <point x="755" y="0" type="line"/>
      <point x="755" y="36" type="line"/>
      <point x="705" y="43"/>
      <point x="689" y="68"/>
      <point x="673" y="96" type="curve"/>
      <point x="666" y="110"/>
      <point x="410" y="743"/>
      <point x="410" y="743" type="curve" smooth="yes"/>
      <point x="403" y="743"/>
      <point x="353" y="738"/>
      <point x="342" y="730" type="curve"/>
      <point x="134" y="210" type="line" smooth="yes"/>
      <point x="71" y="53"/>
      <point x="60" y="42"/>
      <point x="0" y="36" type="curve"/>
    </contour>
    <contour>
      <point x="222" y="292" type="line"/>
      <point x="351" y="621" type="line"/>
      <point x="484" y="292" type="line"/>
    </contour>
  </outline>
</glyph>
<glyph name="B" format="1">
  <advance width="649"/>
  <unicode hex="0042"/>
  <outline>
    <contour>
      <point x="29" y="0" type="line"/>
      <point x="56" y="2"/>
      <point x="115" y="4"/>
      <point x="167" y="4" type="curve" smooth="yes"/>
      <point x="196" y="4"/>
      <point x="225" y="2"/>
      <point x="252" y="0" type="curve" smooth="yes"/>
      <point x="284" y="-2" type="line" smooth="yes"/>
      <point x="309" y="-4"/>
      <point x="338" y="-6"/>
      <point x="363" y="-6" type="curve" smooth="yes"/>
      <point x="384" y="-6" type="line" smooth="yes"/>
      <point x="506" y="-6"/>
      <point x="623" y="92"/>
      <point x="623" y="213" type="curve" smooth="yes"/>
      <point x="623" y="296"/>
      <point x="567" y="357"/>
      <point x="456" y="394" type="curve"/>
      <point x="486" y="409" type="line" smooth="yes"/>
      <point x="552" y="442"/>
      <point x="597" y="484"/>
      <point x="597" y="573" type="curve" smooth="yes"/>
      <point x="597" y="628"/>
      <point x="572" y="744"/>
      <point x="389" y="744" type="curve" smooth="yes"/>
      <point x="369" y="744" type="line" smooth="yes"/>
      <point x="322" y="744"/>
      <point x="321" y="734"/>
      <point x="167" y="734" type="curve" smooth="yes"/>
      <point x="115" y="734"/>
      <point x="56" y="736"/>
      <point x="29" y="738" type="curve"/>
      <point x="29" y="701" type="line"/>
      <point x="43" y="700" type="line" smooth="yes"/>
      <point x="90" y="697"/>
      <point x="111" y="693"/>
      <point x="112" y="661" type="curve" smooth="yes"/>
      <point x="118" y="462"/>
      <point x="119" y="91"/>
      <point x="119" y="83" type="curve" smooth="yes"/>
      <point x="119" y="45"/>
      <point x="79" y="40"/>
      <point x="29" y="37" type="curve"/>
    </contour>
    <contour>
      <point x="217" y="167"/>
      <point x="217" y="244"/>
      <point x="219" y="358" type="curve"/>
      <point x="244" y="362"/>
      <point x="309" y="364"/>
      <point x="347" y="364" type="curve" smooth="yes"/>
      <point x="444" y="364"/>
      <point x="517" y="313"/>
      <point x="517" y="212" type="curve" smooth="yes"/>
      <point x="517" y="107"/>
      <point x="446" y="56"/>
      <point x="398" y="56" type="curve" smooth="yes"/>
      <point x="256" y="56"/>
      <point x="217" y="62"/>
      <point x="217" y="140" type="curve" smooth="yes"/>
    </contour>
    <contour>
      <point x="220" y="512"/>
      <point x="222" y="622"/>
      <point x="223" y="672" type="curve"/>
      <point x="235" y="683" type="line"/>
      <point x="262" y="693"/>
      <point x="343" y="695"/>
      <point x="377" y="695" type="curve" smooth="yes"/>
      <point x="392" y="695"/>
      <point x="488" y="667"/>
      <point x="488" y="550" type="curve" smooth="yes"/>
      <point x="488" y="497"/>
      <point x="465" y="433"/>
      <point x="386" y="410" type="curve"/>
      <point x="374" y="411"/>
      <point x="360" y="412"/>
      <point x="344" y="412" type="curve" smooth="yes"/>
      <point x="295" y="412"/>
      <point x="262" y="410"/>
      <point x="219" y="406" type="curve"/>
    </contour>
  </outline>
</glyph>
<glyph name="D" format="1">
  <advance width="776"/>
  <unicode hex="0044"/>
  <outline>
    <contour>
      <point x="29" y="0" type="line"/>
      <point x="56" y="2"/>
      <point x="115" y="4"/>
      <point x="168" y="4" type="curve" smooth="yes"/>
      <point x="237" y="4"/>
      <point x="323" y="-6"/>
      <point x="377" y="-6" type="curve" smooth="yes"/>
      <point x="398" y="-6" type="line" smooth="yes"/>
      <point x="539" y="-6"/>
      <point x="735" y="96"/>
      <point x="735" y="409" type="curve" smooth="yes"/>
      <point x="735" y="642"/>
      <point x="639" y="744"/>
      <point x="422" y="744" type="curve" smooth="yes"/>
      <point x="401" y="744" type="line" smooth="yes"/>
      <point x="334" y="744"/>
      <point x="332" y="734"/>
      <point x="168" y="734" type="curve" smooth="yes"/>
      <point x="115" y="734"/>
      <point x="56" y="736"/>
      <point x="29" y="738" type="curve"/>
      <point x="29" y="701" type="line"/>
      <point x="43" y="700" type="line" smooth="yes"/>
      <point x="90" y="697"/>
      <point x="111" y="693"/>
      <point x="112" y="661" type="curve" smooth="yes"/>
      <point x="118" y="462"/>
      <point x="119" y="91"/>
      <point x="119" y="83" type="curve" smooth="yes"/>
      <point x="119" y="45"/>
      <point x="79" y="40"/>
      <point x="29" y="37" type="curve"/>
    </contour>
    <contour>
      <point x="216" y="193"/>
      <point x="220" y="566"/>
      <point x="224" y="672" type="curve"/>
      <point x="235" y="683" type="line"/>
      <point x="256" y="690"/>
      <point x="300" y="694"/>
      <point x="364" y="694" type="curve" smooth="yes"/>
      <point x="549" y="694"/>
      <point x="632" y="595"/>
      <point x="632" y="377" type="curve" smooth="yes"/>
      <point x="632" y="282"/>
      <point x="615" y="213"/>
      <point x="592" y="172" type="curve" smooth="yes"/>
      <point x="552" y="100"/>
      <point x="520" y="56"/>
      <point x="414" y="56" type="curve" smooth="yes"/>
      <point x="255" y="56"/>
      <point x="216" y="73"/>
      <point x="216" y="140" type="curve" smooth="yes"/>
    </contour>
  </outline>
</glyph>
<glyph name="E" format="1">
  <advance width="640"/>
  <unicode hex="0045"/>
  <outline>
    <contour>
      <point x="29" y="0" type="line"/>
      <point x="589" y="0" type="line"/>
      <point x="589" y="10"/>
      <point x="594" y="191"/>
      <point x="598" y="232" type="curve"/>
      <point x="561" y="232" type="line"/>
      <point x="547" y="178" type="line" smooth="yes"/>
      <point x="537" y="140"/>
      <point x="521" y="78"/>
      <point x="496" y="56" type="curve"/>
      <point x="485" y="47"/>
      <point x="418" y="44"/>
      <point x="391" y="44" type="curve" smooth="yes"/>
      <point x="271" y="44"/>
      <point x="224" y="50"/>
      <point x="224" y="83" type="curve" smooth="yes"/>
      <point x="224" y="92"/>
      <point x="224" y="222"/>
      <point x="226" y="370" type="curve"/>
      <point x="255" y="367"/>
      <point x="405" y="374"/>
      <point x="446" y="344" type="curve"/>
      <point x="463" y="344" type="line"/>
      <point x="473" y="418" type="line"/>
      <point x="452" y="417"/>
      <point x="286" y="413"/>
      <point x="227" y="413" type="curve"/>
      <point x="228" y="499"/>
      <point x="229" y="593"/>
      <point x="231" y="651" type="curve" smooth="yes"/>
      <point x="232" y="680"/>
      <point x="256" y="685"/>
      <point x="313" y="685" type="curve" smooth="yes"/>
      <point x="357" y="685"/>
      <point x="415" y="685"/>
      <point x="439" y="682" type="curve" smooth="yes"/>
      <point x="454" y="680"/>
      <point x="463" y="679"/>
      <point x="476" y="676" type="curve"/>
      <point x="486" y="669"/>
      <point x="489" y="660"/>
      <point x="492" y="650" type="curve"/>
      <point x="493" y="648"/>
      <point x="509" y="569"/>
      <point x="514" y="542" type="curve"/>
      <point x="548" y="542" type="line"/>
      <point x="549" y="556"/>
      <point x="572" y="716"/>
      <point x="575" y="727" type="curve"/>
      <point x="563" y="738" type="line"/>
      <point x="563" y="738"/>
      <point x="305" y="737"/>
      <point x="300" y="737" type="curve"/>
      <point x="270" y="735"/>
      <point x="220" y="734"/>
      <point x="175" y="734" type="curve" smooth="yes"/>
      <point x="123" y="734"/>
      <point x="64" y="736"/>
      <point x="37" y="738" type="curve"/>
      <point x="37" y="701" type="line"/>
      <point x="51" y="700" type="line" smooth="yes"/>
      <point x="97" y="697"/>
      <point x="118" y="693"/>
      <point x="119" y="661" type="curve" smooth="yes"/>
      <point x="122" y="588"/>
      <point x="123" y="499"/>
      <point x="123" y="413" type="curve" smooth="yes"/>
      <point x="123" y="260"/>
      <point x="120" y="115"/>
      <point x="119" y="83" type="curve" smooth="yes"/>
      <point x="119" y="45"/>
      <point x="79" y="40"/>
      <point x="29" y="37" type="curve"/>
    </contour>
  </outline>
</glyph>
<glyph name="F" format="1">
  <advance width="564"/>
  <unicode hex="0046"/>
  <outline>
    <contour>
      <point x="29" y="0" type="line"/>
      <point x="351" y="0" type="line"/>
      <point x="351" y="34" type="line"/>
      <point x="313" y="37" type="line" smooth="yes"/>
      <point x="261" y="41"/>
      <point x="223" y="46"/>
      <point x="223" y="83" type="curve" smooth="yes"/>
      <point x="223" y="92"/>
      <point x="224" y="222"/>
      <point x="226" y="370" type="curve"/>
      <point x="254" y="367"/>
      <point x="405" y="374"/>
      <point x="445" y="344" type="curve"/>
      <point x="463" y="344" type="line"/>
      <point x="473" y="418" type="line"/>
      <point x="452" y="417"/>
      <point x="286" y="413"/>
      <point x="226" y="413" type="curve"/>
      <point x="227" y="499"/>
      <point x="229" y="593"/>
      <point x="230" y="651" type="curve" smooth="yes"/>
      <point x="231" y="680"/>
      <point x="256" y="685"/>
      <point x="313" y="685" type="curve" smooth="yes"/>
      <point x="357" y="685"/>
      <point x="390" y="685"/>
      <point x="414" y="682" type="curve" smooth="yes"/>
      <point x="428" y="680"/>
      <point x="438" y="679"/>
      <point x="451" y="676" type="curve"/>
      <point x="461" y="669"/>
      <point x="464" y="660"/>
      <point x="467" y="650" type="curve"/>
      <point x="468" y="648"/>
      <point x="484" y="569"/>
      <point x="489" y="542" type="curve"/>
      <point x="523" y="542" type="line"/>
      <point x="524" y="556"/>
      <point x="547" y="716"/>
      <point x="550" y="727" type="curve"/>
      <point x="538" y="738" type="line"/>
      <point x="538" y="738"/>
      <point x="305" y="737"/>
      <point x="300" y="737" type="curve"/>
      <point x="269" y="735"/>
      <point x="220" y="734"/>
      <point x="175" y="734" type="curve" smooth="yes"/>
      <point x="122" y="734"/>
      <point x="64" y="736"/>
      <point x="36" y="738" type="curve"/>
      <point x="36" y="701" type="line"/>
      <point x="51" y="700" type="line" smooth="yes"/>
      <point x="97" y="697"/>
      <point x="118" y="693"/>
      <point x="119" y="661" type="curve" smooth="yes"/>
      <point x="121" y="593"/>
      <point x="122" y="507"/>
      <point x="122" y="421" type="curve" smooth="yes"/>
      <point x="122" y="253"/>
      <point x="119" y="89"/>
      <point x="119" y="83" type="curve" smooth="yes"/>
      <point x="119" y="45"/>
      <point x="78" y="40"/>
      <point x="29" y="37" type="curve"/>
    </contour>
  </outline>
</glyph>
<glyph name="J" format="1">
  <advance width="312"/>
  <unicode hex="004A"/>
  <outline>
    <contour>
      <point x="0" y="-162" type="line"/>
      <point x="20" y="-194" type="line"/>
      <point x="64" y="-170" type="line" smooth="yes"/>
      <point x="120" y="-137"/>
      <point x="179" y="-79"/>
      <point x="193" y="8" type="curve" smooth="yes"/>
      <point x="199" y="39"/>
      <point x="207" y="480"/>
      <point x="209" y="661" type="curve" smooth="yes"/>
      <point x="209" y="693"/>
      <point x="231" y="697"/>
      <point x="277" y="700" type="curve" smooth="yes"/>
      <point x="292" y="701" type="line"/>
      <point x="292" y="738" type="line"/>
      <point x="15" y="738" type="line"/>
      <point x="15" y="701" type="line"/>
      <point x="29" y="700" type="line" smooth="yes"/>
      <point x="76" y="697"/>
      <point x="95" y="693"/>
      <point x="97" y="661" type="curve" smooth="yes"/>
      <point x="99" y="640"/>
      <point x="103" y="547"/>
      <point x="103" y="92" type="curve" smooth="yes"/>
      <point x="103" y="-33"/>
      <point x="93" y="-82"/>
      <point x="27" y="-141" type="curve"/>
    </contour>
  </outline>
</glyph>
<glyph name="K" format="1">
  <advance width="670"/>
  <unicode hex="004B"/>
  <outline>
    <contour>
      <point x="32" y="701" type="line"/>
      <point x="47" y="700" type="line" smooth="yes"/>
      <point x="93" y="697"/>
      <point x="114" y="693"/>
      <point x="115" y="661" type="curve" smooth="yes"/>
      <point x="120" y="529"/>
      <point x="128" y="88"/>
      <point x="128" y="83" type="curve" smooth="yes"/>
      <point x="128" y="45"/>
      <point x="88" y="40"/>
      <point x="38" y="37" type="curve"/>
      <point x="38" y="0" type="line"/>
      <point x="315" y="0" type="line"/>
      <point x="315" y="37" type="line"/>
      <point x="263" y="41"/>
      <point x="225" y="46"/>
      <point x="225" y="83" type="curve" smooth="yes"/>
      <point x="225" y="112"/>
      <point x="224" y="255"/>
      <point x="224" y="369" type="curve"/>
      <point x="241" y="369" type="line" smooth="yes"/>
      <point x="247" y="369"/>
      <point x="253" y="366"/>
      <point x="256" y="362" type="curve" smooth="yes"/>
      <point x="518" y="-4" type="line"/>
      <point x="573" y="0"/>
      <point x="615" y="0"/>
      <point x="670" y="0" type="curve"/>
      <point x="670" y="36" type="line"/>
      <point x="608" y="60" type="line"/>
      <point x="520" y="156"/>
      <point x="332" y="422"/>
      <point x="332" y="422" type="curve"/>
      <point x="396" y="496" type="line" smooth="yes"/>
      <point x="471" y="581"/>
      <point x="521" y="634"/>
      <point x="556" y="665" type="curve" smooth="yes"/>
      <point x="589" y="693"/>
      <point x="593" y="697"/>
      <point x="651" y="701" type="curve"/>
      <point x="651" y="738" type="line"/>
      <point x="419" y="738" type="line"/>
      <point x="419" y="701" type="line"/>
      <point x="469" y="698"/>
      <point x="478" y="694"/>
      <point x="478" y="684" type="curve" smooth="yes"/>
      <point x="478" y="674"/>
      <point x="292" y="413"/>
      <point x="224" y="411" type="curve"/>
      <point x="224" y="437"/>
      <point x="227" y="664"/>
      <point x="230" y="727" type="curve"/>
      <point x="218" y="738" type="line"/>
      <point x="32" y="738" type="line"/>
    </contour>
  </outline>
</glyph>
<glyph name="L" format="1">
  <advance width="558"/>
  <unicode hex="004C"/>
  <outline>
    <contour>
      <point x="29" y="0" type="line"/>
      <point x="549" y="0" type="line"/>
      <point x="549" y="10"/>
      <point x="554" y="191"/>
      <point x="558" y="232" type="curve"/>
      <point x="521" y="232" type="line"/>
      <point x="507" y="178" type="line" smooth="yes"/>
      <point x="497" y="140"/>
      <point x="481" y="78"/>
      <point x="456" y="56" type="curve" smooth="yes"/>
      <point x="443" y="45"/>
      <point x="350" y="44"/>
      <point x="335" y="44" type="curve" smooth="yes"/>
      <point x="314" y="44" type="line" smooth="yes"/>
      <point x="242" y="44"/>
      <point x="216" y="60"/>
      <point x="216" y="83" type="curve" smooth="yes"/>
      <point x="216" y="92"/>
      <point x="218" y="518"/>
      <point x="223" y="661" type="curve" smooth="yes"/>
      <point x="224" y="693"/>
      <point x="258" y="697"/>
      <point x="305" y="700" type="curve" smooth="yes"/>
      <point x="319" y="701" type="line"/>
      <point x="319" y="738" type="line"/>
      <point x="29" y="738" type="line"/>
      <point x="29" y="701" type="line"/>
      <point x="43" y="700" type="line" smooth="yes"/>
      <point x="90" y="697"/>
      <point x="110" y="693"/>
      <point x="112" y="661" type="curve" smooth="yes"/>
      <point x="118" y="468"/>
      <point x="119" y="107"/>
      <point x="119" y="83" type="curve" smooth="yes"/>
      <point x="119" y="46"/>
      <point x="82" y="41"/>
      <point x="29" y="37" type="curve"/>
    </contour>
  </outline>
</glyph>
<glyph name="M" format="1">
  <advance width="953"/>
  <unicode hex="004D"/>
  <outline>
    <contour>
      <point x="2" y="701" type="line"/>
      <point x="60" y="698"/>
      <point x="110" y="695"/>
      <point x="110" y="666" type="curve"/>
      <point x="110" y="666"/>
      <point x="108" y="479"/>
      <point x="86" y="132" type="curve" smooth="yes"/>
      <point x="81" y="71"/>
      <point x="66" y="43"/>
      <point x="3" y="36" type="curve"/>
      <point x="3" y="0" type="line"/>
      <point x="239" y="0" type="line"/>
      <point x="239" y="39" type="line"/>
      <point x="196" y="43"/>
      <point x="150" y="50"/>
      <point x="150" y="83" type="curve" smooth="yes"/>
      <point x="150" y="290"/>
      <point x="156" y="446"/>
      <point x="165" y="601" type="curve"/>
      <point x="421" y="0" type="line"/>
      <point x="460" y="0" type="line"/>
      <point x="518" y="151"/>
      <point x="604" y="362"/>
      <point x="711" y="597" type="curve"/>
      <point x="725" y="366"/>
      <point x="731" y="236"/>
      <point x="733" y="83" type="curve" smooth="yes"/>
      <point x="733" y="45"/>
      <point x="693" y="40"/>
      <point x="643" y="37" type="curve"/>
      <point x="643" y="0" type="line"/>
      <point x="920" y="0" type="line"/>
      <point x="920" y="37" type="line"/>
      <point x="862" y="41"/>
      <point x="843" y="44"/>
      <point x="839" y="88" type="curve"/>
      <point x="838" y="116" type="line" smooth="yes"/>
      <point x="826" y="461"/>
      <point x="819" y="659"/>
      <point x="819" y="665" type="curve" smooth="yes"/>
      <point x="819" y="695"/>
      <point x="868" y="698"/>
      <point x="927" y="701" type="curve"/>
      <point x="927" y="738" type="line"/>
      <point x="699" y="738" type="line"/>
      <point x="690" y="711" type="line" smooth="yes"/>
      <point x="623" y="525"/>
      <point x="546" y="335"/>
      <point x="463" y="155" type="curve"/>
      <point x="239" y="711" type="line"/>
      <point x="230" y="738" type="line"/>
      <point x="2" y="738" type="line"/>
    </contour>
  </outline>
</glyph>
<glyph name="P" format="1">
  <advance width="637"/>
  <unicode hex="0050"/>
  <outline>
    <contour>
      <point x="29" y="0" type="line"/>
      <point x="371" y="0" type="line"/>
      <point x="371" y="34" type="line"/>
      <point x="333" y="37" type="line" smooth="yes"/>
      <point x="280" y="41"/>
      <point x="223" y="46"/>
      <point x="223" y="83" type="curve" smooth="yes"/>
      <point x="223" y="91"/>
      <point x="224" y="204"/>
      <point x="225" y="338" type="curve"/>
      <point x="250" y="327"/>
      <point x="295" y="322"/>
      <point x="332" y="322" type="curve" smooth="yes"/>
      <point x="523" y="322"/>
      <point x="602" y="462"/>
      <point x="602" y="541" type="curve" smooth="yes"/>
      <point x="602" y="639"/>
      <point x="561" y="744"/>
      <point x="396" y="744" type="curve" smooth="yes"/>
      <point x="376" y="744" type="line" smooth="yes"/>
      <point x="329" y="744"/>
      <point x="328" y="734"/>
      <point x="175" y="734" type="curve" smooth="yes"/>
      <point x="122" y="734"/>
      <point x="64" y="736"/>
      <point x="36" y="738" type="curve"/>
      <point x="36" y="701" type="line"/>
      <point x="50" y="700" type="line" smooth="yes"/>
      <point x="97" y="697"/>
      <point x="118" y="693"/>
      <point x="119" y="661" type="curve" smooth="yes"/>
      <point x="121" y="593"/>
      <point x="122" y="507"/>
      <point x="122" y="421" type="curve" smooth="yes"/>
      <point x="122" y="218"/>
      <point x="120" y="117"/>
      <point x="119" y="83" type="curve" smooth="yes"/>
      <point x="118" y="45"/>
      <point x="78" y="40"/>
      <point x="29" y="37" type="curve"/>
    </contour>
    <contour>
      <point x="227" y="488"/>
      <point x="229" y="614"/>
      <point x="231" y="672" type="curve"/>
      <point x="242" y="683" type="line"/>
      <point x="268" y="692"/>
      <point x="342" y="695"/>
      <point x="384" y="695" type="curve" smooth="yes"/>
      <point x="390" y="695"/>
      <point x="402" y="691"/>
      <point x="413" y="686" type="curve" smooth="yes"/>
      <point x="489" y="649"/>
      <point x="490" y="578"/>
      <point x="490" y="524" type="curve" smooth="yes"/>
      <point x="490" y="472"/>
      <point x="486" y="372"/>
      <point x="341" y="372" type="curve" smooth="yes"/>
      <point x="282" y="372"/>
      <point x="242" y="388"/>
      <point x="226" y="402" type="curve"/>
    </contour>
  </outline>
</glyph>
<glyph name="Q" format="1">
  <advance width="745"/>
  <unicode hex="0051"/>
  <outline>
    <contour>
      <point x="42" y="149"/>
      <point x="136" y="-14"/>
      <point x="359" y="-14" type="curve" smooth="yes"/>
      <point x="378" y="-14"/>
      <point x="407" y="-11"/>
      <point x="439" y="-2" type="curve"/>
      <point x="595" y="-195" type="line"/>
      <point x="609" y="-191" type="line"/>
      <point x="617" y="-172"/>
      <point x="642" y="-130"/>
      <point x="654" y="-114" type="curve"/>
      <point x="622" y="-91"/>
      <point x="578" y="-50"/>
      <point x="511" y="23" type="curve"/>
      <point x="634" y="80"/>
      <point x="704" y="191"/>
      <point x="704" y="411" type="curve" smooth="yes"/>
      <point x="704" y="621"/>
      <point x="609" y="751"/>
      <point x="395" y="751" type="curve" smooth="yes"/>
      <point x="338" y="751"/>
      <point x="181" y="722"/>
      <point x="106" y="610" type="curve" smooth="yes"/>
      <point x="69" y="554"/>
      <point x="42" y="472"/>
      <point x="42" y="358" type="curve" smooth="yes"/>
    </contour>
    <contour>
      <point x="144" y="610"/>
      <point x="237" y="689"/>
      <point x="359" y="689" type="curve" smooth="yes"/>
      <point x="376" y="689"/>
      <point x="404" y="689"/>
      <point x="413" y="687" type="curve"/>
      <point x="507" y="673"/>
      <point x="601" y="596"/>
      <point x="601" y="351" type="curve" smooth="yes"/>
      <point x="601" y="128"/>
      <point x="522" y="52"/>
      <point x="405" y="52" type="curve" smooth="yes"/>
      <point x="357" y="52"/>
      <point x="327" y="54"/>
      <point x="285" y="75" type="curve" smooth="yes"/>
      <point x="144" y="147"/>
      <point x="144" y="345"/>
      <point x="144" y="379" type="curve" smooth="yes"/>
    </contour>
  </outline>
</glyph>
<glyph name="R" format="1">
  <advance width="669"/>
  <unicode hex="0052"/>
  <outline>
    <contour>
      <point x="32" y="0" type="line"/>
      <point x="309" y="0" type="line"/>
      <point x="309" y="37" type="line"/>
      <point x="257" y="41"/>
      <point x="219" y="46"/>
      <point x="219" y="83" type="curve" smooth="yes"/>
      <point x="219" y="88"/>
      <point x="220" y="229"/>
      <point x="222" y="370" type="curve"/>
      <point x="248" y="361"/>
      <point x="288" y="357"/>
      <point x="321" y="357" type="curve" smooth="yes"/>
      <point x="349" y="357" type="line"/>
      <point x="524" y="-4" type="line"/>
      <point x="579" y="0"/>
      <point x="614" y="0"/>
      <point x="669" y="0" type="curve"/>
      <point x="669" y="36" type="line"/>
      <point x="614" y="60" type="line"/>
      <point x="541" y="176"/>
      <point x="436" y="382"/>
      <point x="436" y="382" type="curve"/>
      <point x="513" y="433"/>
      <point x="558" y="472"/>
      <point x="558" y="566" type="curve" smooth="yes"/>
      <point x="558" y="678"/>
      <point x="477" y="744"/>
      <point x="392" y="744" type="curve" smooth="yes"/>
      <point x="372" y="744" type="line" smooth="yes"/>
      <point x="331" y="744"/>
      <point x="311" y="734"/>
      <point x="171" y="734" type="curve" smooth="yes"/>
      <point x="115" y="734"/>
      <point x="60" y="736"/>
      <point x="32" y="738" type="curve"/>
      <point x="32" y="701" type="line"/>
      <point x="46" y="700" type="line" smooth="yes"/>
      <point x="93" y="697"/>
      <point x="114" y="693"/>
      <point x="115" y="661" type="curve" smooth="yes"/>
      <point x="121" y="462"/>
      <point x="122" y="91"/>
      <point x="122" y="83" type="curve" smooth="yes"/>
      <point x="122" y="45"/>
      <point x="82" y="40"/>
      <point x="32" y="37" type="curve"/>
    </contour>
    <contour>
      <point x="224" y="523"/>
      <point x="225" y="627"/>
      <point x="227" y="673" type="curve"/>
      <point x="237" y="684" type="line"/>
      <point x="260" y="694"/>
      <point x="329" y="697"/>
      <point x="359" y="697" type="curve" smooth="yes"/>
      <point x="372" y="697"/>
      <point x="454" y="669"/>
      <point x="454" y="552" type="curve" smooth="yes"/>
      <point x="454" y="495"/>
      <point x="429" y="407"/>
      <point x="328" y="407" type="curve" smooth="yes"/>
      <point x="282" y="407"/>
      <point x="241" y="413"/>
      <point x="223" y="424" type="curve"/>
    </contour>
  </outline>
</glyph>
<glyph name="V" format="1">
  <advance width="750"/>
  <unicode hex="0056"/>
  <outline>
    <contour>
      <point x="0" y="701" type="line"/>
      <point x="49" y="698"/>
      <point x="63" y="675"/>
      <point x="78" y="638" type="curve" smooth="yes"/>
      <point x="337" y="0" type="line"/>
      <point x="401" y="0" type="line"/>
      <point x="636" y="566" type="line" smooth="yes"/>
      <point x="684" y="679"/>
      <point x="695" y="696"/>
      <point x="750" y="702" type="curve"/>
      <point x="750" y="738" type="line"/>
      <point x="514" y="738" type="line"/>
      <point x="514" y="699" type="line"/>
      <point x="586" y="692"/>
      <point x="597" y="682"/>
      <point x="597" y="653" type="curve" smooth="yes"/>
      <point x="597" y="629"/>
      <point x="458" y="270"/>
      <point x="391" y="121" type="curve"/>
      <point x="354" y="198"/>
      <point x="202" y="640"/>
      <point x="202" y="662" type="curve" smooth="yes"/>
      <point x="202" y="666" type="line" smooth="yes"/>
      <point x="202" y="687"/>
      <point x="223" y="697"/>
      <point x="276" y="701" type="curve"/>
      <point x="276" y="738" type="line"/>
      <point x="0" y="738" type="line"/>
    </contour>
  </outline>
</glyph>
<glyph name="X" format="1">
  <advance width="646"/>
  <unicode hex="0058"/>
  <outline>
    <contour>
      <point x="0" y="0" type="line"/>
      <point x="224" y="0" type="line"/>
      <point x="224" y="39" type="line"/>
      <point x="177" y="44"/>
      <point x="142" y="50"/>
      <point x="142" y="69" type="curve" smooth="yes"/>
      <point x="142" y="85"/>
      <point x="239" y="225"/>
      <point x="309" y="319" type="curve"/>
      <point x="453" y="92" type="line"/>
      <point x="459" y="81"/>
      <point x="464" y="73"/>
      <point x="464" y="66" type="curve" smooth="yes"/>
      <point x="464" y="45"/>
      <point x="416" y="39"/>
      <point x="389" y="37" type="curve"/>
      <point x="389" y="0" type="line"/>
      <point x="646" y="0" type="line"/>
      <point x="646" y="37" type="line"/>
      <point x="599" y="40"/>
      <point x="593" y="45"/>
      <point x="511" y="182" type="curve" smooth="yes"/>
      <point x="379" y="401" type="line"/>
      <point x="549" y="630" type="line" smooth="yes"/>
      <point x="571" y="658"/>
      <point x="605" y="697"/>
      <point x="644" y="702" type="curve"/>
      <point x="644" y="738" type="line"/>
      <point x="420" y="738" type="line"/>
      <point x="420" y="699" type="line"/>
      <point x="486" y="693"/>
      <point x="496" y="689"/>
      <point x="496" y="670" type="curve" smooth="yes"/>
      <point x="496" y="651"/>
      <point x="428" y="546"/>
      <point x="353" y="444" type="curve"/>
      <point x="253" y="607"/>
      <point x="226" y="660"/>
      <point x="226" y="675" type="curve" smooth="yes"/>
      <point x="226" y="691"/>
      <point x="243" y="697"/>
      <point x="294" y="701" type="curve"/>
      <point x="294" y="738" type="line"/>
      <point x="17" y="738" type="line"/>
      <point x="17" y="701" type="line"/>
      <point x="49" y="699"/>
      <point x="66" y="688"/>
      <point x="78" y="671" type="curve" smooth="yes"/>
      <point x="283" y="362" type="line"/>
      <point x="239" y="300"/>
      <point x="97" y="105"/>
      <point x="72" y="82" type="curve" smooth="yes"/>
      <point x="51" y="62"/>
      <point x="20" y="38"/>
      <point x="0" y="36" type="curve"/>
    </contour>
  </outline>
</glyph>
<glyph name="Y" format="1">
  <advance width="649"/>
  <unicode hex="0059"/>
  <outline>
    <contour>
      <point x="0" y="701" type="line"/>
      <point x="36" y="698"/>
      <point x="64" y="654"/>
      <point x="64" y="654" type="curve"/>
      <point x="145" y="537"/>
      <point x="246" y="389"/>
      <point x="263" y="358" type="curve"/>
      <point x="263" y="358"/>
      <point x="267" y="248"/>
      <point x="267" y="83" type="curve" smooth="yes"/>
      <point x="267" y="45"/>
      <point x="212" y="39"/>
      <point x="162" y="35" type="curve"/>
      <point x="162" y="0" type="line"/>
      <point x="472" y="0" type="line"/>
      <point x="472" y="35" type="line"/>
      <point x="432" y="38"/>
      <point x="385" y="43"/>
      <point x="372" y="67" type="curve" smooth="yes"/>
      <point x="368" y="74"/>
      <point x="367" y="117"/>
      <point x="367" y="149" type="curve" smooth="yes"/>
      <point x="367" y="258"/>
      <point x="368" y="323"/>
      <point x="370" y="367" type="curve"/>
      <point x="594" y="677" type="line"/>
      <point x="602" y="687"/>
      <point x="615" y="698"/>
      <point x="649" y="702" type="curve"/>
      <point x="649" y="738" type="line"/>
      <point x="441" y="738" type="line"/>
      <point x="441" y="699" type="line"/>
      <point x="486" y="696"/>
      <point x="511" y="693"/>
      <point x="511" y="673" type="curve" smooth="yes"/>
      <point x="511" y="652"/>
      <point x="381" y="461"/>
      <point x="344" y="408" type="curve"/>
      <point x="293" y="488"/>
      <point x="193" y="646"/>
      <point x="193" y="668" type="curve" smooth="yes"/>
      <point x="193" y="688"/>
      <point x="210" y="696"/>
      <point x="276" y="701" type="curve"/>
      <point x="276" y="738" type="line"/>
      <point x="0" y="738" type="line"/>
    </contour>
  </outline>
</glyph>
<glyph name="Z" format="1">
  <advance width="661"/>
  <unicode hex="005A"/>
  <outline>
    <contour>
      <point x="21" y="11" type="line"/>
      <point x="33" y="0" type="line"/>
      <point x="604" y="0" type="line"/>
      <point x="604" y="9"/>
      <point x="608" y="155"/>
      <point x="612" y="215" type="curve"/>
      <point x="572" y="215" type="line"/>
      <point x="562" y="178" type="line" smooth="yes"/>
      <point x="552" y="140"/>
      <point x="536" y="84"/>
      <point x="511" y="63" type="curve" smooth="yes"/>
      <point x="501" y="54"/>
      <point x="465" y="50"/>
      <point x="283" y="50" type="curve" smooth="yes"/>
      <point x="226" y="50"/>
      <point x="192" y="56"/>
      <point x="169" y="60" type="curve"/>
      <point x="200" y="124"/>
      <point x="464" y="500"/>
      <point x="625" y="727" type="curve"/>
      <point x="613" y="738" type="line"/>
      <point x="82" y="738" type="line"/>
      <point x="70" y="727" type="line"/>
      <point x="70" y="717"/>
      <point x="73" y="543"/>
      <point x="74" y="528" type="curve"/>
      <point x="108" y="528" type="line"/>
      <point x="116" y="557"/>
      <point x="141" y="636"/>
      <point x="142" y="638" type="curve"/>
      <point x="145" y="648"/>
      <point x="163" y="682"/>
      <point x="186" y="683" type="curve" smooth="yes"/>
      <point x="306" y="686"/>
      <point x="329" y="687"/>
      <point x="362" y="687" type="curve" smooth="yes"/>
      <point x="406" y="687"/>
      <point x="437" y="685"/>
      <point x="467" y="682" type="curve"/>
    </contour>
  </outline>
</glyph>
<glyph name="bracketleft" format="1">
  <advance width="295"/>
  <unicode hex="005B"/>
  <outline>
    <contour>
      <point x="100" y="-193" type="line"/>
      <point x="111" y="-204" type="line"/>
      <point x="115" y="-204"/>
      <point x="134" y="-202"/>
      <point x="179" y="-202" type="curve" smooth="yes"/>
      <point x="207" y="-202"/>
      <point x="245" y="-203"/>
      <point x="295" y="-205" type="curve"/>
      <point x="295" y="-171" type="line"/>
      <point x="194" y="-169"/>
      <point x="191" y="-159"/>
      <point x="190" y="-113" type="curve"/>
      <point x="190" y="705" type="line" smooth="yes"/>
      <point x="191" y="751"/>
      <point x="194" y="762"/>
      <point x="295" y="764" type="curve"/>
      <point x="295" y="797" type="line"/>
      <point x="245" y="795"/>
      <point x="207" y="795"/>
      <point x="179" y="795" type="curve" smooth="yes"/>
      <point x="134" y="795"/>
      <point x="115" y="796"/>
      <point x="111" y="797" type="curve"/>
      <point x="100" y="786" type="line"/>
    </contour>
  </outline>
</glyph>
<glyph name="backslash" format="1">
  <advance width="480"/>
  <unicode hex="005C"/>
  <outline>
    <contour>
      <point x="-20" y="797" type="line"/>
      <point x="437" y="-140" type="line"/>
      <point x="500" y="-140" type="line"/>
      <point x="41" y="797" type="line"/>
    </contour>
  </outline>
</glyph>
<glyph name="bracketright" format="1">
  <advance width="295"/>
  <unicode hex="005D"/>
  <outline>
    <contour>
      <point x="0" y="-205" type="line"/>
      <point x="50" y="-203"/>
      <point x="88" y="-202"/>
      <point x="116" y="-202" type="curve" smooth="yes"/>
      <point x="161" y="-202"/>
      <point x="180" y="-204"/>
      <point x="184" y="-204" type="curve"/>
      <point x="195" y="-193" type="line"/>
      <point x="195" y="786" type="line"/>
      <point x="184" y="797" type="line"/>
      <point x="180" y="796"/>
      <point x="161" y="795"/>
      <point x="116" y="795" type="curve" smooth="yes"/>
      <point x="88" y="795"/>
      <point x="50" y="795"/>
      <point x="0" y="797" type="curve"/>
      <point x="0" y="764" type="line"/>
      <point x="101" y="762"/>
      <point x="104" y="751"/>
      <point x="105" y="705" type="curve" smooth="yes"/>
      <point x="105" y="-113" type="line" smooth="yes"/>
      <point x="104" y="-159"/>
      <point x="101" y="-169"/>
      <point x="0" y="-171" type="curve"/>
    </contour>
  </outline>
</glyph>
<glyph name="asciicircum" format="1">
  <advance width="480"/>
  <unicode hex="005E"/>
  <outline>
    <contour>
      <point x="-3" y="273" type="line"/>
      <point x="8" y="261" type="line"/>
      <point x="69" y="273" type="line"/>
      <point x="240" y="657" type="line"/>
      <point x="411" y="273" type="line"/>
      <point x="472" y="261" type="line"/>
      <point x="483" y="273" type="line"/>
      <point x="272" y="747" type="line"/>
      <point x="202" y="734" type="line"/>
    </contour>
  </outline>
</glyph>
<glyph name="grave" format="1">
  <advance width="500"/>
  <unicode hex="0060"/>
  <outline>
    <contour>
      <point x="182" y="680"/>
      <point x="282" y="596"/>
      <point x="338" y="559" type="curve"/>
      <point x="356" y="580" type="line"/>
      <point x="302" y="636"/>
      <point x="234" y="720"/>
      <point x="202" y="760" type="curve"/>
      <point x="174" y="760"/>
      <point x="146" y="739"/>
      <point x="144" y="715" type="curve"/>
    </contour>
  </outline>
</glyph>
<glyph name="b" format="1">
  <advance width="535"/>
  <unicode hex="0062"/>
  <outline>
    <contour>
      <point x="12" y="740" type="line"/>
      <point x="85" y="740"/>
      <point x="77" y="740"/>
      <point x="82" y="650" type="curve" smooth="yes"/>
      <point x="87" y="560"/>
      <point x="84" y="379"/>
      <point x="86" y="47" type="curve"/>
      <point x="114" y="8"/>
      <point x="208" y="-15"/>
      <point x="253" y="-15" type="curve" smooth="yes"/>
      <point x="288" y="-15"/>
      <point x="323" y="-12"/>
      <point x="350" y="0" type="curve" smooth="yes"/>
      <point x="404" y="24"/>
      <point x="460" y="86"/>
      <point x="466" y="94" type="curve"/>
      <point x="499" y="144"/>
      <point x="509" y="207"/>
      <point x="509" y="294" type="curve" smooth="yes"/>
      <point x="509" y="427"/>
      <point x="483" y="527"/>
      <point x="327" y="527" type="curve" smooth="yes"/>
      <point x="307" y="527"/>
      <point x="281" y="521"/>
      <point x="173" y="462" type="curve"/>
      <point x="177" y="739" type="line"/>
      <point x="177" y="782" type="line" smooth="yes"/>
      <point x="177" y="793"/>
      <point x="168" y="797"/>
      <point x="160" y="797" type="curve" smooth="yes"/>
      <point x="149" y="797"/>
      <point x="108" y="782"/>
      <point x="10" y="773" type="curve"/>
    </contour>
    <contour>
      <point x="171" y="247"/>
      <point x="171" y="293"/>
      <point x="172" y="353" type="curve" smooth="yes"/>
      <point x="172" y="419" type="line"/>
      <point x="244" y="457"/>
      <point x="261" y="458"/>
      <point x="283" y="458" type="curve" smooth="yes"/>
      <point x="337" y="458"/>
      <point x="420" y="431"/>
      <point x="420" y="286" type="curve" smooth="yes"/>
      <point x="420" y="279"/>
      <point x="416" y="164"/>
      <point x="403" y="122" type="curve" smooth="yes"/>
      <point x="384" y="60"/>
      <point x="354" y="54"/>
      <point x="308" y="54" type="curve" smooth="yes"/>
      <point x="256" y="54"/>
      <point x="196" y="79"/>
      <point x="181" y="98" type="curve"/>
      <point x="173" y="106"/>
      <point x="171" y="126"/>
      <point x="171" y="213" type="curve" smooth="yes"/>
    </contour>
  </outline>
</glyph>
<glyph name="d" format="1">
  <advance width="527"/>
  <unicode hex="0064"/>
  <outline>
    <contour>
      <point x="30" y="46"/>
      <point x="176" y="-15"/>
      <point x="226" y="-15" type="curve" smooth="yes"/>
      <point x="273" y="-15"/>
      <point x="314" y="18"/>
      <point x="359" y="68" type="curve"/>
      <point x="371" y="56"/>
      <point x="385" y="-10"/>
      <point x="403" y="-10" type="curve" smooth="yes"/>
      <point x="411" y="-10"/>
      <point x="425" y="-4"/>
      <point x="450" y="7" type="curve" smooth="yes"/>
      <point x="460" y="11"/>
      <point x="495" y="19"/>
      <point x="495" y="26" type="curve" smooth="yes"/>
      <point x="495" y="37"/>
      <point x="444" y="85"/>
      <point x="444" y="129" type="curve" smooth="yes"/>
      <point x="444" y="272"/>
      <point x="451" y="410"/>
      <point x="451" y="782" type="curve" smooth="yes"/>
      <point x="451" y="794"/>
      <point x="441" y="798"/>
      <point x="434" y="798" type="curve" smooth="yes"/>
      <point x="423" y="798"/>
      <point x="382" y="783"/>
      <point x="283" y="774" type="curve"/>
      <point x="285" y="741" type="line"/>
      <point x="352" y="739"/>
      <point x="355" y="741"/>
      <point x="355" y="664" type="curve" smooth="yes"/>
      <point x="355" y="630"/>
      <point x="357" y="582"/>
      <point x="357" y="514" type="curve"/>
      <point x="314" y="524"/>
      <point x="278" y="528"/>
      <point x="251" y="528" type="curve" smooth="yes"/>
      <point x="199" y="528"/>
      <point x="171" y="514"/>
      <point x="151" y="502" type="curve" smooth="yes"/>
      <point x="117" y="482" type="line" smooth="yes"/>
      <point x="78" y="458"/>
      <point x="30" y="432"/>
      <point x="30" y="242" type="curve" smooth="yes"/>
    </contour>
    <contour>
      <point x="118" y="454"/>
      <point x="168" y="470"/>
      <point x="237" y="470" type="curve" smooth="yes"/>
      <point x="280" y="470"/>
      <point x="328" y="458"/>
      <point x="355" y="442" type="curve"/>
      <point x="355" y="377"/>
      <point x="358" y="409"/>
      <point x="358" y="116" type="curve"/>
      <point x="328" y="87"/>
      <point x="291" y="71"/>
      <point x="255" y="71" type="curve" smooth="yes"/>
      <point x="184" y="71"/>
      <point x="118" y="133"/>
      <point x="118" y="280" type="curve" smooth="yes"/>
    </contour>
  </outline>
</glyph>
<glyph name="e" format="1">
  <advance width="467"/>
  <unicode hex="0065"/>
  <outline>
    <contour>
      <point x="30" y="127"/>
      <point x="68" y="-15"/>
      <point x="236" y="-15" type="curve" smooth="yes"/>
      <point x="323" y="-15"/>
      <point x="379" y="51"/>
      <point x="437" y="110" type="curve"/>
      <point x="415" y="133" type="line"/>
      <point x="366" y="85"/>
      <point x="317" y="62"/>
      <point x="256" y="62" type="curve" smooth="yes"/>
      <point x="127" y="62"/>
      <point x="126" y="162"/>
      <point x="126" y="261" type="curve"/>
      <point x="331" y="261" type="line" smooth="yes"/>
      <point x="373" y="261"/>
      <point x="410" y="265"/>
      <point x="436" y="281" type="curve"/>
      <point x="435" y="350"/>
      <point x="447" y="523"/>
      <point x="243" y="523" type="curve" smooth="yes"/>
      <point x="166" y="523"/>
      <point x="71" y="442"/>
      <point x="52" y="399" type="curve" smooth="yes"/>
      <point x="44" y="380"/>
      <point x="30" y="317"/>
      <point x="30" y="246" type="curve" smooth="yes"/>
    </contour>
    <contour>
      <point x="128" y="306" type="line"/>
      <point x="128" y="411"/>
      <point x="143" y="458"/>
      <point x="239" y="458" type="curve" smooth="yes"/>
      <point x="329" y="458"/>
      <point x="343" y="370"/>
      <point x="343" y="324" type="curve"/>
      <point x="319" y="307"/>
      <point x="267" y="306"/>
      <point x="185" y="306" type="curve" smooth="yes"/>
    </contour>
  </outline>
</glyph>
<glyph name="f" format="1">
  <advance width="365"/>
  <unicode hex="0066"/>
  <outline>
    <contour>
      <point x="30" y="448" type="line"/>
      <point x="120" y="448" type="line"/>
      <point x="123" y="310"/>
      <point x="126" y="137"/>
      <point x="126" y="102" type="curve" smooth="yes"/>
      <point x="126" y="43"/>
      <point x="119" y="45"/>
      <point x="46" y="34" type="curve"/>
      <point x="46" y="0" type="line"/>
      <point x="326" y="0" type="line"/>
      <point x="326" y="31" type="line"/>
      <point x="226" y="49"/>
      <point x="215" y="40"/>
      <point x="215" y="97" type="curve" smooth="yes"/>
      <point x="215" y="167"/>
      <point x="217" y="343"/>
      <point x="219" y="448" type="curve"/>
      <point x="350" y="448" type="line"/>
      <point x="353" y="504" type="line"/>
      <point x="219" y="504" type="line"/>
      <point x="219" y="519" type="line" smooth="yes"/>
      <point x="219" y="636"/>
      <point x="270" y="761"/>
      <point x="318" y="761" type="curve" smooth="yes"/>
      <point x="342" y="761"/>
      <point x="366" y="729"/>
      <point x="381" y="647" type="curve"/>
      <point x="424" y="648" type="line"/>
      <point x="424" y="661"/>
      <point x="425" y="673"/>
      <point x="425" y="685" type="curve" smooth="yes"/>
      <point x="425" y="758"/>
      <point x="413" y="798"/>
      <point x="344" y="798" type="curve" smooth="yes"/>
      <point x="188" y="798"/>
      <point x="119" y="643"/>
      <point x="119" y="497" type="curve"/>
      <point x="30" y="482" type="line"/>
    </contour>
  </outline>
</glyph>
<glyph name="h" format="1">
  <advance width="565"/>
  <unicode hex="0068"/>
  <outline>
    <contour>
      <point x="24" y="740" type="line"/>
      <point x="94" y="740"/>
      <point x="97" y="740"/>
      <point x="97" y="544" type="curve" smooth="yes"/>
      <point x="97" y="357"/>
      <point x="96" y="263"/>
      <point x="96" y="76" type="curve" smooth="yes"/>
      <point x="96" y="50"/>
      <point x="82" y="37"/>
      <point x="37" y="34" type="curve"/>
      <point x="37" y="0" type="line"/>
      <point x="241" y="0" type="line"/>
      <point x="241" y="34" type="line"/>
      <point x="185" y="37"/>
      <point x="184" y="50"/>
      <point x="184" y="121" type="curve" smooth="yes"/>
      <point x="184" y="295"/>
      <point x="187" y="411"/>
      <point x="187" y="411" type="curve"/>
      <point x="213" y="428"/>
      <point x="280" y="451"/>
      <point x="323" y="451" type="curve" smooth="yes"/>
      <point x="391" y="451"/>
      <point x="400" y="428"/>
      <point x="400" y="310" type="curve" smooth="yes"/>
      <point x="400" y="131" type="line" smooth="yes"/>
      <point x="400" y="51"/>
      <point x="398" y="45"/>
      <point x="350" y="34" type="curve"/>
      <point x="350" y="0" type="line"/>
      <point x="540" y="0" type="line"/>
      <point x="540" y="34" type="line"/>
      <point x="492" y="40"/>
      <point x="489" y="45"/>
      <point x="489" y="109" type="curve" smooth="yes"/>
      <point x="489" y="190"/>
      <point x="492" y="261"/>
      <point x="492" y="321" type="curve" smooth="yes"/>
      <point x="492" y="451"/>
      <point x="477" y="524"/>
      <point x="379" y="524" type="curve" smooth="yes"/>
      <point x="338" y="524"/>
      <point x="264" y="502"/>
      <point x="187" y="459" type="curve"/>
      <point x="188" y="717" type="line" smooth="yes"/>
      <point x="188" y="727"/>
      <point x="189" y="773"/>
      <point x="189" y="782" type="curve" smooth="yes"/>
      <point x="189" y="793"/>
      <point x="180" y="797"/>
      <point x="172" y="797" type="curve" smooth="yes"/>
      <point x="161" y="797"/>
      <point x="120" y="782"/>
      <point x="22" y="773" type="curve"/>
    </contour>
  </outline>
</glyph>
<glyph name="i" format="1">
  <advance width="282"/>
  <unicode hex="0069"/>
  <outline>
    <contour>
      <point x="89" y="652"/>
      <point x="123" y="605"/>
      <point x="143" y="605" type="curve" smooth="yes"/>
      <point x="165" y="605"/>
      <point x="202" y="642"/>
      <point x="202" y="676" type="curve" smooth="yes"/>
      <point x="202" y="712"/>
      <point x="158" y="737"/>
      <point x="143" y="737" type="curve" smooth="yes"/>
      <point x="110" y="737"/>
      <point x="89" y="672"/>
      <point x="89" y="665" type="curve" smooth="yes"/>
    </contour>
    <contour>
      <point x="30" y="0" type="line"/>
      <point x="262" y="0" type="line"/>
      <point x="262" y="34" type="line"/>
      <point x="218" y="37"/>
      <point x="195" y="47"/>
      <point x="195" y="75" type="curve" smooth="yes"/>
      <point x="195" y="347"/>
      <point x="200" y="467"/>
      <point x="200" y="510" type="curve" smooth="yes"/>
      <point x="200" y="522"/>
      <point x="191" y="526"/>
      <point x="183" y="526" type="curve" smooth="yes"/>
      <point x="172" y="526"/>
      <point x="131" y="511"/>
      <point x="33" y="502" type="curve"/>
      <point x="35" y="469" type="line"/>
      <point x="50" y="469" type="line" smooth="yes"/>
      <point x="101" y="469"/>
      <point x="107" y="462"/>
      <point x="107" y="295" type="curve" smooth="yes"/>
      <point x="107" y="87" type="line" smooth="yes"/>
      <point x="107" y="48"/>
      <point x="100" y="39"/>
      <point x="30" y="34" type="curve"/>
    </contour>
  </outline>
</glyph>
<glyph name="j" format="1">
  <advance width="252"/>
  <unicode hex="006A"/>
  <outline>
    <contour>
      <point x="70" y="652"/>
      <point x="104" y="605"/>
      <point x="125" y="605" type="curve" smooth="yes"/>
      <point x="146" y="605"/>
      <point x="184" y="642"/>
      <point x="184" y="676" type="curve" smooth="yes"/>
      <point x="184" y="712"/>
      <point x="140" y="737"/>
      <point x="125" y="737" type="curve" smooth="yes"/>
      <point x="92" y="737"/>
      <point x="70" y="672"/>
      <point x="70" y="665" type="curve" smooth="yes"/>
    </contour>
    <contour>
      <point x="12" y="-202" type="line"/>
      <point x="179" y="-66"/>
      <point x="183" y="-53"/>
      <point x="183" y="511" type="curve" smooth="yes"/>
      <point x="183" y="523"/>
      <point x="174" y="527"/>
      <point x="166" y="527" type="curve" smooth="yes"/>
      <point x="155" y="527"/>
      <point x="115" y="512"/>
      <point x="16" y="503" type="curve"/>
      <point x="18" y="470" type="line"/>
      <point x="33" y="470" type="line" smooth="yes"/>
      <point x="81" y="470"/>
      <point x="90" y="456"/>
      <point x="90" y="368" type="curve" smooth="yes"/>
      <point x="90" y="-99"/>
      <point x="86" y="-71"/>
      <point x="-5" y="-185" type="curve"/>
    </contour>
  </outline>
</glyph>
<glyph name="k" format="1">
  <advance width="575"/>
  <unicode hex="006B"/>
  <outline>
    <contour>
      <point x="25" y="740" type="line"/>
      <point x="92" y="737"/>
      <point x="103" y="743"/>
      <point x="103" y="532" type="curve" smooth="yes"/>
      <point x="103" y="445"/>
      <point x="101" y="321"/>
      <point x="101" y="145" type="curve" smooth="yes"/>
      <point x="101" y="39"/>
      <point x="95" y="48"/>
      <point x="32" y="34" type="curve"/>
      <point x="32" y="0" type="line"/>
      <point x="248" y="0" type="line"/>
      <point x="248" y="34" type="line"/>
      <point x="194" y="46"/>
      <point x="186" y="41"/>
      <point x="186" y="97" type="curve" smooth="yes"/>
      <point x="186" y="123"/>
      <point x="188" y="160"/>
      <point x="188" y="217" type="curve" smooth="yes"/>
      <point x="188" y="225"/>
      <point x="188" y="239"/>
      <point x="187" y="253" type="curve"/>
      <point x="242" y="230"/>
      <point x="207" y="272"/>
      <point x="440" y="-4" type="curve"/>
      <point x="487" y="0"/>
      <point x="518" y="0"/>
      <point x="563" y="0" type="curve"/>
      <point x="563" y="0"/>
      <point x="575" y="1"/>
      <point x="575" y="10" type="curve" smooth="yes"/>
      <point x="575" y="14"/>
      <point x="572" y="21"/>
      <point x="563" y="30" type="curve" smooth="yes"/>
      <point x="290" y="302" type="line"/>
      <point x="290" y="302"/>
      <point x="420" y="438"/>
      <point x="510" y="473" type="curve"/>
      <point x="514" y="475"/>
      <point x="536" y="476"/>
      <point x="536" y="494" type="curve" smooth="yes"/>
      <point x="536" y="502"/>
      <point x="530" y="510"/>
      <point x="518" y="510" type="curve"/>
      <point x="495" y="508"/>
      <point x="459" y="507"/>
      <point x="423" y="507" type="curve" smooth="yes"/>
      <point x="386" y="507"/>
      <point x="349" y="508"/>
      <point x="326" y="510" type="curve"/>
      <point x="312" y="509"/>
      <point x="307" y="502"/>
      <point x="307" y="494" type="curve" smooth="yes"/>
      <point x="307" y="485"/>
      <point x="314" y="476"/>
      <point x="326" y="476" type="curve" smooth="yes"/>
      <point x="341" y="476"/>
      <point x="347" y="469"/>
      <point x="347" y="459" type="curve" smooth="yes"/>
      <point x="347" y="414"/>
      <point x="234" y="295"/>
      <point x="189" y="295" type="curve"/>
      <point x="190" y="739" type="line"/>
      <point x="190" y="754" type="line"/>
      <point x="190" y="776" type="line"/>
      <point x="190" y="782" type="line" smooth="yes"/>
      <point x="190" y="793"/>
      <point x="180" y="797"/>
      <point x="172" y="797" type="curve" smooth="yes"/>
      <point x="161" y="797"/>
      <point x="121" y="782"/>
      <point x="23" y="773" type="curve"/>
    </contour>
  </outline>
</glyph>
<glyph name="m" format="1">
  <advance width="834"/>
  <unicode hex="006D"/>
  <outline>
    <contour>
      <point x="34" y="455" type="line"/>
      <point x="55" y="453"/>
      <point x="70" y="453"/>
      <point x="79" y="445" type="curve" smooth="yes"/>
      <point x="93" y="433"/>
      <point x="95" y="445"/>
      <point x="95" y="76" type="curve" smooth="yes"/>
      <point x="95" y="50"/>
      <point x="82" y="37"/>
      <point x="37" y="34" type="curve"/>
      <point x="37" y="0" type="line"/>
      <point x="241" y="0" type="line"/>
      <point x="241" y="34" type="line"/>
      <point x="192" y="48"/>
      <point x="185" y="33"/>
      <point x="185" y="144" type="curve" smooth="yes"/>
      <point x="185" y="200"/>
      <point x="188" y="285"/>
      <point x="192" y="415" type="curve"/>
      <point x="213" y="429"/>
      <point x="262" y="452"/>
      <point x="291" y="452" type="curve" smooth="yes"/>
      <point x="366" y="452"/>
      <point x="380" y="427"/>
      <point x="380" y="389" type="curve" smooth="yes"/>
      <point x="380" y="333"/>
      <point x="379" y="304"/>
      <point x="379" y="107" type="curve" smooth="yes"/>
      <point x="379" y="51"/>
      <point x="376" y="37"/>
      <point x="325" y="34" type="curve"/>
      <point x="325" y="0" type="line"/>
      <point x="529" y="0" type="line"/>
      <point x="529" y="34" type="line"/>
      <point x="481" y="44"/>
      <point x="472" y="33"/>
      <point x="472" y="147" type="curve" smooth="yes"/>
      <point x="472" y="195"/>
      <point x="472" y="284"/>
      <point x="473" y="414" type="curve"/>
      <point x="492" y="424"/>
      <point x="549" y="452"/>
      <point x="573" y="452" type="curve" smooth="yes"/>
      <point x="661" y="452"/>
      <point x="663" y="420"/>
      <point x="663" y="356" type="curve" smooth="yes"/>
      <point x="663" y="230"/>
      <point x="664" y="157"/>
      <point x="664" y="111" type="curve" smooth="yes"/>
      <point x="664" y="48"/>
      <point x="658" y="37"/>
      <point x="607" y="34" type="curve"/>
      <point x="607" y="0" type="line"/>
      <point x="811" y="0" type="line"/>
      <point x="811" y="34" type="line"/>
      <point x="761" y="37"/>
      <point x="752" y="32"/>
      <point x="752" y="147" type="curve" smooth="yes"/>
      <point x="752" y="201"/>
      <point x="754" y="284"/>
      <point x="754" y="408" type="curve" smooth="yes"/>
      <point x="754" y="440"/>
      <point x="730" y="526"/>
      <point x="641" y="526" type="curve" smooth="yes"/>
      <point x="574" y="526"/>
      <point x="508" y="480"/>
      <point x="474" y="455" type="curve"/>
      <point x="420" y="512"/>
      <point x="386" y="526"/>
      <point x="349" y="526" type="curve" smooth="yes"/>
      <point x="300" y="526"/>
      <point x="247" y="492"/>
      <point x="190" y="460" type="curve"/>
      <point x="190" y="474" type="line" smooth="yes"/>
      <point x="190" y="515"/>
      <point x="185" y="527"/>
      <point x="167" y="527" type="curve" smooth="yes"/>
      <point x="140" y="527"/>
      <point x="104" y="501"/>
      <point x="32" y="493" type="curve"/>
    </contour>
  </outline>
</glyph>
<glyph name="p" format="1">
  <advance width="554"/>
  <unicode hex="0070"/>
  <outline>
    <contour>
      <point x="32" y="469" type="line"/>
      <point x="94" y="469"/>
      <point x="98" y="461"/>
      <point x="98" y="415" type="curve" smooth="yes"/>
      <point x="98" y="64"/>
      <point x="98" y="-34"/>
      <point x="99" y="-128" type="curve" smooth="yes"/>
      <point x="99" y="-153"/>
      <point x="85" y="-166"/>
      <point x="41" y="-171" type="curve"/>
      <point x="41" y="-203" type="line"/>
      <point x="245" y="-203" type="line"/>
      <point x="245" y="-169" type="line"/>
      <point x="195" y="-160"/>
      <point x="186" y="-155"/>
      <point x="185" y="-98" type="curve"/>
      <point x="185" y="-70"/>
      <point x="188" y="-4"/>
      <point x="189" y="57" type="curve"/>
      <point x="197" y="43"/>
      <point x="207" y="-6"/>
      <point x="316" y="-6" type="curve" smooth="yes"/>
      <point x="437" y="-6"/>
      <point x="528" y="105"/>
      <point x="528" y="302" type="curve" smooth="yes"/>
      <point x="528" y="513"/>
      <point x="377" y="526"/>
      <point x="360" y="526" type="curve" smooth="yes"/>
      <point x="289" y="526"/>
      <point x="230" y="471"/>
      <point x="195" y="454" type="curve"/>
      <point x="195" y="464"/>
      <point x="198" y="506"/>
      <point x="198" y="510" type="curve" smooth="yes"/>
      <point x="198" y="522"/>
      <point x="188" y="526"/>
      <point x="180" y="526" type="curve" smooth="yes"/>
      <point x="169" y="526"/>
      <point x="129" y="511"/>
      <point x="30" y="502" type="curve"/>
    </contour>
    <contour>
      <point x="189" y="282"/>
      <point x="193" y="346"/>
      <point x="194" y="412" type="curve"/>
      <point x="237" y="434"/>
      <point x="280" y="449"/>
      <point x="317" y="449" type="curve" smooth="yes"/>
      <point x="383" y="449"/>
      <point x="432" y="403"/>
      <point x="432" y="272" type="curve" smooth="yes"/>
      <point x="432" y="104"/>
      <point x="362" y="42"/>
      <point x="297" y="42" type="curve" smooth="yes"/>
      <point x="207" y="42"/>
      <point x="189" y="91"/>
      <point x="189" y="226" type="curve" smooth="yes"/>
    </contour>
  </outline>
</glyph>
<glyph name="q" format="1">
  <advance width="539"/>
  <unicode hex="0071"/>
  <outline>
    <contour>
      <point x="30" y="110"/>
      <point x="80" y="-12"/>
      <point x="197" y="-12" type="curve" smooth="yes"/>
      <point x="248" y="-12"/>
      <point x="306" y="20"/>
      <point x="359" y="59" type="curve"/>
      <point x="361" y="11"/>
      <point x="362" y="-26"/>
      <point x="362" y="-55" type="curve" smooth="yes"/>
      <point x="362" y="-156"/>
      <point x="348" y="-162"/>
      <point x="301" y="-171" type="curve"/>
      <point x="301" y="-203" type="line"/>
      <point x="505" y="-203" type="line"/>
      <point x="505" y="-169" type="line"/>
      <point x="452" y="-154"/>
      <point x="446" y="-162"/>
      <point x="446" y="-28" type="curve" smooth="yes"/>
      <point x="446" y="111"/>
      <point x="448" y="317"/>
      <point x="455" y="398" type="curve" smooth="yes"/>
      <point x="459" y="447"/>
      <point x="469" y="453"/>
      <point x="505" y="468" type="curve"/>
      <point x="505" y="502" type="line"/>
      <point x="359" y="504"/>
      <point x="320" y="525"/>
      <point x="273" y="525" type="curve" smooth="yes"/>
      <point x="233" y="525"/>
      <point x="199" y="510"/>
      <point x="122" y="458" type="curve" smooth="yes"/>
      <point x="88" y="435"/>
      <point x="30" y="381"/>
      <point x="30" y="230" type="curve" smooth="yes"/>
    </contour>
    <contour>
      <point x="126" y="335"/>
      <point x="143" y="457"/>
      <point x="254" y="457" type="curve" smooth="yes"/>
      <point x="278" y="457"/>
      <point x="357" y="453"/>
      <point x="359" y="418" type="curve"/>
      <point x="359" y="402" type="line"/>
      <point x="359" y="152" type="line" smooth="yes"/>
      <point x="359" y="128"/>
      <point x="354" y="103"/>
      <point x="337" y="91" type="curve" smooth="yes"/>
      <point x="312" y="73"/>
      <point x="278" y="60"/>
      <point x="245" y="60" type="curve" smooth="yes"/>
      <point x="185" y="60"/>
      <point x="126" y="103"/>
      <point x="126" y="236" type="curve" smooth="yes"/>
    </contour>
  </outline>
</glyph>
<glyph name="r" format="1">
  <advance width="398"/>
  <unicode hex="0072"/>
  <outline>
    <contour>
      <point x="25" y="0" type="line"/>
      <point x="305" y="0" type="line"/>
      <point x="305" y="31" type="line"/>
      <point x="213" y="44"/>
      <point x="193" y="45"/>
      <point x="193" y="91" type="curve" smooth="yes"/>
      <point x="193" y="130"/>
      <point x="194" y="309"/>
      <point x="194" y="362" type="curve" smooth="yes"/>
      <point x="194" y="422"/>
      <point x="273" y="448"/>
      <point x="295" y="448" type="curve" smooth="yes"/>
      <point x="320" y="448"/>
      <point x="342" y="429"/>
      <point x="346" y="373" type="curve"/>
      <point x="382" y="373" type="line"/>
      <point x="390" y="423"/>
      <point x="398" y="458"/>
      <point x="398" y="481" type="curve" smooth="yes"/>
      <point x="398" y="512"/>
      <point x="383" y="523"/>
      <point x="333" y="523" type="curve" smooth="yes"/>
      <point x="303" y="523"/>
      <point x="259" y="501"/>
      <point x="194" y="438" type="curve"/>
      <point x="194" y="438"/>
      <point x="193" y="458"/>
      <point x="193" y="476" type="curve" smooth="yes"/>
      <point x="193" y="517"/>
      <point x="187" y="529"/>
      <point x="170" y="529" type="curve" smooth="yes"/>
      <point x="142" y="529"/>
      <point x="107" y="503"/>
      <point x="35" y="495" type="curve"/>
      <point x="37" y="457" type="line"/>
      <point x="101" y="451"/>
      <point x="102" y="468"/>
      <point x="102" y="182" type="curve" smooth="yes"/>
      <point x="102" y="149" type="line" smooth="yes"/>
      <point x="102" y="40"/>
      <point x="99" y="42"/>
      <point x="25" y="34" type="curve"/>
    </contour>
  </outline>
</glyph>
<glyph name="t" format="1">
  <advance width="335"/>
  <unicode hex="0074"/>
  <outline>
    <contour>
      <point x="10" y="448" type="line"/>
      <point x="97" y="448" type="line"/>
      <point x="97" y="341"/>
      <point x="94" y="256"/>
      <point x="94" y="188" type="curve" smooth="yes"/>
      <point x="94" y="45"/>
      <point x="108" y="-15"/>
      <point x="199" y="-15" type="curve" smooth="yes"/>
      <point x="223" y="-15"/>
      <point x="268" y="6"/>
      <point x="325" y="65" type="curve"/>
      <point x="304" y="85" type="line"/>
      <point x="272" y="66"/>
      <point x="249" y="56"/>
      <point x="231" y="56" type="curve" smooth="yes"/>
      <point x="191" y="56"/>
      <point x="184" y="106"/>
      <point x="184" y="201" type="curve" smooth="yes"/>
      <point x="184" y="264"/>
      <point x="187" y="346"/>
      <point x="187" y="448" type="curve"/>
      <point x="311" y="448" type="line"/>
      <point x="314" y="504" type="line"/>
      <point x="187" y="504" type="line"/>
      <point x="187" y="535" type="line" smooth="yes"/>
      <point x="187" y="565"/>
      <point x="189" y="584"/>
      <point x="189" y="596" type="curve" smooth="yes"/>
      <point x="189" y="608"/>
      <point x="182" y="611"/>
      <point x="174" y="611" type="curve" smooth="yes"/>
      <point x="170" y="611"/>
      <point x="178" y="610"/>
      <point x="97" y="587" type="curve"/>
      <point x="97" y="495" type="line"/>
      <point x="10" y="478" type="line"/>
    </contour>
  </outline>
</glyph>
<glyph name="v" format="1">
  <advance width="492"/>
  <unicode hex="0076"/>
  <outline>
    <contour>
      <point x="2" y="468" type="line"/>
      <point x="28" y="465"/>
      <point x="44" y="467"/>
      <point x="59" y="450" type="curve" smooth="yes"/>
      <point x="91" y="414"/>
      <point x="122" y="276"/>
      <point x="156" y="165" type="curve" smooth="yes"/>
      <point x="203" y="8"/>
      <point x="202" y="-15"/>
      <point x="241" y="-15" type="curve" smooth="yes"/>
      <point x="289" y="-15"/>
      <point x="276" y="4"/>
      <point x="372" y="241" type="curve" smooth="yes"/>
      <point x="473" y="492"/>
      <point x="492" y="483"/>
      <point x="492" y="498" type="curve" smooth="yes"/>
      <point x="492" y="505"/>
      <point x="490" y="513"/>
      <point x="478" y="513" type="curve" smooth="yes"/>
      <point x="461" y="513"/>
      <point x="442" y="509"/>
      <point x="412" y="509" type="curve" smooth="yes"/>
      <point x="401" y="509"/>
      <point x="385" y="511"/>
      <point x="369" y="511" type="curve" smooth="yes"/>
      <point x="351" y="511"/>
      <point x="335" y="508"/>
      <point x="335" y="493" type="curve" smooth="yes"/>
      <point x="335" y="459"/>
      <point x="371" y="490"/>
      <point x="371" y="446" type="curve" smooth="yes"/>
      <point x="371" y="430"/>
      <point x="368" y="377"/>
      <point x="265" y="105" type="curve"/>
      <point x="265" y="105"/>
      <point x="160" y="482"/>
      <point x="160" y="514" type="curve" smooth="yes"/>
      <point x="160" y="526"/>
      <point x="151" y="529"/>
      <point x="143" y="529" type="curve" smooth="yes"/>
      <point x="132" y="529"/>
      <point x="89" y="512"/>
      <point x="0" y="501" type="curve"/>
    </contour>
  </outline>
</glyph>
<glyph name="x" format="1">
  <advance width="453"/>
  <unicode hex="0078"/>
  <outline>
    <contour>
      <point x="-5" y="0" type="line"/>
      <point x="159" y="0" type="line"/>
      <point x="159" y="34" type="line"/>
      <point x="135" y="38"/>
      <point x="122" y="42"/>
      <point x="122" y="54" type="curve" smooth="yes"/>
      <point x="122" y="74"/>
      <point x="155" y="119"/>
      <point x="223" y="224" type="curve"/>
      <point x="327" y="65"/>
      <point x="393" y="-18"/>
      <point x="436" y="-18" type="curve" smooth="yes"/>
      <point x="441" y="-18"/>
      <point x="453" y="-16"/>
      <point x="453" y="2" type="curve" smooth="yes"/>
      <point x="453" y="22"/>
      <point x="451" y="34"/>
      <point x="284" y="295" type="curve"/>
      <point x="294" y="310"/>
      <point x="358" y="404"/>
      <point x="392" y="446" type="curve"/>
      <point x="423" y="488"/>
      <point x="450" y="472"/>
      <point x="450" y="493" type="curve" smooth="yes"/>
      <point x="450" y="509"/>
      <point x="442" y="514"/>
      <point x="430" y="514" type="curve" smooth="yes"/>
      <point x="407" y="514"/>
      <point x="401" y="512"/>
      <point x="372" y="512" type="curve" smooth="yes"/>
      <point x="344" y="512"/>
      <point x="329" y="514"/>
      <point x="315" y="514" type="curve" smooth="yes"/>
      <point x="295" y="514"/>
      <point x="292" y="500"/>
      <point x="292" y="497" type="curve" smooth="yes"/>
      <point x="292" y="470"/>
      <point x="329" y="494"/>
      <point x="329" y="458" type="curve" smooth="yes"/>
      <point x="329" y="446"/>
      <point x="292" y="397"/>
      <point x="252" y="341" type="curve"/>
      <point x="169" y="491"/>
      <point x="158" y="526"/>
      <point x="128" y="526" type="curve" smooth="yes"/>
      <point x="108" y="526"/>
      <point x="80" y="510"/>
      <point x="17" y="502" type="curve"/>
      <point x="19" y="469" type="line"/>
      <point x="85" y="462"/>
      <point x="75" y="447"/>
      <point x="190" y="266" type="curve"/>
      <point x="79" y="97"/>
      <point x="48" y="53"/>
      <point x="24" y="40" type="curve" smooth="yes"/>
      <point x="15" y="35"/>
      <point x="6" y="35"/>
      <point x="-5" y="34" type="curve"/>
    </contour>
  </outline>
</glyph>
<glyph name="braceleft" format="1">
  <advance width="388"/>
  <unicode hex="007B"/>
  <outline>
    <contour>
      <point x="50" y="282" type="line"/>
      <point x="82" y="275"/>
      <point x="120" y="266"/>
      <point x="160" y="253" type="curve"/>
      <point x="185" y="216"/>
      <point x="157" y="-121"/>
      <point x="212" y="-175" type="curve"/>
      <point x="252" y="-185"/>
      <point x="329" y="-199"/>
      <point x="379" y="-208" type="curve"/>
      <point x="388" y="-175" type="line"/>
      <point x="356" y="-167"/>
      <point x="324" y="-159"/>
      <point x="284" y="-145" type="curve"/>
      <point x="262" y="-113"/>
      <point x="276" y="95"/>
      <point x="257" y="211" type="curve" smooth="yes"/>
      <point x="249" y="259"/>
      <point x="175" y="295"/>
      <point x="154" y="297" type="curve"/>
      <point x="175" y="300"/>
      <point x="249" y="336"/>
      <point x="257" y="384" type="curve" smooth="yes"/>
      <point x="276" y="500"/>
      <point x="262" y="708"/>
      <point x="284" y="740" type="curve"/>
      <point x="324" y="753"/>
      <point x="356" y="761"/>
      <point x="388" y="768" type="curve"/>
      <point x="379" y="801" type="line"/>
      <point x="329" y="793"/>
      <point x="252" y="778"/>
      <point x="212" y="768" type="curve"/>
      <point x="157" y="713"/>
      <point x="188" y="383"/>
      <point x="160" y="343" type="curve"/>
      <point x="120" y="330"/>
      <point x="88" y="322"/>
      <point x="56" y="314" type="curve"/>
    </contour>
  </outline>
</glyph>
<glyph name="bar" format="1">
  <advance width="240"/>
  <unicode hex="007C"/>
  <outline>
    <contour>
      <point x="81" y="-203" type="line"/>
      <point x="159" y="-203" type="line"/>
      <point x="159" y="797" type="line"/>
      <point x="81" y="797" type="line"/>
    </contour>
  </outline>
</glyph>
<glyph name="braceright" format="1">
  <advance width="388"/>
  <unicode hex="007D"/>
  <outline>
    <contour>
      <point x="9" y="-208" type="line"/>
      <point x="59" y="-199"/>
      <point x="136" y="-185"/>
      <point x="176" y="-175" type="curve"/>
      <point x="231" y="-121"/>
      <point x="203" y="216"/>
      <point x="228" y="253" type="curve"/>
      <point x="268" y="266"/>
      <point x="300" y="274"/>
      <point x="332" y="281" type="curve"/>
      <point x="338" y="313" type="line"/>
      <point x="306" y="320"/>
      <point x="268" y="330"/>
      <point x="228" y="343" type="curve"/>
      <point x="200" y="383"/>
      <point x="231" y="713"/>
      <point x="176" y="768" type="curve"/>
      <point x="136" y="778"/>
      <point x="59" y="793"/>
      <point x="9" y="801" type="curve"/>
      <point x="0" y="768" type="line"/>
      <point x="32" y="761"/>
      <point x="64" y="753"/>
      <point x="104" y="740" type="curve"/>
      <point x="126" y="708"/>
      <point x="112" y="500"/>
      <point x="131" y="384" type="curve" smooth="yes"/>
      <point x="139" y="336"/>
      <point x="213" y="300"/>
      <point x="234" y="297" type="curve"/>
      <point x="213" y="295"/>
      <point x="139" y="259"/>
      <point x="131" y="211" type="curve" smooth="yes"/>
      <point x="112" y="95"/>
      <point x="126" y="-113"/>
      <point x="104" y="-145" type="curve"/>
      <point x="64" y="-159"/>
      <point x="32" y="-167"/>
      <point x="0" y="-175" type="curve"/>
    </contour>
  </outline>
</glyph>
<glyph name="asciitilde" format="1">
  <advance width="480"/>
  <unicode hex="007E"/>
  <outline>
    <contour>
      <point x="55" y="252" type="line"/>
      <point x="97" y="308"/>
      <point x="117" y="311"/>
      <point x="130" y="311" type="curve" smooth="yes"/>
      <point x="196" y="311"/>
      <point x="263" y="248"/>
      <point x="339" y="248" type="curve" smooth="yes"/>
      <point x="412" y="248"/>
      <point x="459" y="312"/>
      <point x="477" y="340" type="curve"/>
      <point x="424" y="373" type="line"/>
      <point x="388" y="324"/>
      <point x="368" y="314"/>
      <point x="344" y="314" type="curve" smooth="yes"/>
      <point x="290" y="314"/>
      <point x="217" y="377"/>
      <point x="141" y="377" type="curve" smooth="yes"/>
      <point x="76" y="377"/>
      <point x="35" y="331"/>
      <point x="2" y="286" type="curve"/>
    </contour>
  </outline>
</glyph>
<glyph name="exclamdown" format="1">
  <advance width="240"/>
  <unicode hex="00A1"/>
  <outline>
    <contour>
      <point x="68" y="-10" type="line"/>
      <point x="95" y="-4"/>
      <point x="135" y="2"/>
      <point x="170" y="7" type="curve"/>
      <point x="170" y="48"/>
      <point x="156" y="321"/>
      <point x="148" y="463" type="curve" smooth="yes"/>
      <point x="143" y="547" type="line"/>
      <point x="110" y="553" type="line"/>
      <point x="96" y="479"/>
      <point x="72" y="201"/>
      <point x="56" y="1" type="curve"/>
    </contour>
    <contour>
      <point x="69" y="675"/>
      <point x="106" y="601"/>
      <point x="131" y="601" type="curve" smooth="yes"/>
      <point x="157" y="601"/>
      <point x="183" y="653"/>
      <point x="183" y="665" type="curve" smooth="yes"/>
      <point x="183" y="673"/>
      <point x="156" y="759"/>
      <point x="135" y="759" type="curve" smooth="yes"/>
      <point x="111" y="759"/>
      <point x="69" y="710"/>
      <point x="69" y="689" type="curve" smooth="yes"/>
    </contour>
  </outline>
</glyph>
<glyph name="cent" format="1">
  <advance width="480"/>
  <unicode hex="00A2"/>
  <outline>
    <contour>
      <point x="49" y="195"/>
      <point x="55" y="154"/>
      <point x="63" y="120" type="curve"/>
      <point x="83" y="74"/>
      <point x="100" y="46"/>
      <point x="133" y="16" type="curve"/>
      <point x="173" y="-5"/>
      <point x="208" y="-14"/>
      <point x="238" y="-14" type="curve"/>
      <point x="238" y="-91" type="line"/>
      <point x="279" y="-91" type="line"/>
      <point x="279" y="-10" type="line"/>
      <point x="347" y="8"/>
      <point x="391" y="69"/>
      <point x="432" y="114" type="curve"/>
      <point x="411" y="134" type="line"/>
      <point x="411" y="134"/>
      <point x="345" y="66"/>
      <point x="279" y="63" type="curve"/>
      <point x="279" y="454" type="line"/>
      <point x="322" y="449"/>
      <point x="361" y="437"/>
      <point x="366" y="418" type="curve" smooth="yes"/>
      <point x="372" y="398"/>
      <point x="382" y="354"/>
      <point x="382" y="354" type="curve"/>
      <point x="412" y="354" type="line"/>
      <point x="412" y="364"/>
      <point x="413" y="484"/>
      <point x="415" y="504" type="curve"/>
      <point x="405" y="508"/>
      <point x="339" y="525"/>
      <point x="279" y="525" type="curve"/>
      <point x="279" y="613" type="line"/>
      <point x="238" y="613" type="line"/>
      <point x="238" y="523" type="line"/>
      <point x="205" y="517"/>
      <point x="165" y="498"/>
      <point x="97" y="436" type="curve"/>
      <point x="92" y="432"/>
      <point x="67" y="406"/>
      <point x="62" y="383" type="curve" smooth="yes"/>
      <point x="52" y="334"/>
      <point x="49" y="293"/>
      <point x="49" y="240" type="curve" smooth="yes"/>
    </contour>
    <contour>
      <point x="138" y="414"/>
      <point x="158" y="456"/>
      <point x="238" y="456" type="curve"/>
      <point x="238" y="66" type="line"/>
      <point x="154" y="84"/>
      <point x="138" y="167"/>
      <point x="138" y="272" type="curve" smooth="yes"/>
    </contour>
  </outline>
</glyph>
<glyph name="sterling" format="1">
  <advance width="488"/>
  <unicode hex="00A3"/>
  <outline>
    <contour>
      <point x="36" y="0" type="line"/>
      <point x="51" y="1"/>
      <point x="71" y="3"/>
      <point x="161" y="3" type="curve" smooth="yes"/>
      <point x="214" y="3"/>
      <point x="296" y="2"/>
      <point x="428" y="0" type="curve"/>
      <point x="426" y="20"/>
      <point x="424" y="140"/>
      <point x="424" y="150" type="curve"/>
      <point x="395" y="150" type="line"/>
      <point x="379" y="86" type="line"/>
      <point x="370" y="66" type="line"/>
      <point x="353" y="63"/>
      <point x="315" y="57"/>
      <point x="241" y="57" type="curve" smooth="yes"/>
      <point x="213" y="57"/>
      <point x="179" y="58"/>
      <point x="140" y="60" type="curve"/>
      <point x="168" y="92"/>
      <point x="193" y="144"/>
      <point x="198" y="246" type="curve"/>
      <point x="372" y="246" type="line"/>
      <point x="372" y="286" type="line"/>
      <point x="201" y="286" type="line"/>
      <point x="202" y="316"/>
      <point x="205" y="356"/>
      <point x="208" y="382" type="curve" smooth="yes"/>
      <point x="214" y="453"/>
      <point x="248" y="483"/>
      <point x="288" y="483" type="curve" smooth="yes"/>
      <point x="309" y="483"/>
      <point x="331" y="476"/>
      <point x="353" y="461" type="curve"/>
      <point x="362" y="440"/>
      <point x="370" y="416"/>
      <point x="377" y="386" type="curve"/>
      <point x="400" y="386" type="line"/>
      <point x="415" y="507" type="line"/>
      <point x="392" y="516"/>
      <point x="359" y="530"/>
      <point x="320" y="530" type="curve" smooth="yes"/>
      <point x="269" y="530"/>
      <point x="207" y="506"/>
      <point x="138" y="413" type="curve" smooth="yes"/>
      <point x="109" y="374"/>
      <point x="111" y="347"/>
      <point x="105" y="286" type="curve"/>
      <point x="46" y="286" type="line"/>
      <point x="46" y="246" type="line"/>
      <point x="105" y="246" type="line"/>
      <point x="100" y="50"/>
      <point x="70" y="42"/>
      <point x="25" y="33" type="curve"/>
    </contour>
  </outline>
</glyph>
<glyph name="brokenbar" format="1">
  <advance width="240"/>
  <unicode hex="00A6"/>
  <outline>
    <contour>
      <point x="81" y="200" type="line"/>
      <point x="81" y="-203" type="line"/>
      <point x="159" y="-203" type="line"/>
      <point x="159" y="200" type="line"/>
    </contour>
    <contour>
      <point x="81" y="394" type="line"/>
      <point x="159" y="394" type="line"/>
      <point x="159" y="797" type="line"/>
      <point x="81" y="797" type="line"/>
    </contour>
  </outline>
</glyph>
<glyph name="section" format="1">
  <advance width="480"/>
  <unicode hex="00A7"/>
  <outline>
    <contour>
      <point x="50" y="211"/>
      <point x="88" y="169"/>
      <point x="202" y="107" type="curve" smooth="yes"/>
      <point x="293" y="56"/>
      <point x="311" y="42"/>
      <point x="341" y="-2" type="curve"/>
      <point x="344" y="-14"/>
      <point x="347" y="-26"/>
      <point x="347" y="-42" type="curve" smooth="yes"/>
      <point x="347" y="-119"/>
      <point x="283" y="-147"/>
      <point x="233" y="-147" type="curve" smooth="yes"/>
      <point x="143" y="-147"/>
      <point x="129" y="-90"/>
      <point x="121" y="-16" type="curve"/>
      <point x="86" y="-16" type="line"/>
      <point x="86" y="-43"/>
      <point x="85" y="-127"/>
      <point x="80" y="-162" type="curve"/>
      <point x="118" y="-198"/>
      <point x="168" y="-203"/>
      <point x="219" y="-203" type="curve" smooth="yes"/>
      <point x="265" y="-203"/>
      <point x="302" y="-191"/>
      <point x="335" y="-164" type="curve" smooth="yes"/>
      <point x="412" y="-100"/>
      <point x="415" y="-33"/>
      <point x="415" y="-1" type="curve" smooth="yes"/>
      <point x="415" y="38"/>
      <point x="403" y="74"/>
      <point x="382" y="105" type="curve"/>
      <point x="370" y="121"/>
      <point x="369" y="123"/>
      <point x="343" y="139" type="curve" smooth="yes"/>
      <point x="307" y="161" type="line"/>
      <point x="384" y="192"/>
      <point x="430" y="224"/>
      <point x="430" y="329" type="curve" smooth="yes"/>
      <point x="430" y="408"/>
      <point x="380" y="444"/>
      <point x="329" y="472" type="curve" smooth="yes"/>
      <point x="271" y="503" type="line" smooth="yes"/>
      <point x="177" y="554"/>
      <point x="145" y="590"/>
      <point x="145" y="638" type="curve" smooth="yes"/>
      <point x="145" y="688"/>
      <point x="188" y="721"/>
      <point x="241" y="721" type="curve" smooth="yes"/>
      <point x="274" y="721"/>
      <point x="315" y="708"/>
      <point x="329" y="688" type="curve" smooth="yes"/>
      <point x="341" y="670"/>
      <point x="354" y="608"/>
      <point x="355" y="594" type="curve"/>
      <point x="392" y="594" type="line"/>
      <point x="392" y="621"/>
      <point x="392" y="703"/>
      <point x="397" y="738" type="curve"/>
      <point x="369" y="759"/>
      <point x="312" y="776"/>
      <point x="275" y="776" type="curve" smooth="yes"/>
      <point x="217" y="776"/>
      <point x="178" y="762"/>
      <point x="143" y="733" type="curve" smooth="yes"/>
      <point x="116" y="711"/>
      <point x="77" y="674"/>
      <point x="77" y="604" type="curve" smooth="yes"/>
      <point x="77" y="543"/>
      <point x="112" y="489"/>
      <point x="179" y="451" type="curve"/>
      <point x="128" y="416" type="line" smooth="yes"/>
      <point x="73" y="377"/>
      <point x="50" y="350"/>
      <point x="50" y="276" type="curve" smooth="yes"/>
    </contour>
    <contour>
      <point x="134" y="352"/>
      <point x="150" y="399"/>
      <point x="228" y="422" type="curve"/>
      <point x="228" y="422"/>
      <point x="352" y="370"/>
      <point x="352" y="300" type="curve" smooth="yes"/>
      <point x="352" y="217"/>
      <point x="268" y="185"/>
      <point x="263" y="185" type="curve"/>
      <point x="207" y="214" type="line" smooth="yes"/>
      <point x="167" y="235"/>
      <point x="134" y="259"/>
      <point x="134" y="303" type="curve" smooth="yes"/>
    </contour>
  </outline>
</glyph>
<glyph name="dieresis" format="1">
  <advance width="500"/>
  <unicode hex="00A8"/>
  <outline>
    <contour>
      <point x="97" y="632"/>
      <point x="131" y="584"/>
      <point x="152" y="584" type="curve" smooth="yes"/>
      <point x="173" y="584"/>
      <point x="210" y="622"/>
      <point x="210" y="656" type="curve" smooth="yes"/>
      <point x="210" y="692"/>
      <point x="166" y="717"/>
      <point x="152" y="717" type="curve" smooth="yes"/>
      <point x="118" y="717"/>
      <point x="97" y="652"/>
      <point x="97" y="645" type="curve" smooth="yes"/>
    </contour>
    <contour>
      <point x="284" y="632"/>
      <point x="318" y="584"/>
      <point x="339" y="584" type="curve" smooth="yes"/>
      <point x="360" y="584"/>
      <point x="398" y="622"/>
      <point x="398" y="656" type="curve" smooth="yes"/>
      <point x="398" y="692"/>
      <point x="354" y="717"/>
      <point x="339" y="717" type="curve" smooth="yes"/>
      <point x="306" y="717"/>
      <point x="284" y="652"/>
      <point x="284" y="645" type="curve" smooth="yes"/>
    </contour>
  </outline>
</glyph>
<glyph name="copyright" format="1">
  <advance width="776"/>
  <unicode hex="00A9"/>
  <outline>
    <contour>
      <point x="36" y="150"/>
      <point x="180" y="-18"/>
      <point x="391" y="-18" type="curve" smooth="yes"/>
      <point x="576" y="-18"/>
      <point x="740" y="130"/>
      <point x="740" y="335" type="curve" smooth="yes"/>
      <point x="740" y="528"/>
      <point x="588" y="686"/>
      <point x="385" y="686" type="curve" smooth="yes"/>
      <point x="204" y="686"/>
      <point x="36" y="542"/>
      <point x="36" y="331" type="curve" smooth="yes"/>
    </contour>
    <contour>
      <point x="85" y="515"/>
      <point x="230" y="638"/>
      <point x="387" y="638" type="curve" smooth="yes"/>
      <point x="547" y="638"/>
      <point x="692" y="511"/>
      <point x="692" y="335" type="curve" smooth="yes"/>
      <point x="692" y="162"/>
      <point x="554" y="31"/>
      <point x="391" y="31" type="curve" smooth="yes"/>
      <point x="207" y="31"/>
      <point x="85" y="177"/>
      <point x="85" y="332" type="curve" smooth="yes"/>
    </contour>
    <contour>
      <point x="219" y="283"/>
      <point x="224" y="250"/>
      <point x="230" y="222" type="curve"/>
      <point x="246" y="185"/>
      <point x="260" y="162"/>
      <point x="287" y="138" type="curve"/>
      <point x="313" y="123"/>
      <point x="347" y="112"/>
      <point x="387" y="112" type="curve" smooth="yes"/>
      <point x="398" y="112"/>
      <point x="420" y="116"/>
      <point x="439" y="119" type="curve"/>
      <point x="529" y="217" type="line"/>
      <point x="512" y="233" type="line"/>
      <point x="512" y="233"/>
      <point x="447" y="173"/>
      <point x="392" y="173" type="curve" smooth="yes"/>
      <point x="369" y="173"/>
      <point x="349" y="182"/>
      <point x="332" y="196" type="curve"/>
      <point x="320" y="210"/>
      <point x="309" y="226"/>
      <point x="300" y="250" type="curve"/>
      <point x="294" y="274"/>
      <point x="291" y="305"/>
      <point x="291" y="345" type="curve" smooth="yes"/>
      <point x="291" y="461"/>
      <point x="307" y="494"/>
      <point x="372" y="494" type="curve" smooth="yes"/>
      <point x="418" y="494"/>
      <point x="470" y="484"/>
      <point x="476" y="464" type="curve"/>
      <point x="488" y="411" type="line"/>
      <point x="513" y="411" type="line"/>
      <point x="513" y="419"/>
      <point x="513" y="517"/>
      <point x="515" y="533" type="curve"/>
      <point x="507" y="536"/>
      <point x="453" y="550"/>
      <point x="405" y="550" type="curve" smooth="yes"/>
      <point x="366" y="550"/>
      <point x="331" y="550"/>
      <point x="238" y="459" type="curve" smooth="yes"/>
      <point x="236" y="457"/>
      <point x="232" y="445"/>
      <point x="229" y="435" type="curve"/>
      <point x="221" y="395"/>
      <point x="219" y="363"/>
      <point x="219" y="319" type="curve" smooth="yes"/>
    </contour>
  </outline>
</glyph>
<glyph name="ordfeminine" format="1">
  <advance width="310"/>
  <unicode hex="00AA"/>
  <outline>
    <contour>
      <point x="40" y="464"/>
      <point x="55" y="442"/>
      <point x="124" y="439" type="curve"/>
      <point x="147" y="442" type="line"/>
      <point x="214" y="482" type="line"/>
      <point x="234" y="440" type="line"/>
      <point x="234" y="440"/>
      <point x="276" y="449"/>
      <point x="310" y="449" type="curve"/>
      <point x="310" y="464" type="line"/>
      <point x="290" y="464"/>
      <point x="267" y="473"/>
      <point x="265" y="494" type="curve"/>
      <point x="267" y="686" type="line"/>
      <point x="265" y="695"/>
      <point x="260" y="701"/>
      <point x="249" y="708" type="curve" smooth="yes"/>
      <point x="224" y="723"/>
      <point x="187" y="734"/>
      <point x="169" y="734" type="curve" smooth="yes"/>
      <point x="148" y="734"/>
      <point x="99" y="723"/>
      <point x="62" y="702" type="curve"/>
      <point x="55" y="629" type="line"/>
      <point x="80" y="629" type="line"/>
      <point x="80" y="629"/>
      <point x="93" y="699"/>
      <point x="132" y="699" type="curve" smooth="yes"/>
      <point x="159" y="699"/>
      <point x="210" y="680"/>
      <point x="210" y="665" type="curve" smooth="yes"/>
      <point x="210" y="619" type="line"/>
      <point x="123" y="601"/>
      <point x="40" y="606"/>
      <point x="40" y="511" type="curve" smooth="yes"/>
    </contour>
    <contour>
      <point x="94" y="542"/>
      <point x="99" y="556"/>
      <point x="112" y="565" type="curve"/>
      <point x="145" y="579"/>
      <point x="184" y="592"/>
      <point x="210" y="597" type="curve"/>
      <point x="211" y="506" type="line"/>
      <point x="173" y="483" type="line"/>
      <point x="157" y="478"/>
      <point x="146" y="476"/>
      <point x="140" y="476" type="curve" smooth="yes"/>
      <point x="109" y="476"/>
      <point x="94" y="489"/>
      <point x="94" y="517" type="curve" smooth="yes"/>
    </contour>
  </outline>
</glyph>
<glyph name="guillemotleft" format="1">
  <advance width="523"/>
  <unicode hex="00AB"/>
  <outline>
    <contour>
      <point x="89" y="203"/>
      <point x="187" y="113"/>
      <point x="251" y="50" type="curve"/>
      <point x="280" y="65" type="line"/>
      <point x="129" y="242" type="line"/>
      <point x="282" y="421" type="line"/>
      <point x="250" y="437" type="line"/>
      <point x="235" y="422"/>
      <point x="89" y="288"/>
      <point x="28" y="245" type="curve"/>
    </contour>
    <contour>
      <point x="286" y="203"/>
      <point x="384" y="113"/>
      <point x="448" y="50" type="curve"/>
      <point x="477" y="65" type="line"/>
      <point x="325" y="242" type="line"/>
      <point x="479" y="421" type="line"/>
      <point x="447" y="437" type="line"/>
      <point x="432" y="422"/>
      <point x="286" y="288"/>
      <point x="225" y="245" type="curve"/>
    </contour>
  </outline>
</glyph>
<glyph name="softhyphen" format="1">
  <advance width="270"/>
  <unicode hex="00AD"/>
  <outline>
    <contour>
      <point x="17" y="250" type="line"/>
      <point x="241" y="250" type="line"/>
      <point x="253" y="305" type="line"/>
      <point x="242" y="316" type="line"/>
      <point x="31" y="316" type="line"/>
    </contour>
  </outline>
</glyph>
<glyph name="registered" format="1">
  <advance width="625"/>
  <unicode hex="00AE"/>
  <outline>
    <contour>
      <point x="50" y="371"/>
      <point x="141" y="251"/>
      <point x="315" y="251" type="curve" smooth="yes"/>
      <point x="458" y="251"/>
      <point x="575" y="371"/>
      <point x="575" y="515" type="curve" smooth="yes"/>
      <point x="575" y="658"/>
      <point x="481" y="779"/>
      <point x="315" y="779" type="curve" smooth="yes"/>
      <point x="170" y="779"/>
      <point x="50" y="658"/>
      <point x="50" y="515" type="curve" smooth="yes"/>
    </contour>
    <contour>
      <point x="97" y="636"/>
      <point x="191" y="742"/>
      <point x="315" y="742" type="curve" smooth="yes"/>
      <point x="447" y="742"/>
      <point x="532" y="636"/>
      <point x="532" y="515" type="curve" smooth="yes"/>
      <point x="532" y="394"/>
      <point x="442" y="287"/>
      <point x="315" y="287" type="curve" smooth="yes"/>
      <point x="183" y="287"/>
      <point x="97" y="388"/>
      <point x="97" y="515" type="curve" smooth="yes"/>
    </contour>
    <contour>
      <point x="179" y="372" type="line"/>
      <point x="191" y="373"/>
      <point x="216" y="373"/>
      <point x="240" y="373" type="curve" smooth="yes"/>
      <point x="263" y="373"/>
      <point x="289" y="373"/>
      <point x="301" y="372" type="curve"/>
      <point x="301" y="390" type="line"/>
      <point x="278" y="391"/>
      <point x="261" y="393"/>
      <point x="261" y="408" type="curve" smooth="yes"/>
      <point x="261" y="410"/>
      <point x="261" y="464"/>
      <point x="262" y="520" type="curve"/>
      <point x="274" y="516"/>
      <point x="291" y="515"/>
      <point x="306" y="515" type="curve" smooth="yes"/>
      <point x="318" y="515" type="line"/>
      <point x="395" y="370" type="line"/>
      <point x="420" y="372"/>
      <point x="435" y="372"/>
      <point x="459" y="372" type="curve"/>
      <point x="459" y="387" type="line"/>
      <point x="435" y="396" type="line"/>
      <point x="403" y="442"/>
      <point x="356" y="525"/>
      <point x="356" y="525" type="curve"/>
      <point x="390" y="545"/>
      <point x="410" y="561"/>
      <point x="410" y="598" type="curve" smooth="yes"/>
      <point x="410" y="643"/>
      <point x="374" y="670"/>
      <point x="337" y="670" type="curve" smooth="yes"/>
      <point x="328" y="670" type="line" smooth="yes"/>
      <point x="310" y="670"/>
      <point x="302" y="666"/>
      <point x="240" y="666" type="curve" smooth="yes"/>
      <point x="215" y="666"/>
      <point x="191" y="666"/>
      <point x="179" y="667" type="curve"/>
      <point x="179" y="649" type="line"/>
      <point x="185" y="648" type="line"/>
      <point x="205" y="647"/>
      <point x="215" y="645"/>
      <point x="215" y="633" type="curve"/>
      <point x="218" y="553"/>
      <point x="218" y="411"/>
      <point x="218" y="408" type="curve" smooth="yes"/>
      <point x="218" y="393"/>
      <point x="201" y="391"/>
      <point x="179" y="390" type="curve"/>
    </contour>
    <contour>
      <point x="263" y="583"/>
      <point x="264" y="619"/>
      <point x="264" y="638" type="curve"/>
      <point x="269" y="642" type="line"/>
      <point x="279" y="646"/>
      <point x="310" y="647"/>
      <point x="322" y="647" type="curve" smooth="yes"/>
      <point x="328" y="647"/>
      <point x="364" y="639"/>
      <point x="364" y="593" type="curve" smooth="yes"/>
      <point x="364" y="570"/>
      <point x="353" y="537"/>
      <point x="309" y="537" type="curve" smooth="yes"/>
      <point x="289" y="537"/>
      <point x="271" y="539"/>
      <point x="263" y="544" type="curve"/>
    </contour>
  </outline>
</glyph>
<glyph name="macron" format="1">
  <advance width="500"/>
  <unicode hex="00AF"/>
  <outline>
    <contour>
      <point x="125" y="602" type="line"/>
      <point x="363" y="602" type="line"/>
      <point x="375" y="663" type="line"/>
      <point x="138" y="663" type="line"/>
    </contour>
  </outline>
</glyph>
<glyph name="degree" format="1">
  <advance width="310"/>
  <unicode hex="00B0"/>
  <outline>
    <contour>
      <point x="40" y="460"/>
      <point x="105" y="442"/>
      <point x="149" y="442" type="curve" smooth="yes"/>
      <point x="168" y="442"/>
      <point x="185" y="445"/>
      <point x="200" y="451" type="curve" smooth="yes"/>
      <point x="230" y="463"/>
      <point x="262" y="499"/>
      <point x="265" y="503" type="curve"/>
      <point x="275" y="514"/>
      <point x="295" y="542"/>
      <point x="295" y="607" type="curve" smooth="yes"/>
      <point x="295" y="685"/>
      <point x="238" y="714"/>
      <point x="183" y="714" type="curve" smooth="yes"/>
      <point x="152" y="714"/>
      <point x="89" y="687"/>
      <point x="67" y="658" type="curve" smooth="yes"/>
      <point x="56" y="644"/>
      <point x="40" y="614"/>
      <point x="40" y="566" type="curve" smooth="yes"/>
    </contour>
    <contour>
      <point x="92" y="669"/>
      <point x="124" y="678"/>
      <point x="164" y="678" type="curve" smooth="yes"/>
      <point x="230" y="678"/>
      <point x="244" y="641"/>
      <point x="244" y="598" type="curve" smooth="yes"/>
      <point x="244" y="539"/>
      <point x="231" y="491"/>
      <point x="200" y="480" type="curve"/>
      <point x="195" y="479"/>
      <point x="185" y="478"/>
      <point x="176" y="478" type="curve" smooth="yes"/>
      <point x="126" y="478"/>
      <point x="92" y="498"/>
      <point x="92" y="571" type="curve" smooth="yes"/>
    </contour>
  </outline>
</glyph>
<glyph name="plusminus" format="1">
  <advance width="480"/>
  <unicode hex="00B1"/>
  <outline>
    <contour>
      <point x="11" y="275" type="line"/>
      <point x="208" y="275" type="line"/>
      <point x="208" y="103" type="line"/>
      <point x="274" y="117" type="line"/>
      <point x="275" y="275" type="line"/>
      <point x="459" y="275" type="line"/>
      <point x="472" y="330" type="line"/>
      <point x="460" y="341" type="line"/>
      <point x="274" y="341" type="line"/>
      <point x="275" y="502" type="line"/>
      <point x="264" y="514" type="line"/>
      <point x="208" y="501" type="line"/>
      <point x="208" y="341" type="line"/>
      <point x="25" y="341" type="line"/>
    </contour>
    <contour>
      <point x="11" y="0" type="line"/>
      <point x="459" y="0" type="line"/>
      <point x="472" y="55" type="line"/>
      <point x="460" y="66" type="line"/>
      <point x="25" y="66" type="line"/>
    </contour>
  </outline>
</glyph>
<glyph name="acute" format="1">
  <advance width="500"/>
  <unicode hex="00B4"/>
  <outline>
    <contour>
      <point x="162" y="558" type="line"/>
      <point x="218" y="595"/>
      <point x="318" y="679"/>
      <point x="356" y="714" type="curve"/>
      <point x="354" y="738"/>
      <point x="326" y="759"/>
      <point x="298" y="759" type="curve"/>
      <point x="266" y="719"/>
      <point x="198" y="635"/>
      <point x="144" y="579" type="curve"/>
    </contour>
  </outline>
</glyph>
<glyph name="paragraph" format="1">
  <advance width="480"/>
  <unicode hex="00B6"/>
  <outline>
    <contour>
      <point x="30" y="388"/>
      <point x="182" y="348"/>
      <point x="241" y="348" type="curve" smooth="yes"/>
      <point x="270" y="348" type="line"/>
      <point x="270" y="-170" type="line"/>
      <point x="305" y="-170" type="line"/>
      <point x="305" y="703" type="line"/>
      <point x="383" y="703" type="line"/>
      <point x="383" y="-170" type="line"/>
      <point x="419" y="-170" type="line"/>
      <point x="419" y="738" type="line"/>
      <point x="290" y="738" type="line" smooth="yes"/>
      <point x="156" y="737"/>
      <point x="30" y="734"/>
      <point x="30" y="550" type="curve" smooth="yes"/>
    </contour>
  </outline>
</glyph>
<glyph name="periodcentered" format="1">
  <advance width="250"/>
  <unicode hex="00B7"/>
  <outline>
    <contour>
      <point x="63" y="294"/>
      <point x="90" y="208"/>
      <point x="111" y="208" type="curve" smooth="yes"/>
      <point x="135" y="208"/>
      <point x="177" y="257"/>
      <point x="177" y="278" type="curve" smooth="yes"/>
      <point x="177" y="292"/>
      <point x="140" y="366"/>
      <point x="115" y="366" type="curve" smooth="yes"/>
      <point x="89" y="366"/>
      <point x="63" y="314"/>
      <point x="63" y="302" type="curve" smooth="yes"/>
    </contour>
  </outline>
</glyph>
<glyph name="cedilla" format="1">
  <advance width="500"/>
  <unicode hex="00B8"/>
  <outline>
    <contour>
      <point x="178" y="-206" type="line"/>
      <point x="201" y="-205"/>
      <point x="243" y="-203"/>
      <point x="265" y="-199" type="curve"/>
      <point x="297" y="-184"/>
      <point x="324" y="-169"/>
      <point x="324" y="-119" type="curve" smooth="yes"/>
      <point x="324" y="-73"/>
      <point x="279" y="-52"/>
      <point x="234" y="-43" type="curve"/>
      <point x="244" y="6" type="line"/>
      <point x="220" y="8" type="line"/>
      <point x="189" y="-80" type="line"/>
      <point x="201" y="-91" type="line"/>
      <point x="247" y="-93"/>
      <point x="274" y="-111"/>
      <point x="274" y="-129" type="curve" smooth="yes"/>
      <point x="274" y="-149"/>
      <point x="243" y="-168"/>
      <point x="176" y="-168" type="curve"/>
    </contour>
  </outline>
</glyph>
<glyph name="ordmasculine" format="1">
  <advance width="350"/>
  <unicode hex="00BA"/>
  <outline>
    <contour>
      <point x="40" y="455"/>
      <point x="117" y="434"/>
      <point x="167" y="434" type="curve" smooth="yes"/>
      <point x="189" y="434"/>
      <point x="207" y="437"/>
      <point x="223" y="444" type="curve" smooth="yes"/>
      <point x="255" y="457"/>
      <point x="289" y="496"/>
      <point x="292" y="501" type="curve"/>
      <point x="312" y="528"/>
      <point x="319" y="558"/>
      <point x="319" y="606" type="curve" smooth="yes"/>
      <point x="319" y="699"/>
      <point x="252" y="733"/>
      <point x="189" y="733" type="curve" smooth="yes"/>
      <point x="155" y="733"/>
      <point x="87" y="704"/>
      <point x="65" y="672" type="curve" smooth="yes"/>
      <point x="55" y="658"/>
      <point x="40" y="625"/>
      <point x="40" y="587" type="curve" smooth="yes"/>
    </contour>
    <contour>
      <point x="98" y="694"/>
      <point x="134" y="694"/>
      <point x="171" y="694" type="curve" smooth="yes"/>
      <point x="183" y="694"/>
      <point x="194" y="693"/>
      <point x="203" y="690" type="curve"/>
      <point x="248" y="678"/>
      <point x="264" y="653"/>
      <point x="264" y="591" type="curve" smooth="yes"/>
      <point x="264" y="507"/>
      <point x="241" y="483"/>
      <point x="222" y="476" type="curve" smooth="yes"/>
      <point x="216" y="474"/>
      <point x="205" y="474"/>
      <point x="195" y="474" type="curve" smooth="yes"/>
      <point x="137" y="474"/>
      <point x="98" y="498"/>
      <point x="98" y="591" type="curve" smooth="yes"/>
    </contour>
  </outline>
</glyph>
<glyph name="guillemotright" format="1">
  <advance width="523"/>
  <unicode hex="00BB"/>
  <outline>
    <contour>
      <point x="45" y="421" type="line"/>
      <point x="198" y="242" type="line"/>
      <point x="46" y="65" type="line"/>
      <point x="75" y="50" type="line"/>
      <point x="140" y="113"/>
      <point x="238" y="203"/>
      <point x="298" y="245" type="curve"/>
      <point x="238" y="288"/>
      <point x="91" y="422"/>
      <point x="77" y="437" type="curve"/>
    </contour>
    <contour>
      <point x="242" y="421" type="line"/>
      <point x="395" y="242" type="line"/>
      <point x="243" y="65" type="line"/>
      <point x="272" y="50" type="line"/>
      <point x="337" y="113"/>
      <point x="435" y="203"/>
      <point x="495" y="245" type="curve"/>
      <point x="435" y="288"/>
      <point x="288" y="422"/>
      <point x="273" y="437" type="curve"/>
    </contour>
  </outline>
</glyph>
<glyph name="questiondown" format="1">
  <advance width="445"/>
  <unicode hex="00BF"/>
  <outline>
    <contour>
      <point x="56" y="196"/>
      <point x="61" y="157"/>
      <point x="69" y="117" type="curve"/>
      <point x="71" y="109"/>
      <point x="137" y="-10"/>
      <point x="265" y="-10" type="curve" smooth="yes"/>
      <point x="369" y="-10"/>
      <point x="386" y="6"/>
      <point x="386" y="51" type="curve" smooth="yes"/>
      <point x="386" y="74"/>
      <point x="384" y="104"/>
      <point x="382" y="144" type="curve"/>
      <point x="357" y="144" type="line"/>
      <point x="346" y="102"/>
      <point x="360" y="52"/>
      <point x="228" y="52" type="curve" smooth="yes"/>
      <point x="176" y="52"/>
      <point x="152" y="72"/>
      <point x="143" y="131" type="curve" smooth="yes"/>
      <point x="138" y="165"/>
      <point x="134" y="196"/>
      <point x="134" y="224" type="curve" smooth="yes"/>
      <point x="134" y="309"/>
      <point x="166" y="359"/>
      <point x="263" y="359" type="curve" smooth="yes"/>
      <point x="285" y="359"/>
      <point x="323" y="348"/>
      <point x="371" y="307" type="curve"/>
      <point x="360" y="515" type="line"/>
      <point x="327" y="521" type="line"/>
      <point x="323" y="500"/>
      <point x="318" y="449"/>
      <point x="313" y="402" type="curve"/>
      <point x="290" y="418"/>
      <point x="263" y="429"/>
      <point x="230" y="429" type="curve" smooth="yes"/>
      <point x="100" y="429"/>
      <point x="56" y="344"/>
      <point x="56" y="232" type="curve" smooth="yes"/>
    </contour>
    <contour>
      <point x="286" y="643"/>
      <point x="323" y="569"/>
      <point x="348" y="569" type="curve" smooth="yes"/>
      <point x="374" y="569"/>
      <point x="400" y="621"/>
      <point x="400" y="633" type="curve" smooth="yes"/>
      <point x="400" y="641"/>
      <point x="373" y="727"/>
      <point x="352" y="727" type="curve" smooth="yes"/>
      <point x="328" y="727"/>
      <point x="286" y="678"/>
      <point x="286" y="657" type="curve" smooth="yes"/>
    </contour>
  </outline>
</glyph>
<glyph name="Acircumflex" format="1">
  <advance width="755"/>
  <unicode hex="00C2"/>
  <outline>
    <contour>
      <point x="281" y="793" type="line"/>
      <point x="381" y="863" type="line"/>
      <point x="484" y="795" type="line"/>
      <point x="503" y="812" type="line"/>
      <point x="464" y="854"/>
      <point x="444" y="877"/>
      <point x="405" y="934" type="curve"/>
      <point x="365" y="934" type="line"/>
      <point x="330" y="886"/>
      <point x="309" y="859"/>
      <point x="263" y="811" type="curve"/>
    </contour>
    <contour>
      <point x="0" y="0" type="line"/>
      <point x="236" y="0" type="line"/>
      <point x="236" y="39" type="line"/>
      <point x="193" y="43"/>
      <point x="146" y="50"/>
      <point x="146" y="83" type="curve" smooth="yes"/>
      <point x="146" y="98"/>
      <point x="186" y="200"/>
      <point x="208" y="249" type="curve"/>
      <point x="497" y="249" type="line"/>
      <point x="504" y="230"/>
      <point x="511" y="213"/>
      <point x="518" y="197" type="curve" smooth="yes"/>
      <point x="537" y="153" type="line" smooth="yes"/>
      <point x="550" y="123"/>
      <point x="558" y="98"/>
      <point x="558" y="78" type="curve" smooth="yes"/>
      <point x="558" y="45"/>
      <point x="505" y="37"/>
      <point x="469" y="34" type="curve"/>
      <point x="469" y="0" type="line"/>
      <point x="755" y="0" type="line"/>
      <point x="755" y="36" type="line"/>
      <point x="705" y="43"/>
      <point x="689" y="68"/>
      <point x="673" y="96" type="curve"/>
      <point x="666" y="110"/>
      <point x="410" y="743"/>
      <point x="410" y="743" type="curve" smooth="yes"/>
      <point x="403" y="743"/>
      <point x="353" y="738"/>
      <point x="342" y="730" type="curve"/>
      <point x="134" y="210" type="line" smooth="yes"/>
      <point x="71" y="53"/>
      <point x="60" y="42"/>
      <point x="0" y="36" type="curve"/>
    </contour>
    <contour>
      <point x="222" y="292" type="line"/>
      <point x="351" y="621" type="line"/>
      <point x="484" y="292" type="line"/>
    </contour>
  </outline>
</glyph>
<glyph name="Atilde" format="1">
  <advance width="755"/>
  <unicode hex="00C3"/>
  <outline>
    <contour>
      <point x="231" y="816" type="line"/>
      <point x="251" y="835"/>
      <point x="286" y="862"/>
      <point x="310" y="869" type="curve"/>
      <point x="348" y="869"/>
      <point x="402" y="816"/>
      <point x="436" y="816" type="curve" smooth="yes"/>
      <point x="456" y="816"/>
      <point x="517" y="879"/>
      <point x="536" y="907" type="curve"/>
      <point x="521" y="919" type="line"/>
      <point x="501" y="900"/>
      <point x="478" y="883"/>
      <point x="454" y="876" type="curve"/>
      <point x="387" y="894"/>
      <point x="358" y="929"/>
      <point x="328" y="929" type="curve" smooth="yes"/>
      <point x="308" y="929"/>
      <point x="237" y="858"/>
      <point x="218" y="830" type="curve"/>
    </contour>
    <contour>
      <point x="0" y="0" type="line"/>
      <point x="236" y="0" type="line"/>
      <point x="236" y="39" type="line"/>
      <point x="193" y="43"/>
      <point x="146" y="50"/>
      <point x="146" y="83" type="curve" smooth="yes"/>
      <point x="146" y="98"/>
      <point x="186" y="200"/>
      <point x="208" y="249" type="curve"/>
      <point x="497" y="249" type="line"/>
      <point x="504" y="230"/>
      <point x="511" y="213"/>
      <point x="518" y="197" type="curve" smooth="yes"/>
      <point x="537" y="153" type="line" smooth="yes"/>
      <point x="550" y="123"/>
      <point x="558" y="98"/>
      <point x="558" y="78" type="curve" smooth="yes"/>
      <point x="558" y="45"/>
      <point x="505" y="37"/>
      <point x="469" y="34" type="curve"/>
      <point x="469" y="0" type="line"/>
      <point x="755" y="0" type="line"/>
      <point x="755" y="36" type="line"/>
      <point x="705" y="43"/>
      <point x="689" y="68"/>
      <point x="673" y="96" type="curve"/>
      <point x="666" y="110"/>
      <point x="410" y="743"/>
      <point x="410" y="743" type="curve" smooth="yes"/>
      <point x="403" y="743"/>
      <point x="353" y="738"/>
      <point x="342" y="730" type="curve"/>
      <point x="134" y="210" type="line" smooth="yes"/>
      <point x="71" y="53"/>
      <point x="60" y="42"/>
      <point x="0" y="36" type="curve"/>
    </contour>
    <contour>
      <point x="222" y="292" type="line"/>
      <point x="351" y="621" type="line"/>
      <point x="484" y="292" type="line"/>
    </contour>
  </outline>
</glyph>
<glyph name="Adieresis" format="1">
  <advance width="755"/>
  <unicode hex="00C4"/>
  <outline>
    <contour>
      <point x="231" y="860"/>
      <point x="265" y="812"/>
      <point x="286" y="812" type="curve" smooth="yes"/>
      <point x="307" y="812"/>
      <point x="344" y="850"/>
      <point x="344" y="884" type="curve" smooth="yes"/>
      <point x="344" y="920"/>
      <point x="300" y="945"/>
      <point x="286" y="945" type="curve" smooth="yes"/>
      <point x="252" y="945"/>
      <point x="231" y="880"/>
      <point x="231" y="873" type="curve" smooth="yes"/>
    </contour>
    <contour>
      <point x="418" y="860"/>
      <point x="452" y="812"/>
      <point x="473" y="812" type="curve" smooth="yes"/>
      <point x="494" y="812"/>
      <point x="532" y="850"/>
      <point x="532" y="884" type="curve" smooth="yes"/>
      <point x="532" y="920"/>
      <point x="488" y="945"/>
      <point x="473" y="945" type="curve" smooth="yes"/>
      <point x="440" y="945"/>
      <point x="418" y="880"/>
      <point x="418" y="873" type="curve" smooth="yes"/>
    </contour>
    <contour>
      <point x="0" y="0" type="line"/>
      <point x="236" y="0" type="line"/>
      <point x="236" y="39" type="line"/>
      <point x="193" y="43"/>
      <point x="146" y="50"/>
      <point x="146" y="83" type="curve" smooth="yes"/>
      <point x="146" y="98"/>
      <point x="186" y="200"/>
      <point x="208" y="249" type="curve"/>
      <point x="497" y="249" type="line"/>
      <point x="504" y="230"/>
      <point x="511" y="213"/>
      <point x="518" y="197" type="curve" smooth="yes"/>
      <point x="537" y="153" type="line" smooth="yes"/>
      <point x="550" y="123"/>
      <point x="558" y="98"/>
      <point x="558" y="78" type="curve" smooth="yes"/>
      <point x="558" y="45"/>
      <point x="505" y="37"/>
      <point x="469" y="34" type="curve"/>
      <point x="469" y="0" type="line"/>
      <point x="755" y="0" type="line"/>
      <point x="755" y="36" type="line"/>
      <point x="705" y="43"/>
      <point x="689" y="68"/>
      <point x="673" y="96" type="curve"/>
      <point x="666" y="110"/>
      <point x="410" y="743"/>
      <point x="410" y="743" type="curve" smooth="yes"/>
      <point x="403" y="743"/>
      <point x="353" y="738"/>
      <point x="342" y="730" type="curve"/>
      <point x="134" y="210" type="line" smooth="yes"/>
      <point x="71" y="53"/>
      <point x="60" y="42"/>
      <point x="0" y="36" type="curve"/>
    </contour>
    <contour>
      <point x="222" y="292" type="line"/>
      <point x="351" y="621" type="line"/>
      <point x="484" y="292" type="line"/>
    </contour>
  </outline>
</glyph>
<glyph name="Aring" format="1">
  <advance width="755"/>
  <unicode hex="00C5"/>
  <outline>
    <contour>
      <point x="292" y="805"/>
      <point x="338" y="792"/>
      <point x="369" y="792" type="curve" smooth="yes"/>
      <point x="382" y="792"/>
      <point x="392" y="794"/>
      <point x="402" y="798" type="curve" smooth="yes"/>
      <point x="421" y="806"/>
      <point x="442" y="830"/>
      <point x="444" y="832" type="curve"/>
      <point x="456" y="849"/>
      <point x="460" y="866"/>
      <point x="460" y="895" type="curve" smooth="yes"/>
      <point x="460" y="951"/>
      <point x="420" y="972"/>
      <point x="382" y="972" type="curve" smooth="yes"/>
      <point x="361" y="972"/>
      <point x="321" y="954"/>
      <point x="307" y="935" type="curve"/>
      <point x="301" y="926"/>
      <point x="292" y="907"/>
      <point x="292" y="884" type="curve" smooth="yes"/>
    </contour>
    <contour>
      <point x="334" y="939"/>
      <point x="352" y="939"/>
      <point x="371" y="939" type="curve" smooth="yes"/>
      <point x="378" y="939"/>
      <point x="383" y="938"/>
      <point x="388" y="937" type="curve"/>
      <point x="411" y="930"/>
      <point x="420" y="918"/>
      <point x="420" y="885" type="curve" smooth="yes"/>
      <point x="420" y="842"/>
      <point x="408" y="830"/>
      <point x="398" y="826" type="curve"/>
      <point x="395" y="825"/>
      <point x="389" y="825"/>
      <point x="384" y="825" type="curve" smooth="yes"/>
      <point x="354" y="825"/>
      <point x="334" y="837"/>
      <point x="334" y="886" type="curve" smooth="yes"/>
    </contour>
    <contour>
      <point x="0" y="0" type="line"/>
      <point x="236" y="0" type="line"/>
      <point x="236" y="39" type="line"/>
      <point x="193" y="43"/>
      <point x="146" y="50"/>
      <point x="146" y="83" type="curve" smooth="yes"/>
      <point x="146" y="98"/>
      <point x="186" y="200"/>
      <point x="208" y="249" type="curve"/>
      <point x="497" y="249" type="line"/>
      <point x="504" y="230"/>
      <point x="511" y="213"/>
      <point x="518" y="197" type="curve" smooth="yes"/>
      <point x="537" y="153" type="line" smooth="yes"/>
      <point x="550" y="123"/>
      <point x="558" y="98"/>
      <point x="558" y="78" type="curve" smooth="yes"/>
      <point x="558" y="45"/>
      <point x="505" y="37"/>
      <point x="469" y="34" type="curve"/>
      <point x="469" y="0" type="line"/>
      <point x="755" y="0" type="line"/>
      <point x="755" y="36" type="line"/>
      <point x="705" y="43"/>
      <point x="689" y="68"/>
      <point x="673" y="96" type="curve"/>
      <point x="666" y="110"/>
      <point x="410" y="743"/>
      <point x="410" y="743" type="curve" smooth="yes"/>
      <point x="403" y="743"/>
      <point x="353" y="738"/>
      <point x="342" y="730" type="curve"/>
      <point x="134" y="210" type="line" smooth="yes"/>
      <point x="71" y="53"/>
      <point x="60" y="42"/>
      <point x="0" y="36" type="curve"/>
    </contour>
    <contour>
      <point x="222" y="292" type="line"/>
      <point x="351" y="621" type="line"/>
      <point x="484" y="292" type="line"/>
    </contour>
  </outline>
</glyph>
<glyph name="AE" format="1">
  <advance width="1033"/>
  <unicode hex="00C6"/>
  <outline>
    <contour>
      <point x="0" y="0" type="line"/>
      <point x="236" y="0" type="line"/>
      <point x="236" y="39" type="line"/>
      <point x="195" y="43"/>
      <point x="157" y="49"/>
      <point x="157" y="77" type="curve" smooth="yes"/>
      <point x="157" y="101"/>
      <point x="247" y="246"/>
      <point x="249" y="249" type="curve"/>
      <point x="515" y="249" type="line"/>
      <point x="514" y="167"/>
      <point x="513" y="103"/>
      <point x="513" y="83" type="curve" smooth="yes"/>
      <point x="512" y="45"/>
      <point x="472" y="40"/>
      <point x="423" y="37" type="curve"/>
      <point x="423" y="0" type="line"/>
      <point x="982" y="0" type="line"/>
      <point x="982" y="10"/>
      <point x="988" y="191"/>
      <point x="991" y="232" type="curve"/>
      <point x="954" y="232" type="line"/>
      <point x="940" y="178" type="line" smooth="yes"/>
      <point x="930" y="140"/>
      <point x="915" y="78"/>
      <point x="889" y="56" type="curve" smooth="yes"/>
      <point x="878" y="47"/>
      <point x="811" y="44"/>
      <point x="784" y="44" type="curve" smooth="yes"/>
      <point x="664" y="44"/>
      <point x="617" y="50"/>
      <point x="617" y="83" type="curve" smooth="yes"/>
      <point x="617" y="92"/>
      <point x="618" y="222"/>
      <point x="619" y="370" type="curve"/>
      <point x="648" y="367"/>
      <point x="798" y="374"/>
      <point x="839" y="344" type="curve"/>
      <point x="857" y="344" type="line"/>
      <point x="867" y="418" type="line"/>
      <point x="846" y="417"/>
      <point x="680" y="413"/>
      <point x="620" y="413" type="curve"/>
      <point x="621" y="499"/>
      <point x="622" y="593"/>
      <point x="624" y="651" type="curve" smooth="yes"/>
      <point x="625" y="680"/>
      <point x="650" y="685"/>
      <point x="706" y="685" type="curve" smooth="yes"/>
      <point x="821" y="685"/>
      <point x="838" y="682"/>
      <point x="870" y="676" type="curve"/>
      <point x="879" y="669"/>
      <point x="882" y="660"/>
      <point x="886" y="650" type="curve"/>
      <point x="886" y="648"/>
      <point x="903" y="569"/>
      <point x="907" y="542" type="curve"/>
      <point x="941" y="542" type="line"/>
      <point x="942" y="556"/>
      <point x="966" y="716"/>
      <point x="968" y="727" type="curve"/>
      <point x="956" y="738" type="line"/>
      <point x="956" y="738"/>
      <point x="699" y="737"/>
      <point x="694" y="737" type="curve"/>
      <point x="663" y="735"/>
      <point x="614" y="734"/>
      <point x="568" y="734" type="curve" smooth="yes"/>
      <point x="516" y="734"/>
      <point x="391" y="736"/>
      <point x="364" y="738" type="curve"/>
      <point x="364" y="701" type="line"/>
      <point x="378" y="700" type="line" smooth="yes"/>
      <point x="418" y="697"/>
      <point x="434" y="698"/>
      <point x="434" y="684" type="curve" smooth="yes"/>
      <point x="434" y="678"/>
      <point x="430" y="673"/>
      <point x="430" y="673" type="curve"/>
      <point x="167" y="210" type="line" smooth="yes"/>
      <point x="76" y="53"/>
      <point x="60" y="42"/>
      <point x="0" y="36" type="curve"/>
    </contour>
    <contour>
      <point x="270" y="292" type="line"/>
      <point x="485" y="671" type="line"/>
      <point x="488" y="678"/>
      <point x="493" y="681"/>
      <point x="497" y="681" type="curve" smooth="yes"/>
      <point x="505" y="681"/>
      <point x="512" y="671"/>
      <point x="513" y="661" type="curve"/>
      <point x="515" y="588"/>
      <point x="516" y="499"/>
      <point x="516" y="413" type="curve" smooth="yes"/>
      <point x="516" y="371"/>
      <point x="516" y="330"/>
      <point x="515" y="292" type="curve"/>
    </contour>
  </outline>
</glyph>
<glyph name="Ccedilla" format="1">
  <advance width="728"/>
  <unicode hex="00C7"/>
  <outline>
    <contour>
      <point x="73" y="104"/>
      <point x="188" y="5"/>
      <point x="347" y="-13" type="curve"/>
      <point x="323" y="-80" type="line"/>
      <point x="335" y="-91" type="line"/>
      <point x="381" y="-93"/>
      <point x="408" y="-111"/>
      <point x="408" y="-129" type="curve" smooth="yes"/>
      <point x="408" y="-149"/>
      <point x="377" y="-168"/>
      <point x="310" y="-168" type="curve"/>
      <point x="313" y="-206" type="line"/>
      <point x="336" y="-205"/>
      <point x="378" y="-203"/>
      <point x="400" y="-199" type="curve"/>
      <point x="431" y="-184"/>
      <point x="459" y="-169"/>
      <point x="459" y="-119" type="curve" smooth="yes"/>
      <point x="459" y="-73"/>
      <point x="413" y="-52"/>
      <point x="369" y="-43" type="curve"/>
      <point x="374" y="-16" type="line"/>
      <point x="437" y="-16" type="line"/>
      <point x="520" y="-11"/>
      <point x="597" y="12"/>
      <point x="655" y="33" type="curve"/>
      <point x="655" y="43"/>
      <point x="655" y="191"/>
      <point x="659" y="232" type="curve"/>
      <point x="622" y="232" type="line"/>
      <point x="608" y="178" type="line" smooth="yes"/>
      <point x="598" y="140"/>
      <point x="583" y="96"/>
      <point x="579" y="89" type="curve"/>
      <point x="539" y="58"/>
      <point x="489" y="38"/>
      <point x="432" y="38" type="curve" smooth="yes"/>
      <point x="380" y="38"/>
      <point x="338" y="53"/>
      <point x="307" y="72" type="curve" smooth="yes"/>
      <point x="178" y="150"/>
      <point x="173" y="299"/>
      <point x="173" y="362" type="curve" smooth="yes"/>
      <point x="173" y="605"/>
      <point x="217" y="690"/>
      <point x="413" y="690" type="curve" smooth="yes"/>
      <point x="457" y="690"/>
      <point x="503" y="686"/>
      <point x="561" y="671" type="curve"/>
      <point x="572" y="663"/>
      <point x="583" y="635"/>
      <point x="611" y="536" type="curve"/>
      <point x="645" y="536" type="line"/>
      <point x="646" y="550"/>
      <point x="655" y="702"/>
      <point x="655" y="712" type="curve"/>
      <point x="643" y="723" type="line"/>
      <point x="612" y="740"/>
      <point x="533" y="752"/>
      <point x="461" y="752" type="curve" smooth="yes"/>
      <point x="421" y="752"/>
      <point x="373" y="749"/>
      <point x="344" y="745" type="curve" smooth="yes"/>
      <point x="216" y="728"/>
      <point x="129" y="621"/>
      <point x="108" y="572" type="curve" smooth="yes"/>
      <point x="84" y="516"/>
      <point x="73" y="446"/>
      <point x="73" y="366" type="curve" smooth="yes"/>
    </contour>
  </outline>
</glyph>
<glyph name="Igrave" format="1">
  <advance width="335"/>
  <unicode hex="00CC"/>
  <outline>
    <contour>
      <point x="7" y="923" type="line"/>
      <point x="50" y="895"/>
      <point x="163" y="830"/>
      <point x="225" y="803" type="curve"/>
      <point x="238" y="827" type="line"/>
      <point x="176" y="872"/>
      <point x="94" y="943"/>
      <point x="56" y="977" type="curve"/>
      <point x="30" y="973"/>
      <point x="7" y="949"/>
      <point x="7" y="927" type="curve" smooth="yes"/>
    </contour>
    <contour>
      <point x="29" y="0" type="line"/>
      <point x="306" y="0" type="line"/>
      <point x="306" y="37" type="line"/>
      <point x="254" y="41"/>
      <point x="216" y="46"/>
      <point x="216" y="83" type="curve" smooth="yes"/>
      <point x="216" y="92"/>
      <point x="218" y="518"/>
      <point x="223" y="661" type="curve" smooth="yes"/>
      <point x="224" y="693"/>
      <point x="245" y="697"/>
      <point x="292" y="700" type="curve" smooth="yes"/>
      <point x="306" y="701" type="line"/>
      <point x="306" y="738" type="line"/>
      <point x="29" y="738" type="line"/>
      <point x="29" y="701" type="line"/>
      <point x="43" y="700" type="line" smooth="yes"/>
      <point x="90" y="697"/>
      <point x="111" y="693"/>
      <point x="112" y="661" type="curve" smooth="yes"/>
      <point x="118" y="462"/>
      <point x="119" y="91"/>
      <point x="119" y="83" type="curve" smooth="yes"/>
      <point x="119" y="45"/>
      <point x="79" y="40"/>
      <point x="29" y="37" type="curve"/>
    </contour>
  </outline>
</glyph>
<glyph name="Iacute" format="1">
  <advance width="335"/>
  <unicode hex="00CD"/>
  <outline>
    <contour>
      <point x="108" y="803" type="line"/>
      <point x="170" y="830"/>
      <point x="283" y="895"/>
      <point x="326" y="923" type="curve"/>
      <point x="326" y="927" type="line" smooth="yes"/>
      <point x="326" y="949"/>
      <point x="303" y="973"/>
      <point x="277" y="977" type="curve"/>
      <point x="239" y="943"/>
      <point x="157" y="872"/>
      <point x="95" y="827" type="curve"/>
    </contour>
    <contour>
      <point x="29" y="0" type="line"/>
      <point x="306" y="0" type="line"/>
      <point x="306" y="37" type="line"/>
      <point x="254" y="41"/>
      <point x="216" y="46"/>
      <point x="216" y="83" type="curve" smooth="yes"/>
      <point x="216" y="92"/>
      <point x="218" y="518"/>
      <point x="223" y="661" type="curve" smooth="yes"/>
      <point x="224" y="693"/>
      <point x="245" y="697"/>
      <point x="292" y="700" type="curve" smooth="yes"/>
      <point x="306" y="701" type="line"/>
      <point x="306" y="738" type="line"/>
      <point x="29" y="738" type="line"/>
      <point x="29" y="701" type="line"/>
      <point x="43" y="700" type="line" smooth="yes"/>
      <point x="90" y="697"/>
      <point x="111" y="693"/>
      <point x="112" y="661" type="curve" smooth="yes"/>
      <point x="118" y="462"/>
      <point x="119" y="91"/>
      <point x="119" y="83" type="curve" smooth="yes"/>
      <point x="119" y="45"/>
      <point x="79" y="40"/>
      <point x="29" y="37" type="curve"/>
    </contour>
  </outline>
</glyph>
<glyph name="Icircumflex" format="1">
  <advance width="335"/>
  <unicode hex="00CE"/>
  <outline>
    <contour>
      <point x="71" y="793" type="line"/>
      <point x="171" y="863" type="line"/>
      <point x="274" y="795" type="line"/>
      <point x="293" y="812" type="line"/>
      <point x="254" y="854"/>
      <point x="234" y="877"/>
      <point x="195" y="934" type="curve"/>
      <point x="155" y="934" type="line"/>
      <point x="120" y="886"/>
      <point x="99" y="859"/>
      <point x="53" y="811" type="curve"/>
    </contour>
    <contour>
      <point x="29" y="0" type="line"/>
      <point x="306" y="0" type="line"/>
      <point x="306" y="37" type="line"/>
      <point x="254" y="41"/>
      <point x="216" y="46"/>
      <point x="216" y="83" type="curve" smooth="yes"/>
      <point x="216" y="92"/>
      <point x="218" y="518"/>
      <point x="223" y="661" type="curve" smooth="yes"/>
      <point x="224" y="693"/>
      <point x="245" y="697"/>
      <point x="292" y="700" type="curve" smooth="yes"/>
      <point x="306" y="701" type="line"/>
      <point x="306" y="738" type="line"/>
      <point x="29" y="738" type="line"/>
      <point x="29" y="701" type="line"/>
      <point x="43" y="700" type="line" smooth="yes"/>
      <point x="90" y="697"/>
      <point x="111" y="693"/>
      <point x="112" y="661" type="curve" smooth="yes"/>
      <point x="118" y="462"/>
      <point x="119" y="91"/>
      <point x="119" y="83" type="curve" smooth="yes"/>
      <point x="119" y="45"/>
      <point x="79" y="40"/>
      <point x="29" y="37" type="curve"/>
    </contour>
  </outline>
</glyph>
<glyph name="Idieresis" format="1">
  <advance width="335"/>
  <unicode hex="00CF"/>
  <outline>
    <contour>
      <point x="21" y="860"/>
      <point x="55" y="812"/>
      <point x="76" y="812" type="curve" smooth="yes"/>
      <point x="97" y="812"/>
      <point x="134" y="850"/>
      <point x="134" y="884" type="curve" smooth="yes"/>
      <point x="134" y="920"/>
      <point x="90" y="945"/>
      <point x="76" y="945" type="curve" smooth="yes"/>
      <point x="42" y="945"/>
      <point x="21" y="880"/>
      <point x="21" y="873" type="curve" smooth="yes"/>
    </contour>
    <contour>
      <point x="208" y="860"/>
      <point x="242" y="812"/>
      <point x="263" y="812" type="curve" smooth="yes"/>
      <point x="284" y="812"/>
      <point x="322" y="850"/>
      <point x="322" y="884" type="curve" smooth="yes"/>
      <point x="322" y="920"/>
      <point x="278" y="945"/>
      <point x="263" y="945" type="curve" smooth="yes"/>
      <point x="230" y="945"/>
      <point x="208" y="880"/>
      <point x="208" y="873" type="curve" smooth="yes"/>
    </contour>
    <contour>
      <point x="29" y="0" type="line"/>
      <point x="306" y="0" type="line"/>
      <point x="306" y="37" type="line"/>
      <point x="254" y="41"/>
      <point x="216" y="46"/>
      <point x="216" y="83" type="curve" smooth="yes"/>
      <point x="216" y="92"/>
      <point x="218" y="518"/>
      <point x="223" y="661" type="curve" smooth="yes"/>
      <point x="224" y="693"/>
      <point x="245" y="697"/>
      <point x="292" y="700" type="curve" smooth="yes"/>
      <point x="306" y="701" type="line"/>
      <point x="306" y="738" type="line"/>
      <point x="29" y="738" type="line"/>
      <point x="29" y="701" type="line"/>
      <point x="43" y="700" type="line" smooth="yes"/>
      <point x="90" y="697"/>
      <point x="111" y="693"/>
      <point x="112" y="661" type="curve" smooth="yes"/>
      <point x="118" y="462"/>
      <point x="119" y="91"/>
      <point x="119" y="83" type="curve" smooth="yes"/>
      <point x="119" y="45"/>
      <point x="79" y="40"/>
      <point x="29" y="37" type="curve"/>
    </contour>
  </outline>
</glyph>
<glyph name="Ntilde" format="1">
  <advance width="777"/>
  <unicode hex="00D1"/>
  <outline>
    <contour>
      <point x="252" y="816" type="line"/>
      <point x="272" y="835"/>
      <point x="307" y="862"/>
      <point x="331" y="869" type="curve"/>
      <point x="369" y="869"/>
      <point x="423" y="816"/>
      <point x="457" y="816" type="curve" smooth="yes"/>
      <point x="477" y="816"/>
      <point x="538" y="879"/>
      <point x="557" y="907" type="curve"/>
      <point x="542" y="919" type="line"/>
      <point x="522" y="900"/>
      <point x="499" y="883"/>
      <point x="475" y="876" type="curve"/>
      <point x="408" y="894"/>
      <point x="379" y="929"/>
      <point x="349" y="929" type="curve" smooth="yes"/>
      <point x="329" y="929"/>
      <point x="258" y="858"/>
      <point x="239" y="830" type="curve"/>
    </contour>
    <contour>
      <point x="15" y="701" type="line"/>
      <point x="65" y="696" type="line" smooth="yes"/>
      <point x="100" y="692"/>
      <point x="106" y="679"/>
      <point x="108" y="667" type="curve"/>
      <point x="108" y="664"/>
      <point x="109" y="551"/>
      <point x="109" y="482" type="curve" smooth="yes"/>
      <point x="109" y="450" type="line" smooth="yes"/>
      <point x="109" y="229"/>
      <point x="107" y="116"/>
      <point x="102" y="80" type="curve" smooth="yes"/>
      <point x="98" y="48"/>
      <point x="62" y="40"/>
      <point x="19" y="36" type="curve"/>
      <point x="19" y="0" type="line"/>
      <point x="255" y="0" type="line"/>
      <point x="255" y="39" type="line"/>
      <point x="211" y="43"/>
      <point x="169" y="50"/>
      <point x="169" y="83" type="curve" smooth="yes"/>
      <point x="169" y="99"/>
      <point x="164" y="290"/>
      <point x="164" y="290" type="curve"/>
      <point x="164" y="597" type="line"/>
      <point x="573" y="75"/>
      <point x="576" y="77"/>
      <point x="626" y="0" type="curve"/>
      <point x="685" y="0" type="line"/>
      <point x="685" y="0"/>
      <point x="683" y="122"/>
      <point x="683" y="164" type="curve" smooth="yes"/>
      <point x="683" y="173"/>
      <point x="686" y="505"/>
      <point x="690" y="644" type="curve"/>
      <point x="690" y="644"/>
      <point x="693" y="670"/>
      <point x="696" y="675" type="curve"/>
      <point x="709" y="694"/>
      <point x="743" y="699"/>
      <point x="777" y="702" type="curve"/>
      <point x="777" y="738" type="line"/>
      <point x="535" y="738" type="line"/>
      <point x="535" y="700" type="line"/>
      <point x="621" y="692"/>
      <point x="624" y="677"/>
      <point x="625" y="634" type="curve" smooth="yes"/>
      <point x="626" y="601"/>
      <point x="629" y="517"/>
      <point x="629" y="467" type="curve" smooth="yes"/>
      <point x="629" y="378"/>
      <point x="632" y="173"/>
      <point x="633" y="159" type="curve"/>
      <point x="389" y="477"/>
      <point x="212" y="714"/>
      <point x="204" y="738" type="curve"/>
      <point x="15" y="738" type="line"/>
    </contour>
  </outline>
</glyph>
<glyph name="Oacute" format="1">
  <advance width="745"/>
  <unicode hex="00D3"/>
  <outline>
    <contour>
      <point x="328" y="803" type="line"/>
      <point x="390" y="830"/>
      <point x="503" y="895"/>
      <point x="546" y="923" type="curve"/>
      <point x="546" y="927" type="line" smooth="yes"/>
      <point x="546" y="949"/>
      <point x="523" y="973"/>
      <point x="497" y="977" type="curve"/>
      <point x="459" y="943"/>
      <point x="377" y="872"/>
      <point x="315" y="827" type="curve"/>
    </contour>
    <contour>
      <point x="42" y="149"/>
      <point x="136" y="-14"/>
      <point x="359" y="-14" type="curve" smooth="yes"/>
      <point x="417" y="-14"/>
      <point x="561" y="16"/>
      <point x="633" y="122" type="curve" smooth="yes"/>
      <point x="696" y="214"/>
      <point x="704" y="340"/>
      <point x="704" y="411" type="curve" smooth="yes"/>
      <point x="704" y="621"/>
      <point x="609" y="751"/>
      <point x="395" y="751" type="curve" smooth="yes"/>
      <point x="338" y="751"/>
      <point x="181" y="722"/>
      <point x="106" y="610" type="curve" smooth="yes"/>
      <point x="69" y="554"/>
      <point x="42" y="472"/>
      <point x="42" y="358" type="curve" smooth="yes"/>
    </contour>
    <contour>
      <point x="144" y="610"/>
      <point x="237" y="689"/>
      <point x="359" y="689" type="curve" smooth="yes"/>
      <point x="376" y="689"/>
      <point x="404" y="689"/>
      <point x="413" y="687" type="curve"/>
      <point x="507" y="673"/>
      <point x="601" y="596"/>
      <point x="601" y="351" type="curve" smooth="yes"/>
      <point x="601" y="128"/>
      <point x="522" y="52"/>
      <point x="405" y="52" type="curve" smooth="yes"/>
      <point x="357" y="52"/>
      <point x="327" y="54"/>
      <point x="285" y="75" type="curve" smooth="yes"/>
      <point x="144" y="147"/>
      <point x="144" y="345"/>
      <point x="144" y="379" type="curve" smooth="yes"/>
    </contour>
  </outline>
</glyph>
<glyph name="Ocircumflex" format="1">
  <advance width="745"/>
  <unicode hex="00D4"/>
  <outline>
    <contour>
      <point x="291" y="793" type="line"/>
      <point x="391" y="863" type="line"/>
      <point x="494" y="795" type="line"/>
      <point x="513" y="812" type="line"/>
      <point x="474" y="854"/>
      <point x="454" y="877"/>
      <point x="415" y="934" type="curve"/>
      <point x="375" y="934" type="line"/>
      <point x="340" y="886"/>
      <point x="319" y="859"/>
      <point x="273" y="811" type="curve"/>
    </contour>
    <contour>
      <point x="42" y="149"/>
      <point x="136" y="-14"/>
      <point x="359" y="-14" type="curve" smooth="yes"/>
      <point x="417" y="-14"/>
      <point x="561" y="16"/>
      <point x="633" y="122" type="curve" smooth="yes"/>
      <point x="696" y="214"/>
      <point x="704" y="340"/>
      <point x="704" y="411" type="curve" smooth="yes"/>
      <point x="704" y="621"/>
      <point x="609" y="751"/>
      <point x="395" y="751" type="curve" smooth="yes"/>
      <point x="338" y="751"/>
      <point x="181" y="722"/>
      <point x="106" y="610" type="curve" smooth="yes"/>
      <point x="69" y="554"/>
      <point x="42" y="472"/>
      <point x="42" y="358" type="curve" smooth="yes"/>
    </contour>
    <contour>
      <point x="144" y="610"/>
      <point x="237" y="689"/>
      <point x="359" y="689" type="curve" smooth="yes"/>
      <point x="376" y="689"/>
      <point x="404" y="689"/>
      <point x="413" y="687" type="curve"/>
      <point x="507" y="673"/>
      <point x="601" y="596"/>
      <point x="601" y="351" type="curve" smooth="yes"/>
      <point x="601" y="128"/>
      <point x="522" y="52"/>
      <point x="405" y="52" type="curve" smooth="yes"/>
      <point x="357" y="52"/>
      <point x="327" y="54"/>
      <point x="285" y="75" type="curve" smooth="yes"/>
      <point x="144" y="147"/>
      <point x="144" y="345"/>
      <point x="144" y="379" type="curve" smooth="yes"/>
    </contour>
  </outline>
</glyph>
<glyph name="Otilde" format="1">
  <advance width="745"/>
  <unicode hex="00D5"/>
  <outline>
    <contour>
      <point x="241" y="816" type="line"/>
      <point x="261" y="835"/>
      <point x="296" y="862"/>
      <point x="320" y="869" type="curve"/>
      <point x="358" y="869"/>
      <point x="412" y="816"/>
      <point x="446" y="816" type="curve" smooth="yes"/>
      <point x="466" y="816"/>
      <point x="527" y="879"/>
      <point x="546" y="907" type="curve"/>
      <point x="531" y="919" type="line"/>
      <point x="511" y="900"/>
      <point x="488" y="883"/>
      <point x="464" y="876" type="curve"/>
      <point x="397" y="894"/>
      <point x="368" y="929"/>
      <point x="338" y="929" type="curve" smooth="yes"/>
      <point x="318" y="929"/>
      <point x="247" y="858"/>
      <point x="228" y="830" type="curve"/>
    </contour>
    <contour>
      <point x="42" y="149"/>
      <point x="136" y="-14"/>
      <point x="359" y="-14" type="curve" smooth="yes"/>
      <point x="417" y="-14"/>
      <point x="561" y="16"/>
      <point x="633" y="122" type="curve" smooth="yes"/>
      <point x="696" y="214"/>
      <point x="704" y="340"/>
      <point x="704" y="411" type="curve" smooth="yes"/>
      <point x="704" y="621"/>
      <point x="609" y="751"/>
      <point x="395" y="751" type="curve" smooth="yes"/>
      <point x="338" y="751"/>
      <point x="181" y="722"/>
      <point x="106" y="610" type="curve" smooth="yes"/>
      <point x="69" y="554"/>
      <point x="42" y="472"/>
      <point x="42" y="358" type="curve" smooth="yes"/>
    </contour>
    <contour>
      <point x="144" y="610"/>
      <point x="237" y="689"/>
      <point x="359" y="689" type="curve" smooth="yes"/>
      <point x="376" y="689"/>
      <point x="404" y="689"/>
      <point x="413" y="687" type="curve"/>
      <point x="507" y="673"/>
      <point x="601" y="596"/>
      <point x="601" y="351" type="curve" smooth="yes"/>
      <point x="601" y="128"/>
      <point x="522" y="52"/>
      <point x="405" y="52" type="curve" smooth="yes"/>
      <point x="357" y="52"/>
      <point x="327" y="54"/>
      <point x="285" y="75" type="curve" smooth="yes"/>
      <point x="144" y="147"/>
      <point x="144" y="345"/>
      <point x="144" y="379" type="curve" smooth="yes"/>
    </contour>
  </outline>
</glyph>
<glyph name="Odieresis" format="1">
  <advance width="745"/>
  <unicode hex="00D6"/>
  <outline>
    <contour>
      <point x="241" y="860"/>
      <point x="275" y="812"/>
      <point x="296" y="812" type="curve" smooth="yes"/>
      <point x="317" y="812"/>
      <point x="354" y="850"/>
      <point x="354" y="884" type="curve" smooth="yes"/>
      <point x="354" y="920"/>
      <point x="310" y="945"/>
      <point x="296" y="945" type="curve" smooth="yes"/>
      <point x="262" y="945"/>
      <point x="241" y="880"/>
      <point x="241" y="873" type="curve" smooth="yes"/>
    </contour>
    <contour>
      <point x="428" y="860"/>
      <point x="462" y="812"/>
      <point x="483" y="812" type="curve" smooth="yes"/>
      <point x="504" y="812"/>
      <point x="542" y="850"/>
      <point x="542" y="884" type="curve" smooth="yes"/>
      <point x="542" y="920"/>
      <point x="498" y="945"/>
      <point x="483" y="945" type="curve" smooth="yes"/>
      <point x="450" y="945"/>
      <point x="428" y="880"/>
      <point x="428" y="873" type="curve" smooth="yes"/>
    </contour>
    <contour>
      <point x="42" y="149"/>
      <point x="136" y="-14"/>
      <point x="359" y="-14" type="curve" smooth="yes"/>
      <point x="417" y="-14"/>
      <point x="561" y="16"/>
      <point x="633" y="122" type="curve" smooth="yes"/>
      <point x="696" y="214"/>
      <point x="704" y="340"/>
      <point x="704" y="411" type="curve" smooth="yes"/>
      <point x="704" y="621"/>
      <point x="609" y="751"/>
      <point x="395" y="751" type="curve" smooth="yes"/>
      <point x="338" y="751"/>
      <point x="181" y="722"/>
      <point x="106" y="610" type="curve" smooth="yes"/>
      <point x="69" y="554"/>
      <point x="42" y="472"/>
      <point x="42" y="358" type="curve" smooth="yes"/>
    </contour>
    <contour>
      <point x="144" y="610"/>
      <point x="237" y="689"/>
      <point x="359" y="689" type="curve" smooth="yes"/>
      <point x="376" y="689"/>
      <point x="404" y="689"/>
      <point x="413" y="687" type="curve"/>
      <point x="507" y="673"/>
      <point x="601" y="596"/>
      <point x="601" y="351" type="curve" smooth="yes"/>
      <point x="601" y="128"/>
      <point x="522" y="52"/>
      <point x="405" y="52" type="curve" smooth="yes"/>
      <point x="357" y="52"/>
      <point x="327" y="54"/>
      <point x="285" y="75" type="curve" smooth="yes"/>
      <point x="144" y="147"/>
      <point x="144" y="345"/>
      <point x="144" y="379" type="curve" smooth="yes"/>
    </contour>
  </outline>
</glyph>
<glyph name="Oslash" format="1">
  <advance width="745"/>
  <unicode hex="00D8"/>
  <outline>
    <contour>
      <point x="42" y="208"/>
      <point x="90" y="82"/>
      <point x="199" y="23" type="curve"/>
      <point x="166" y="-45" type="line"/>
      <point x="205" y="-63" type="line"/>
      <point x="239" y="5" type="line"/>
      <point x="274" y="-7"/>
      <point x="314" y="-14"/>
      <point x="359" y="-14" type="curve" smooth="yes"/>
      <point x="417" y="-14"/>
      <point x="561" y="16"/>
      <point x="633" y="122" type="curve" smooth="yes"/>
      <point x="696" y="214"/>
      <point x="704" y="340"/>
      <point x="704" y="411" type="curve" smooth="yes"/>
      <point x="704" y="543"/>
      <point x="666" y="644"/>
      <point x="584" y="700" type="curve"/>
      <point x="620" y="772" type="line"/>
      <point x="579" y="791" type="line"/>
      <point x="545" y="722" type="line"/>
      <point x="503" y="741"/>
      <point x="454" y="751"/>
      <point x="395" y="751" type="curve" smooth="yes"/>
      <point x="338" y="751"/>
      <point x="181" y="722"/>
      <point x="106" y="610" type="curve" smooth="yes"/>
      <point x="69" y="554"/>
      <point x="42" y="472"/>
      <point x="42" y="358" type="curve" smooth="yes"/>
    </contour>
    <contour>
      <point x="144" y="610"/>
      <point x="237" y="689"/>
      <point x="359" y="689" type="curve" smooth="yes"/>
      <point x="376" y="689"/>
      <point x="404" y="689"/>
      <point x="413" y="687" type="curve"/>
      <point x="445" y="682"/>
      <point x="478" y="669"/>
      <point x="507" y="645" type="curve"/>
      <point x="240" y="106" type="line"/>
      <point x="144" y="192"/>
      <point x="144" y="349"/>
      <point x="144" y="379" type="curve" smooth="yes"/>
    </contour>
    <contour>
      <point x="276" y="79" type="line"/>
      <point x="539" y="609" type="line"/>
      <point x="576" y="558"/>
      <point x="601" y="477"/>
      <point x="601" y="351" type="curve" smooth="yes"/>
      <point x="601" y="128"/>
      <point x="522" y="52"/>
      <point x="405" y="52" type="curve" smooth="yes"/>
      <point x="357" y="52"/>
      <point x="327" y="54"/>
      <point x="285" y="75" type="curve"/>
    </contour>
  </outline>
</glyph>
<glyph name="Ugrave" format="1">
  <advance width="757"/>
  <unicode hex="00D9"/>
  <outline>
    <contour>
      <point x="255" y="923" type="line"/>
      <point x="298" y="895"/>
      <point x="411" y="830"/>
      <point x="473" y="803" type="curve"/>
      <point x="486" y="827" type="line"/>
      <point x="424" y="872"/>
      <point x="342" y="943"/>
      <point x="304" y="977" type="curve"/>
      <point x="278" y="973"/>
      <point x="255" y="949"/>
      <point x="255" y="927" type="curve" smooth="yes"/>
    </contour>
    <contour>
      <point x="34" y="701" type="line"/>
      <point x="92" y="697"/>
      <point x="110" y="694"/>
      <point x="115" y="650" type="curve" smooth="yes"/>
      <point x="116" y="639"/>
      <point x="118" y="214"/>
      <point x="118" y="214" type="curve"/>
      <point x="118" y="150"/>
      <point x="154" y="-14"/>
      <point x="362" y="-14" type="curve" smooth="yes"/>
      <point x="516" y="-14"/>
      <point x="671" y="14"/>
      <point x="671" y="238" type="curve" smooth="yes"/>
      <point x="671" y="278"/>
      <point x="678" y="599"/>
      <point x="681" y="640" type="curve" smooth="yes"/>
      <point x="682" y="658" type="line" smooth="yes"/>
      <point x="684" y="685"/>
      <point x="718" y="697"/>
      <point x="762" y="702" type="curve"/>
      <point x="762" y="738" type="line"/>
      <point x="526" y="738" type="line"/>
      <point x="526" y="699" type="line"/>
      <point x="569" y="695"/>
      <point x="616" y="688"/>
      <point x="616" y="655" type="curve" smooth="yes"/>
      <point x="616" y="535"/>
      <point x="618" y="445"/>
      <point x="618" y="356" type="curve" smooth="yes"/>
      <point x="618" y="131"/>
      <point x="597" y="46"/>
      <point x="434" y="46" type="curve" smooth="yes"/>
      <point x="266" y="46"/>
      <point x="222" y="142"/>
      <point x="222" y="197" type="curve" smooth="yes"/>
      <point x="222" y="212"/>
      <point x="222" y="255"/>
      <point x="221" y="310" type="curve"/>
      <point x="221" y="390" type="line" smooth="yes"/>
      <point x="221" y="493"/>
      <point x="220" y="606"/>
      <point x="220" y="655" type="curve" smooth="yes"/>
      <point x="220" y="692"/>
      <point x="257" y="697"/>
      <point x="310" y="701" type="curve"/>
      <point x="310" y="738" type="line"/>
      <point x="34" y="738" type="line"/>
    </contour>
  </outline>
</glyph>
<glyph name="Ucircumflex" format="1">
  <advance width="757"/>
  <unicode hex="00DB"/>
  <outline>
    <contour>
      <point x="319" y="793" type="line"/>
      <point x="419" y="863" type="line"/>
      <point x="522" y="795" type="line"/>
      <point x="541" y="812" type="line"/>
      <point x="502" y="854"/>
      <point x="482" y="877"/>
      <point x="443" y="934" type="curve"/>
      <point x="403" y="934" type="line"/>
      <point x="368" y="886"/>
      <point x="347" y="859"/>
      <point x="301" y="811" type="curve"/>
    </contour>
    <contour>
      <point x="34" y="701" type="line"/>
      <point x="92" y="697"/>
      <point x="110" y="694"/>
      <point x="115" y="650" type="curve" smooth="yes"/>
      <point x="116" y="639"/>
      <point x="118" y="214"/>
      <point x="118" y="214" type="curve"/>
      <point x="118" y="150"/>
      <point x="154" y="-14"/>
      <point x="362" y="-14" type="curve" smooth="yes"/>
      <point x="516" y="-14"/>
      <point x="671" y="14"/>
      <point x="671" y="238" type="curve" smooth="yes"/>
      <point x="671" y="278"/>
      <point x="678" y="599"/>
      <point x="681" y="640" type="curve" smooth="yes"/>
      <point x="682" y="658" type="line" smooth="yes"/>
      <point x="684" y="685"/>
      <point x="718" y="697"/>
      <point x="762" y="702" type="curve"/>
      <point x="762" y="738" type="line"/>
      <point x="526" y="738" type="line"/>
      <point x="526" y="699" type="line"/>
      <point x="569" y="695"/>
      <point x="616" y="688"/>
      <point x="616" y="655" type="curve" smooth="yes"/>
      <point x="616" y="535"/>
      <point x="618" y="445"/>
      <point x="618" y="356" type="curve" smooth="yes"/>
      <point x="618" y="131"/>
      <point x="597" y="46"/>
      <point x="434" y="46" type="curve" smooth="yes"/>
      <point x="266" y="46"/>
      <point x="222" y="142"/>
      <point x="222" y="197" type="curve" smooth="yes"/>
      <point x="222" y="212"/>
      <point x="222" y="255"/>
      <point x="221" y="310" type="curve"/>
      <point x="221" y="390" type="line" smooth="yes"/>
      <point x="221" y="493"/>
      <point x="220" y="606"/>
      <point x="220" y="655" type="curve" smooth="yes"/>
      <point x="220" y="692"/>
      <point x="257" y="697"/>
      <point x="310" y="701" type="curve"/>
      <point x="310" y="738" type="line"/>
      <point x="34" y="738" type="line"/>
    </contour>
  </outline>
</glyph>
<glyph name="Udieresis" format="1">
  <advance width="757"/>
  <unicode hex="00DC"/>
  <outline>
    <contour>
      <point x="269" y="860"/>
      <point x="303" y="812"/>
      <point x="324" y="812" type="curve" smooth="yes"/>
      <point x="345" y="812"/>
      <point x="382" y="850"/>
      <point x="382" y="884" type="curve" smooth="yes"/>
      <point x="382" y="920"/>
      <point x="338" y="945"/>
      <point x="324" y="945" type="curve" smooth="yes"/>
      <point x="290" y="945"/>
      <point x="269" y="880"/>
      <point x="269" y="873" type="curve" smooth="yes"/>
    </contour>
    <contour>
      <point x="456" y="860"/>
      <point x="490" y="812"/>
      <point x="511" y="812" type="curve" smooth="yes"/>
      <point x="532" y="812"/>
      <point x="570" y="850"/>
      <point x="570" y="884" type="curve" smooth="yes"/>
      <point x="570" y="920"/>
      <point x="526" y="945"/>
      <point x="511" y="945" type="curve" smooth="yes"/>
      <point x="478" y="945"/>
      <point x="456" y="880"/>
      <point x="456" y="873" type="curve" smooth="yes"/>
    </contour>
    <contour>
      <point x="34" y="701" type="line"/>
      <point x="92" y="697"/>
      <point x="110" y="694"/>
      <point x="115" y="650" type="curve" smooth="yes"/>
      <point x="116" y="639"/>
      <point x="118" y="214"/>
      <point x="118" y="214" type="curve"/>
      <point x="118" y="150"/>
      <point x="154" y="-14"/>
      <point x="362" y="-14" type="curve" smooth="yes"/>
      <point x="516" y="-14"/>
      <point x="671" y="14"/>
      <point x="671" y="238" type="curve" smooth="yes"/>
      <point x="671" y="278"/>
      <point x="678" y="599"/>
      <point x="681" y="640" type="curve" smooth="yes"/>
      <point x="682" y="658" type="line" smooth="yes"/>
      <point x="684" y="685"/>
      <point x="718" y="697"/>
      <point x="762" y="702" type="curve"/>
      <point x="762" y="738" type="line"/>
      <point x="526" y="738" type="line"/>
      <point x="526" y="699" type="line"/>
      <point x="569" y="695"/>
      <point x="616" y="688"/>
      <point x="616" y="655" type="curve" smooth="yes"/>
      <point x="616" y="535"/>
      <point x="618" y="445"/>
      <point x="618" y="356" type="curve" smooth="yes"/>
      <point x="618" y="131"/>
      <point x="597" y="46"/>
      <point x="434" y="46" type="curve" smooth="yes"/>
      <point x="266" y="46"/>
      <point x="222" y="142"/>
      <point x="222" y="197" type="curve" smooth="yes"/>
      <point x="222" y="212"/>
      <point x="222" y="255"/>
      <point x="221" y="310" type="curve"/>
      <point x="221" y="390" type="line" smooth="yes"/>
      <point x="221" y="493"/>
      <point x="220" y="606"/>
      <point x="220" y="655" type="curve" smooth="yes"/>
      <point x="220" y="692"/>
      <point x="257" y="697"/>
      <point x="310" y="701" type="curve"/>
      <point x="310" y="738" type="line"/>
      <point x="34" y="738" type="line"/>
    </contour>
  </outline>
</glyph>
<glyph name="germandbls" format="1">
  <advance width="598"/>
  <unicode hex="00DF"/>
  <outline>
    <contour>
      <point x="26" y="0" type="line"/>
      <point x="269" y="0" type="line"/>
      <point x="269" y="34" type="line"/>
      <point x="196" y="43"/>
      <point x="195" y="37"/>
      <point x="195" y="131" type="curve" smooth="yes"/>
      <point x="195" y="208"/>
      <point x="199" y="402"/>
      <point x="199" y="519" type="curve" smooth="yes"/>
      <point x="199" y="593"/>
      <point x="225" y="764"/>
      <point x="329" y="764" type="curve" smooth="yes"/>
      <point x="381" y="764"/>
      <point x="407" y="715"/>
      <point x="407" y="645" type="curve" smooth="yes"/>
      <point x="407" y="551"/>
      <point x="304" y="555"/>
      <point x="304" y="410" type="curve" smooth="yes"/>
      <point x="304" y="313"/>
      <point x="503" y="213"/>
      <point x="503" y="122" type="curve" smooth="yes"/>
      <point x="503" y="71"/>
      <point x="466" y="47"/>
      <point x="412" y="47" type="curve" smooth="yes"/>
      <point x="309" y="47"/>
      <point x="345" y="171"/>
      <point x="305" y="171" type="curve" smooth="yes"/>
      <point x="281" y="171"/>
      <point x="278" y="162"/>
      <point x="278" y="53" type="curve" smooth="yes"/>
      <point x="278" y="22"/>
      <point x="342" y="-17"/>
      <point x="397" y="-17" type="curve" smooth="yes"/>
      <point x="412" y="-17"/>
      <point x="469" y="-9"/>
      <point x="492" y="8" type="curve" smooth="yes"/>
      <point x="524" y="33"/>
      <point x="533" y="48"/>
      <point x="553" y="80" type="curve" smooth="yes"/>
      <point x="568" y="105"/>
      <point x="568" y="140"/>
      <point x="568" y="157" type="curve" smooth="yes"/>
      <point x="568" y="330"/>
      <point x="390" y="344"/>
      <point x="390" y="469" type="curve" smooth="yes"/>
      <point x="390" y="545"/>
      <point x="484" y="584"/>
      <point x="484" y="663" type="curve" smooth="yes"/>
      <point x="484" y="735"/>
      <point x="429" y="798"/>
      <point x="324" y="798" type="curve" smooth="yes"/>
      <point x="168" y="798"/>
      <point x="99" y="643"/>
      <point x="99" y="497" type="curve" smooth="yes"/>
      <point x="100" y="448" type="line" smooth="yes"/>
      <point x="103" y="310"/>
      <point x="106" y="137"/>
      <point x="106" y="102" type="curve" smooth="yes"/>
      <point x="106" y="43"/>
      <point x="99" y="45"/>
      <point x="26" y="34" type="curve"/>
    </contour>
  </outline>
</glyph>
